NotoSerifBengali-CondensedMedium.ufo
<glyph name="exclam" format="2">
  <advance width="305.7413793103448"/>
  <unicode hex="0021"/>
  <outline>
    <contour>
      <point x="130.67241379310346" y="209.57931034482758" type="line"/>
      <point x="179.06551724137933" y="209.57931034482758" type="line"/>
      <point x="213.0655172413793" y="714.0" type="line"/>
      <point x="96.67241379310344" y="714.0" type="line"/>
    </contour>
    <contour>
      <point x="155.3448275862069" y="-7.275862068965517" type="curve" smooth="yes"/>
      <point x="186.16206896551725" y="-7.275862068965517"/>
      <point x="213.21034482758623" y="8.851724137931035"/>
      <point x="213.21034482758623" y="58.98620689655172" type="curve" smooth="yes"/>
      <point x="213.21034482758623" y="108.90344827586208"/>
      <point x="186.16206896551725" y="124.94827586206894"/>
      <point x="155.3448275862069" y="124.94827586206894" type="curve" smooth="yes"/>
      <point x="122.55172413793103" y="124.94827586206894"/>
      <point x="97.20344827586206" y="108.90344827586208"/>
      <point x="97.20344827586206" y="58.98620689655172" type="curve" smooth="yes"/>
      <point x="97.20344827586206" y="8.851724137931035"/>
      <point x="122.55172413793103" y="-7.275862068965517"/>
    </contour>
  </outline>
</glyph>
<glyph name="quotedbl" format="2">
  <advance width="380.76206896551724"/>
  <unicode hex="0022"/>
  <outline>
    <contour>
      <point x="253.3344827586207" y="475.0793103448276" type="line"/>
      <point x="298.48275862068965" y="475.0793103448276" type="line"/>
      <point x="328.23793103448276" y="714.0" type="line"/>
      <point x="222.1758620689655" y="714.0" type="line"/>
    </contour>
    <contour>
      <point x="82.66896551724139" y="475.0793103448276" type="line"/>
      <point x="127.9241379310345" y="475.0793103448276" type="line"/>
      <point x="158.3689655172414" y="714.0" type="line"/>
      <point x="52.44137931034483" y="714.0" type="line"/>
    </contour>
  </outline>
</glyph>
<glyph name="numbersign" format="2">
  <advance width="480.3103448275862"/>
  <unicode hex="0023"/>
  <outline>
    <contour>
      <point x="55.93103448275861" y="0.0" type="line"/>
      <point x="114.9793103448276" y="0.0" type="line"/>
      <point x="153.48620689655172" y="205.69310344827588" type="line"/>
      <point x="263.4758620689655" y="205.69310344827588" type="line"/>
      <point x="224.9448275862069" y="0.0" type="line"/>
      <point x="283.9931034482759" y="0.0" type="line"/>
      <point x="322.44137931034487" y="205.69310344827588" type="line"/>
      <point x="434.248275862069" y="205.69310344827588" type="line"/>
      <point x="434.248275862069" y="261.451724137931" type="line"/>
      <point x="333.67931034482757" y="261.451724137931" type="line"/>
      <point x="370.44137931034487" y="457.7655172413793" type="line"/>
      <point x="466.4655172413793" y="457.7655172413793" type="line"/>
      <point x="466.4655172413793" y="515.0310344827586" type="line"/>
      <point x="381.2931034482759" y="515.0310344827586" type="line"/>
      <point x="419.2103448275862" y="714.0" type="line"/>
      <point x="359.46206896551723" y="714.0" type="line"/>
      <point x="322.24482758620695" y="515.0310344827586" type="line"/>
      <point x="212.25517241379313" y="515.0310344827586" type="line"/>
      <point x="249.76206896551724" y="714.0" type="line"/>
      <point x="189.93103448275863" y="714.0" type="line"/>
      <point x="153.2896551724138" y="515.0310344827586" type="line"/>
      <point x="45.33793103448276" y="515.0310344827586" type="line"/>
      <point x="45.33793103448276" y="457.7655172413793" type="line"/>
      <point x="142.03793103448277" y="457.7655172413793" type="line"/>
      <point x="104.98965517241379" y="261.451724137931" type="line"/>
      <point x="13.037931034482762" y="261.451724137931" type="line"/>
      <point x="13.037931034482762" y="205.69310344827588" type="line"/>
      <point x="94.52068965517242" y="205.69310344827588" type="line"/>
    </contour>
    <contour>
      <point x="164.55517241379312" y="261.451724137931" type="line"/>
      <point x="201.7034482758621" y="457.7655172413793" type="line"/>
      <point x="311.96896551724143" y="457.7655172413793" type="line"/>
      <point x="274.93103448275866" y="261.451724137931" type="line"/>
    </contour>
  </outline>
</glyph>
<glyph name="percent" format="2">
  <advance width="772.296551724138"/>
  <unicode hex="0025"/>
  <outline>
    <contour>
      <point x="203.27931034482756" y="0.0" type="line"/>
      <point x="263.1379310344828" y="0.0" type="line"/>
      <point x="565.6931034482759" y="714.0" type="line"/>
      <point x="506.4241379310345" y="714.0" type="line"/>
    </contour>
    <contour>
      <point x="180.58620689655172" y="280.0" type="curve" smooth="yes"/>
      <point x="279.07241379310346" y="280.0"/>
      <point x="326.8758620689655" y="369.0"/>
      <point x="326.8758620689655" y="503.0" type="curve"/>
      <point x="326.8758620689655" y="637.0"/>
      <point x="278.8551724137931" y="724.0"/>
      <point x="181.58620689655172" y="724.0" type="curve" smooth="yes"/>
      <point x="78.10000000000001" y="724.0"/>
      <point x="34.96896551724138" y="637.0"/>
      <point x="34.96896551724138" y="503.0" type="curve" smooth="yes"/>
      <point x="34.96896551724138" y="369.0"/>
      <point x="77.88275862068966" y="280.0"/>
    </contour>
    <contour>
      <point x="180.58620689655172" y="319.2172413793103" type="curve" smooth="yes"/>
      <point x="131.54137931034484" y="319.2172413793103"/>
      <point x="114.01724137931033" y="385.6896551724138"/>
      <point x="114.01724137931033" y="503.0" type="curve"/>
      <point x="114.01724137931033" y="618.0931034482759"/>
      <point x="131.24137931034483" y="683.7827586206897"/>
      <point x="181.36896551724138" y="683.7827586206897" type="curve" smooth="yes"/>
      <point x="230.79655172413794" y="683.7827586206897"/>
      <point x="246.7448275862069" y="618.5275862068966"/>
      <point x="246.7448275862069" y="503.0" type="curve" smooth="yes"/>
      <point x="246.7448275862069" y="385.9068965517242"/>
      <point x="230.79655172413794" y="319.2172413793103"/>
    </contour>
    <contour>
      <point x="590.903448275862" y="-10.0" type="curve" smooth="yes"/>
      <point x="689.1965517241379" y="-10.0"/>
      <point x="737.1931034482759" y="79.0"/>
      <point x="737.1931034482759" y="213.0" type="curve" smooth="yes"/>
      <point x="737.1931034482759" y="347.0"/>
      <point x="688.9793103448276" y="434.0"/>
      <point x="591.903448275862" y="434.0" type="curve" smooth="yes"/>
      <point x="488.7068965517241" y="434.0"/>
      <point x="445.28620689655173" y="347.0"/>
      <point x="445.28620689655173" y="213.0" type="curve" smooth="yes"/>
      <point x="445.28620689655173" y="79.0"/>
      <point x="488.7068965517241" y="-10.0"/>
    </contour>
    <contour>
      <point x="590.903448275862" y="29.21724137931034" type="curve" smooth="yes"/>
      <point x="541.8586206896551" y="29.21724137931034"/>
      <point x="524.3344827586207" y="95.6896551724138"/>
      <point x="524.3344827586207" y="213.0" type="curve" smooth="yes"/>
      <point x="524.3344827586207" y="328.0931034482758"/>
      <point x="541.5586206896552" y="393.7827586206897"/>
      <point x="591.203448275862" y="393.7827586206897" type="curve" smooth="yes"/>
      <point x="641.1137931034484" y="393.7827586206897"/>
      <point x="656.7620689655173" y="328.5275862068966"/>
      <point x="656.7620689655173" y="213.0" type="curve" smooth="yes"/>
      <point x="656.7620689655173" y="95.90689655172415"/>
      <point x="641.1137931034484" y="29.21724137931034"/>
    </contour>
  </outline>
</glyph>
<glyph name="quotesingle" format="2">
  <advance width="210.89310344827587"/>
  <unicode hex="0027"/>
  <outline>
    <contour>
      <point x="82.66896551724139" y="475.0793103448276" type="line"/>
      <point x="127.9241379310345" y="475.0793103448276" type="line"/>
      <point x="158.3689655172414" y="714.0" type="line"/>
      <point x="52.44137931034483" y="714.0" type="line"/>
    </contour>
  </outline>
</glyph>
<glyph name="parenleft" format="2">
  <advance width="323.64137931034486"/>
  <unicode hex="0028"/>
  <outline>
    <contour>
      <point x="279.75172413793103" y="-129.09999999999997" type="curve"/>
      <point x="279.75172413793103" y="-81.42758620689655" type="line"/>
      <point x="165.97241379310344" y="1.0793103448275865"/>
      <point x="149.41379310344828" y="158.27586206896552"/>
      <point x="149.41379310344828" y="317.2758620689655" type="curve" smooth="yes"/>
      <point x="149.41379310344828" y="476.0"/>
      <point x="165.97241379310344" y="631.7137931034483"/>
      <point x="279.75172413793103" y="714.4862068965518" type="curve"/>
      <point x="279.75172413793103" y="760.5931034482759" type="line"/>
      <point x="109.72758620689655" y="687.1724137931035"/>
      <point x="42.38965517241379" y="554.8137931034483"/>
      <point x="42.38965517241379" y="317.2758620689655" type="curve" smooth="yes"/>
      <point x="42.38965517241379" y="78.46206896551725"/>
      <point x="109.72758620689655" y="-54.27931034482758"/>
    </contour>
  </outline>
</glyph>
<glyph name="parenright" format="2">
  <advance width="332.34137931034485"/>
  <unicode hex="0029"/>
  <outline>
    <contour>
      <point x="53.28965517241381" y="-129.09999999999997" type="line"/>
      <point x="223.31379310344832" y="-54.27931034482758"/>
      <point x="290.4586206896552" y="78.46206896551725"/>
      <point x="290.4586206896552" y="317.2758620689655" type="curve" smooth="yes"/>
      <point x="290.4586206896552" y="554.8137931034483"/>
      <point x="223.31379310344832" y="687.1724137931035"/>
      <point x="53.28965517241381" y="760.5931034482759" type="curve"/>
      <point x="53.28965517241381" y="714.4862068965518" type="line"/>
      <point x="166.7931034482759" y="631.7137931034483"/>
      <point x="184.13448275862072" y="476.0"/>
      <point x="184.13448275862072" y="317.2758620689655" type="curve" smooth="yes"/>
      <point x="184.13448275862072" y="158.27586206896552"/>
      <point x="166.7931034482759" y="1.0793103448275865"/>
      <point x="53.28965517241381" y="-81.42758620689655" type="curve"/>
    </contour>
  </outline>
</glyph>
<glyph name="asterisk" format="2">
  <advance width="416.12413793103445"/>
  <unicode hex="002A"/>
  <outline>
    <contour>
      <point x="168.03103448275866" y="373.5448275862069" type="line"/>
      <point x="248.01034482758624" y="373.5448275862069" type="line"/>
      <point x="222.23793103448276" y="537.9482758620691" type="line"/>
      <point x="349.2448275862069" y="441.3034482758621" type="line"/>
      <point x="381.8448275862069" y="518.1137931034482" type="line"/>
      <point x="246.2241379310345" y="566.7724137931035" type="line"/>
      <point x="381.8448275862069" y="615.648275862069" type="line"/>
      <point x="349.2448275862069" y="692.2413793103449" type="line"/>
      <point x="222.23793103448276" y="595.9103448275862" type="line"/>
      <point x="248.06896551724137" y="760.0" type="line"/>
      <point x="168.03103448275866" y="760.0" type="line"/>
      <point x="191.91379310344828" y="595.1275862068966" type="line"/>
      <point x="65.71379310344828" y="694.4586206896552" type="line"/>
      <point x="33.172413793103445" y="616.648275862069" type="line"/>
      <point x="168.79310344827584" y="566.7724137931035" type="line"/>
      <point x="33.172413793103445" y="517.1137931034482" type="line"/>
      <point x="65.71379310344828" y="439.3034482758621" type="line"/>
      <point x="191.50344827586207" y="538.1413793103449" type="line"/>
    </contour>
  </outline>
</glyph>
<glyph name="plus" format="2">
  <advance width="465.2"/>
  <unicode hex="002B"/>
  <outline>
    <contour>
      <point x="201.1034482758621" y="143.0" type="line"/>
      <point x="262.3724137931034" y="143.0" type="line"/>
      <point x="262.3724137931034" y="327.92068965517245" type="line"/>
      <point x="416.5655172413793" y="327.92068965517245" type="line"/>
      <point x="416.5655172413793" y="387.29655172413794" type="line"/>
      <point x="262.3724137931034" y="387.29655172413794" type="line"/>
      <point x="262.3724137931034" y="572.0" type="line"/>
      <point x="201.1034482758621" y="572.0" type="line"/>
      <point x="201.1034482758621" y="387.29655172413794" type="line"/>
      <point x="48.41724137931035" y="387.29655172413794" type="line"/>
      <point x="48.41724137931035" y="327.92068965517245" type="line"/>
      <point x="201.1034482758621" y="327.92068965517245" type="line"/>
    </contour>
  </outline>
</glyph>
<glyph name="comma" format="2">
  <advance width="248.64137931034486"/>
  <unicode hex="002C"/>
  <outline>
    <contour>
      <point x="51.448275862068975" y="-154.0" type="line"/>
      <point x="152.39655172413794" y="-121.12413793103448"/>
      <point x="190.6103448275862" y="-49.0448275862069"/>
      <point x="190.6103448275862" y="31.117241379310343" type="curve" smooth="yes"/>
      <point x="190.6103448275862" y="90.72413793103449"/>
      <point x="163.4758620689655" y="124.94827586206894"/>
      <point x="123.62413793103448" y="124.94827586206894" type="curve" smooth="yes"/>
      <point x="92.3241379310345" y="124.94827586206894"/>
      <point x="68.16896551724139" y="103.90344827586208"/>
      <point x="68.16896551724139" y="68.15517241379311" type="curve" smooth="yes"/>
      <point x="68.16896551724139" y="8.703448275862069"/>
      <point x="126.49310344827586" y="12.63448275862069"/>
      <point x="126.49310344827586" y="-24.989655172413794" type="curve" smooth="yes"/>
      <point x="126.49310344827586" y="-61.0"/>
      <point x="102.00689655172414" y="-93.28965517241379"/>
      <point x="51.448275862068975" y="-113.08275862068966" type="curve"/>
    </contour>
  </outline>
</glyph>
<glyph name="hyphen" format="2">
  <advance width="266.7448275862069"/>
  <unicode hex="002D"/>
  <outline>
    <contour>
      <point x="21.475862068965515" y="233.1551724137931" type="line"/>
      <point x="245.05172413793102" y="233.1551724137931" type="line"/>
      <point x="245.05172413793102" y="311.84482758620686" type="line"/>
      <point x="21.475862068965515" y="311.84482758620686" type="line"/>
    </contour>
  </outline>
</glyph>
<glyph name="period" format="2">
  <advance width="244.66896551724142"/>
  <unicode hex="002E"/>
  <outline>
    <contour>
      <point x="131.14137931034483" y="-7.275862068965517" type="curve" smooth="yes"/>
      <point x="161.9586206896552" y="-7.275862068965517"/>
      <point x="188.9" y="8.851724137931035"/>
      <point x="188.9" y="58.98620689655172" type="curve" smooth="yes"/>
      <point x="188.9" y="108.90344827586208"/>
      <point x="161.9586206896552" y="124.94827586206894"/>
      <point x="131.14137931034483" y="124.94827586206894" type="curve" smooth="yes"/>
      <point x="98.34827586206897" y="124.94827586206894"/>
      <point x="72.38275862068966" y="108.90344827586208"/>
      <point x="72.38275862068966" y="58.98620689655172" type="curve" smooth="yes"/>
      <point x="72.38275862068966" y="8.851724137931035"/>
      <point x="98.34827586206897" y="-7.275862068965517"/>
    </contour>
  </outline>
</glyph>
<glyph name="slash" format="2">
  <advance width="247.35172413793103"/>
  <unicode hex="002F"/>
  <outline>
    <contour>
      <point x="0.0" y="-121.0" type="line"/>
      <point x="54.751724137931035" y="-120.49310344827586" type="line"/>
      <point x="247.35172413793103" y="760.0" type="line"/>
      <point x="194.57586206896553" y="760.0" type="line"/>
    </contour>
  </outline>
</glyph>
<glyph name="zero" format="2">
  <advance width="479.8034482758621"/>
  <unicode hex="0030"/>
  <outline>
    <contour>
      <point x="240.05172413793102" y="-10.0" type="curve" smooth="yes"/>
      <point x="382.3827586206897" y="-10.0"/>
      <point x="444.35172413793106" y="129.5655172413793"/>
      <point x="444.35172413793106" y="358.0" type="curve" smooth="yes"/>
      <point x="444.35172413793106" y="588.6413793103447"/>
      <point x="384.2896551724138" y="724.0"/>
      <point x="241.05172413793102" y="724.0" type="curve" smooth="yes"/>
      <point x="89.21379310344828" y="724.0"/>
      <point x="34.751724137931035" y="585.0206896551724"/>
      <point x="34.751724137931035" y="359.0" type="curve" smooth="yes"/>
      <point x="34.751724137931035" y="127.15172413793103"/>
      <point x="90.92758620689655" y="-10.0"/>
    </contour>
    <contour>
      <point x="240.05172413793102" y="43.62758620689655" type="curve" smooth="yes"/>
      <point x="163.12413793103448" y="43.62758620689655"/>
      <point x="139.96896551724137" y="159.3896551724138"/>
      <point x="139.96896551724137" y="358.0" type="curve" smooth="yes"/>
      <point x="139.96896551724137" y="556.6103448275862"/>
      <point x="163.12413793103448" y="670.3724137931034"/>
      <point x="241.05172413793102" y="670.3724137931034" type="curve" smooth="yes"/>
      <point x="316.78620689655173" y="670.3724137931034"/>
      <point x="340.3413793103448" y="556.6103448275862"/>
      <point x="340.3413793103448" y="358.0" type="curve" smooth="yes"/>
      <point x="340.3413793103448" y="159.3896551724138"/>
      <point x="316.78620689655173" y="43.62758620689655"/>
    </contour>
  </outline>
</glyph>
<glyph name="one" format="2">
  <advance width="479.8034482758621"/>
  <unicode hex="0031"/>
  <outline>
    <contour>
      <point x="82.4448275862069" y="0.0" type="line"/>
      <point x="414.63103448275865" y="0.0" type="line"/>
      <point x="414.63103448275865" y="43.53448275862068" type="line"/>
      <point x="372.51724137931035" y="43.53448275862068" type="line" smooth="yes"/>
      <point x="332.0655172413793" y="43.53448275862068"/>
      <point x="304.63103448275865" y="55.52413793103449"/>
      <point x="304.63103448275865" y="114.04482758620689" type="curve" smooth="yes"/>
      <point x="304.63103448275865" y="718.0" type="line"/>
      <point x="236.8896551724138" y="718.0" type="line"/>
      <point x="177.00344827586207" y="667.0862068965517" type="line" smooth="yes"/>
      <point x="119.71724137931035" y="618.7862068965517"/>
      <point x="83.04482758620689" y="600.9793103448276"/>
      <point x="48.45172413793104" y="590.9793103448276" type="curve"/>
      <point x="48.45172413793104" y="556.8931034482758"/>
      <point x="67.67241379310344" y="535.5034482758622"/>
      <point x="93.91724137931035" y="535.5034482758622" type="curve" smooth="yes"/>
      <point x="128.00344827586207" y="535.5034482758622"/>
      <point x="161.99655172413793" y="576.344827586207"/>
      <point x="204.7896551724138" y="634.844827586207" type="curve"/>
      <point x="204.7896551724138" y="114.04482758620689" type="line" smooth="yes"/>
      <point x="204.7896551724138" y="52.237931034482756"/>
      <point x="176.16896551724136" y="43.53448275862068"/>
      <point x="136.7103448275862" y="43.53448275862068" type="curve" smooth="yes"/>
      <point x="82.4448275862069" y="43.53448275862068" type="line"/>
    </contour>
  </outline>
</glyph>
<glyph name="two" format="2">
  <advance width="479.8034482758621"/>
  <unicode hex="0032"/>
  <outline>
    <contour>
      <point x="41.220689655172414" y="0.0" type="line"/>
      <point x="429.648275862069" y="0.0" type="line"/>
      <point x="433.44137931034487" y="178.23793103448278" type="line"/>
      <point x="390.3965517241379" y="178.23793103448278" type="line"/>
      <point x="385.651724137931" y="157.2206896551724" type="line" smooth="yes"/>
      <point x="376.09999999999997" y="112.37241379310345"/>
      <point x="358.73793103448276" y="83.94137931034483"/>
      <point x="313.35862068965514" y="83.94137931034483" type="curve" smooth="yes"/>
      <point x="116.26206896551726" y="83.94137931034483" type="line"/>
      <point x="256.14827586206894" y="255.1379310344828" type="line" smooth="yes"/>
      <point x="353.1965517241379" y="367.1896551724138"/>
      <point x="413.148275862069" y="451.14482758620693"/>
      <point x="413.148275862069" y="554.5965517241378" type="curve" smooth="yes"/>
      <point x="413.148275862069" y="655.8724137931034"/>
      <point x="344.50344827586207" y="724.0"/>
      <point x="227.05862068965519" y="724.0" type="curve" smooth="yes"/>
      <point x="108.72068965517241" y="724.0"/>
      <point x="49.01724137931035" y="664.3137931034482"/>
      <point x="49.01724137931035" y="591.8724137931035" type="curve" smooth="yes"/>
      <point x="49.01724137931035" y="537.8758620689655"/>
      <point x="89.68275862068965" y="522.2103448275863"/>
      <point x="135.09655172413792" y="522.2103448275863" type="curve"/>
      <point x="135.09655172413792" y="605.9793103448276"/>
      <point x="153.71724137931034" y="672.4655172413793"/>
      <point x="227.05862068965519" y="672.4655172413793" type="curve" smooth="yes"/>
      <point x="281.69310344827585" y="672.4655172413793"/>
      <point x="309.21724137931034" y="624.7206896551725"/>
      <point x="309.21724137931034" y="546.2344827586206" type="curve" smooth="yes"/>
      <point x="309.21724137931034" y="453.9793103448276"/>
      <point x="279.3793103448276" y="380.93448275862073"/>
      <point x="183.72758620689655" y="258.71034482758625" type="curve" smooth="yes"/>
      <point x="41.220689655172414" y="74.26206896551724" type="line"/>
    </contour>
  </outline>
</glyph>
<glyph name="three" format="2">
  <advance width="479.8034482758621"/>
  <unicode hex="0033"/>
  <outline>
    <contour>
      <point x="217.74827586206897" y="-10.0" type="curve" smooth="yes"/>
      <point x="323.68620689655177" y="-10.0"/>
      <point x="436.21379310344827" y="43.0"/>
      <point x="436.21379310344827" y="199.44827586206898" type="curve" smooth="yes"/>
      <point x="436.21379310344827" y="324.99655172413793"/>
      <point x="352.4758620689655" y="368.58965517241376"/>
      <point x="282.6586206896552" y="379.0931034482758" type="curve"/>
      <point x="358.3103448275862" y="401.8827586206897"/>
      <point x="414.71379310344827" y="470.4413793103448"/>
      <point x="414.71379310344827" y="560.4413793103448" type="curve" smooth="yes"/>
      <point x="414.71379310344827" y="665.0241379310345"/>
      <point x="341.2068965517241" y="724.0"/>
      <point x="231.09310344827588" y="724.0" type="curve" smooth="yes"/>
      <point x="112.94827586206897" y="724.0"/>
      <point x="52.655172413793096" y="664.2103448275861"/>
      <point x="52.655172413793096" y="590.8379310344828" type="curve" smooth="yes"/>
      <point x="52.655172413793096" y="542.1172413793104"/>
      <point x="89.19655172413793" y="525.9827586206897"/>
      <point x="135.7137931034483" y="525.9827586206897" type="curve"/>
      <point x="135.7137931034483" y="604.9827586206897"/>
      <point x="156.68620689655174" y="672.4655172413793"/>
      <point x="225.9448275862069" y="672.4655172413793" type="curve" smooth="yes"/>
      <point x="283.451724137931" y="672.4655172413793"/>
      <point x="310.6896551724138" y="626.7413793103449"/>
      <point x="310.6896551724138" y="549.448275862069" type="curve" smooth="yes"/>
      <point x="310.6896551724138" y="455.0448275862069"/>
      <point x="266.52413793103455" y="396.0206896551724"/>
      <point x="191.20689655172416" y="396.0206896551724" type="curve"/>
      <point x="149.45172413793105" y="396.0206896551724" type="line"/>
      <point x="149.45172413793105" y="345.39310344827584" type="line"/>
      <point x="189.76206896551722" y="345.39310344827584" type="line" smooth="yes"/>
      <point x="283.03103448275857" y="345.39310344827584"/>
      <point x="331.88965517241377" y="289.1862068965517"/>
      <point x="331.88965517241377" y="200.44827586206898" type="curve" smooth="yes"/>
      <point x="331.88965517241377" y="86.29655172413793"/>
      <point x="278.1344827586207" y="45.855172413793106"/>
      <point x="216.3551724137931" y="45.855172413793106" type="curve" smooth="yes"/>
      <point x="147.6206896551724" y="45.855172413793106"/>
      <point x="107.40689655172415" y="98.0448275862069"/>
      <point x="107.40689655172415" y="170.13103448275862" type="curve"/>
      <point x="68.49655172413794" y="170.13103448275862"/>
      <point x="39.18965517241379" y="145.85517241379313"/>
      <point x="39.18965517241379" y="104.23793103448276" type="curve" smooth="yes"/>
      <point x="39.18965517241379" y="42.12758620689655"/>
      <point x="91.11379310344827" y="-10.0"/>
    </contour>
  </outline>
</glyph>
<glyph name="four" format="2">
  <advance width="479.8034482758621"/>
  <unicode hex="0034"/>
  <outline>
    <contour>
      <point x="174.2896551724138" y="0.0" type="line"/>
      <point x="448.3862068965517" y="0.0" type="line"/>
      <point x="448.3862068965517" y="43.53448275862068" type="line"/>
      <point x="437.4862068965517" y="43.53448275862068" type="line" smooth="yes"/>
      <point x="398.0862068965517" y="43.53448275862068"/>
      <point x="366.3" y="52.53448275862068"/>
      <point x="366.3" y="115.5344827586207" type="curve" smooth="yes"/>
      <point x="366.3" y="194.65862068965515" type="line"/>
      <point x="465.4827586206897" y="194.65862068965515" type="line"/>
      <point x="465.4827586206897" y="252.0" type="line"/>
      <point x="366.3" y="252.0" type="line"/>
      <point x="366.3" y="714.0" type="line"/>
      <point x="268.49655172413793" y="714.0" type="line"/>
      <point x="13.648275862068964" y="238.34137931034485" type="line"/>
      <point x="13.648275862068964" y="194.65862068965515" type="line"/>
      <point x="268.5758620689655" y="194.65862068965515" type="line"/>
      <point x="268.5758620689655" y="115.5344827586207" type="line" smooth="yes"/>
      <point x="268.5758620689655" y="52.53448275862068"/>
      <point x="237.68275862068964" y="43.53448275862068"/>
      <point x="197.58275862068965" y="43.53448275862068" type="curve" smooth="yes"/>
      <point x="174.2896551724138" y="43.53448275862068" type="line"/>
    </contour>
    <contour>
      <point x="76.92413793103448" y="252.0" type="line"/>
      <point x="199.0103448275862" y="482.4" type="line" smooth="yes"/>
      <point x="220.19655172413792" y="523.3827586206896"/>
      <point x="261.4896551724138" y="606.7344827586206"/>
      <point x="274.36896551724135" y="639.4137931034483" type="curve"/>
      <point x="269.8758620689655" y="577.4137931034483"/>
      <point x="268.5758620689655" y="496.72413793103453"/>
      <point x="268.5758620689655" y="438.72413793103453" type="curve" smooth="yes"/>
      <point x="268.5758620689655" y="252.0" type="line"/>
    </contour>
  </outline>
</glyph>
<glyph name="five" format="2">
  <advance width="479.8034482758621"/>
  <unicode hex="0035"/>
  <outline>
    <contour>
      <point x="209.73448275862071" y="-10.0" type="curve" smooth="yes"/>
      <point x="330.19310344827585" y="-10.0"/>
      <point x="423.60689655172416" y="77.03793103448275"/>
      <point x="423.60689655172416" y="218.27586206896552" type="curve" smooth="yes"/>
      <point x="423.60689655172416" y="359.0448275862069"/>
      <point x="338.17586206896556" y="430.0206896551724"/>
      <point x="216.67241379310346" y="430.0206896551724" type="curve" smooth="yes"/>
      <point x="177.4344827586207" y="430.0206896551724"/>
      <point x="139.68620689655174" y="421.29655172413794"/>
      <point x="119.79655172413793" y="412.8137931034483" type="curve"/>
      <point x="137.1206896551724" y="630.251724137931" type="line"/>
      <point x="306.4862068965517" y="630.251724137931" type="line" smooth="yes"/>
      <point x="339.8310344827586" y="630.251724137931"/>
      <point x="342.8103448275862" y="617.6758620689654"/>
      <point x="350.20000000000005" y="584.1931034482758" type="curve" smooth="yes"/>
      <point x="355.64482758620693" y="558.9758620689655" type="line"/>
      <point x="398.22068965517246" y="558.9758620689655" type="line"/>
      <point x="394.4275862068966" y="714.0" type="line"/>
      <point x="95.77241379310344" y="714.0" type="line"/>
      <point x="66.88620689655173" y="361.9724137931034" type="line"/>
      <point x="90.50344827586207" y="351.0241379310345" type="line"/>
      <point x="113.91724137931037" y="362.2551724137931"/>
      <point x="145.5344827586207" y="375.39310344827584"/>
      <point x="195.2793103448276" y="375.39310344827584" type="curve" smooth="yes"/>
      <point x="270.73793103448276" y="375.39310344827584"/>
      <point x="318.7758620689655" y="322.44827586206895"/>
      <point x="318.7758620689655" y="218.27586206896552" type="curve" smooth="yes"/>
      <point x="318.7758620689655" y="88.4"/>
      <point x="268.01724137931035" y="46.213793103448275"/>
      <point x="201.99310344827586" y="46.213793103448275" type="curve" smooth="yes"/>
      <point x="132.42413793103447" y="46.213793103448275"/>
      <point x="101.54827586206898" y="99.86206896551725"/>
      <point x="101.54827586206898" y="158.76896551724136" type="curve"/>
      <point x="64.64827586206897" y="158.76896551724136"/>
      <point x="42.01724137931034" y="134.86206896551724"/>
      <point x="42.01724137931034" y="96.79655172413793" type="curve" smooth="yes"/>
      <point x="42.01724137931034" y="49.665517241379305"/>
      <point x="81.60344827586206" y="-10.0"/>
    </contour>
  </outline>
</glyph>
<glyph name="six" format="2">
  <advance width="479.8034482758621"/>
  <unicode hex="0036"/>
  <outline>
    <contour>
      <point x="251.65172413793104" y="-10.0" type="curve" smooth="yes"/>
      <point x="373.28620689655173" y="-10.0"/>
      <point x="441.27931034482754" y="88.0"/>
      <point x="441.27931034482754" y="229.27586206896552" type="curve" smooth="yes"/>
      <point x="441.27931034482754" y="357.0448275862069"/>
      <point x="373.28620689655173" y="434.0448275862069"/>
      <point x="270.7034482758621" y="434.0448275862069" type="curve" smooth="yes"/>
      <point x="212.15172413793104" y="434.0448275862069"/>
      <point x="174.49999999999997" y="408.4344827586207"/>
      <point x="148.51724137931035" y="383.7068965517241" type="curve"/>
      <point x="153.29655172413794" y="573.7862068965518"/>
      <point x="193.76206896551724" y="674.4655172413793"/>
      <point x="271.4689655172414" y="674.4655172413793" type="curve" smooth="yes"/>
      <point x="324.8344827586207" y="674.4655172413793"/>
      <point x="346.74482758620684" y="624.2931034482758"/>
      <point x="346.74482758620684" y="556.3551724137931" type="curve"/>
      <point x="398.3" y="556.3551724137931"/>
      <point x="423.32758620689657" y="578.848275862069"/>
      <point x="423.32758620689657" y="617.9793103448276" type="curve" smooth="yes"/>
      <point x="423.32758620689657" y="672.7241379310345"/>
      <point x="375.1758620689655" y="724.0"/>
      <point x="274.2586206896552" y="724.0" type="curve" smooth="yes"/>
      <point x="119.19310344827586" y="724.0"/>
      <point x="47.12413793103448" y="572.5931034482759"/>
      <point x="47.12413793103448" y="343.6275862068966" type="curve" smooth="yes"/>
      <point x="47.12413793103448" y="97.0"/>
      <point x="132.7034482758621" y="-10.0"/>
    </contour>
    <contour>
      <point x="253.5655172413793" y="43.92758620689655" type="curve" smooth="yes"/>
      <point x="188.74137931034485" y="43.92758620689655"/>
      <point x="149.7103448275862" y="133.1103448275862"/>
      <point x="147.7103448275862" y="328.1103448275862" type="curve"/>
      <point x="168.11724137931034" y="352.4103448275862"/>
      <point x="202.24137931034483" y="382.6068965517241"/>
      <point x="248.7655172413793" y="382.6068965517241" type="curve" smooth="yes"/>
      <point x="308.26206896551724" y="382.6068965517241"/>
      <point x="340.951724137931" y="332.9551724137931"/>
      <point x="340.951724137931" y="219.27586206896552" type="curve" smooth="yes"/>
      <point x="340.951724137931" y="97.85862068965518"/>
      <point x="309.5482758620689" y="43.92758620689655"/>
    </contour>
  </outline>
</glyph>
<glyph name="seven" format="2">
  <advance width="479.8034482758621"/>
  <unicode hex="0037"/>
  <outline>
    <contour>
      <point x="148.41034482758621" y="0.0" type="line"/>
      <point x="218.20000000000002" y="0.0" type="line"/>
      <point x="439.81379310344823" y="682.3172413793104" type="line"/>
      <point x="439.81379310344823" y="714.0" type="line"/>
      <point x="49.88275862068965" y="714.0" type="line"/>
      <point x="44.88275862068965" y="529.251724137931" type="line"/>
      <point x="89.91724137931035" y="529.251724137931" type="line"/>
      <point x="94.38620689655173" y="577.3448275862069" type="line" smooth="yes"/>
      <point x="97.38620689655173" y="613.4586206896552"/>
      <point x="111.67931034482758" y="630.251724137931"/>
      <point x="142.97241379310344" y="630.251724137931" type="curve" smooth="yes"/>
      <point x="367.0137931034483" y="630.251724137931" type="line"/>
    </contour>
  </outline>
</glyph>
<glyph name="eight" format="2">
  <advance width="479.8034482758621"/>
  <unicode hex="0038"/>
  <outline>
    <contour>
      <point x="235.65862068965518" y="-10.0" type="curve" smooth="yes"/>
      <point x="365.50689655172414" y="-10.0"/>
      <point x="445.57931034482755" y="62.08275862068966"/>
      <point x="445.57931034482755" y="182.58965517241379" type="curve" smooth="yes"/>
      <point x="445.57931034482755" y="281.2793103448276"/>
      <point x="392.7034482758621" y="334.9689655172414"/>
      <point x="305.9862068965517" y="381.5241379310345" type="curve"/>
      <point x="375.748275862069" y="418.88965517241377"/>
      <point x="420.5655172413793" y="466.22758620689655"/>
      <point x="420.5655172413793" y="556.2275862068966" type="curve" smooth="yes"/>
      <point x="420.5655172413793" y="653.6310344827587"/>
      <point x="357.78620689655173" y="724.0"/>
      <point x="244.03793103448277" y="724.0" type="curve" smooth="yes"/>
      <point x="110.93448275862069" y="724.0"/>
      <point x="54.42413793103449" y="642.8310344827586"/>
      <point x="54.42413793103449" y="546.3551724137931" type="curve" smooth="yes"/>
      <point x="54.42413793103449" y="458.9931034482759"/>
      <point x="99.81724137931035" y="406.6034482758621"/>
      <point x="165.36206896551724" y="364.8379310344828" type="curve"/>
      <point x="92.4" y="327.3413793103448"/>
      <point x="35.23793103448276" y="275.05517241379306"/>
      <point x="35.23793103448276" y="175.1586206896552" type="curve" smooth="yes"/>
      <point x="35.23793103448276" y="71.86206896551725"/>
      <point x="100.64137931034483" y="-10.0"/>
    </contour>
    <contour>
      <point x="238.75172413793103" y="40.14137931034483" type="curve" smooth="yes"/>
      <point x="169.35517241379313" y="40.14137931034483"/>
      <point x="129.73793103448276" y="90.89310344827587"/>
      <point x="129.73793103448276" y="176.63793103448276" type="curve" smooth="yes"/>
      <point x="129.73793103448276" y="250.23103448275862"/>
      <point x="159.14827586206894" y="303.97586206896557"/>
      <point x="208.50344827586204" y="338.04137931034484" type="curve"/>
      <point x="308.4793103448276" y="283.10689655172416"/>
      <point x="349.1241379310345" y="236.42068965517242"/>
      <point x="349.1241379310345" y="167.57241379310346" type="curve" smooth="yes"/>
      <point x="349.1241379310345" y="88.39655172413792"/>
      <point x="304.8310344827586" y="40.14137931034483"/>
    </contour>
    <contour>
      <point x="260.7034482758621" y="405.7551724137931" type="curve"/>
      <point x="190.33103448275864" y="444.9068965517242"/>
      <point x="150.6103448275862" y="483.35862068965514"/>
      <point x="150.6103448275862" y="559.1275862068966" type="curve" smooth="yes"/>
      <point x="150.6103448275862" y="627.1068965517242"/>
      <point x="182.25517241379313" y="673.5586206896552"/>
      <point x="240.6448275862069" y="673.5586206896552" type="curve" smooth="yes"/>
      <point x="304.95862068965516" y="673.5586206896552"/>
      <point x="331.85517241379307" y="616.5758620689655"/>
      <point x="331.85517241379307" y="555.2344827586206" type="curve" smooth="yes"/>
      <point x="331.85517241379307" y="484.9758620689655"/>
      <point x="313.17241379310343" y="440.71379310344827"/>
    </contour>
  </outline>
</glyph>
<glyph name="nine" format="2">
  <advance width="479.8034482758621"/>
  <unicode hex="0039"/>
  <outline>
    <contour>
      <point x="195.0655172413793" y="-10.724137931034482" type="curve"/>
      <point x="364.9655172413793" y="-10.724137931034482"/>
      <point x="433.37931034482756" y="160.58275862068965"/>
      <point x="433.37931034482756" y="388.0" type="curve" smooth="yes"/>
      <point x="433.37931034482756" y="625.8724137931034"/>
      <point x="344.38965517241377" y="724.0"/>
      <point x="225.6689655172414" y="724.0" type="curve" smooth="yes"/>
      <point x="107.01724137931035" y="724.0"/>
      <point x="38.52413793103448" y="623.951724137931"/>
      <point x="38.52413793103448" y="482.5586206896552" type="curve" smooth="yes"/>
      <point x="38.52413793103448" y="349.27241379310345"/>
      <point x="108.51724137931035" y="278.8137931034483"/>
      <point x="207.3206896551724" y="278.8137931034483" type="curve" smooth="yes"/>
      <point x="266.84827586206893" y="278.8137931034483"/>
      <point x="309.7206896551724" y="312.20344827586206"/>
      <point x="332.49310344827586" y="344.44827586206895" type="curve"/>
      <point x="326.89310344827584" y="143.06551724137933"/>
      <point x="286.8448275862069" y="45.25862068965517"/>
      <point x="200.43103448275863" y="45.25862068965517" type="curve" smooth="yes"/>
      <point x="141.27241379310345" y="45.25862068965517"/>
      <point x="113.93448275862069" y="84.49310344827586"/>
      <point x="98.26551724137931" y="129.3241379310345" type="curve"/>
      <point x="76.15172413793103" y="122.84137931034483"/>
      <point x="64.07241379310344" y="102.51379310344828"/>
      <point x="64.07241379310344" y="76.68620689655172" type="curve" smooth="yes"/>
      <point x="64.07241379310344" y="33.106896551724134"/>
      <point x="97.72758620689655" y="-10.724137931034482"/>
    </contour>
    <contour>
      <point x="233.01724137931035" y="334.17931034482757" type="curve" smooth="yes"/>
      <point x="169.77241379310345" y="335.89310344827584"/>
      <point x="139.57586206896553" y="385.151724137931"/>
      <point x="139.57586206896553" y="488.0" type="curve" smooth="yes"/>
      <point x="139.57586206896553" y="605.1862068965518"/>
      <point x="170.98965517241382" y="669.796551724138"/>
      <point x="229.3793103448276" y="669.796551724138" type="curve" smooth="yes"/>
      <point x="292.81724137931036" y="669.796551724138"/>
      <point x="331.19310344827585" y="592.2"/>
      <point x="333.99999999999994" y="403.9103448275862" type="curve"/>
      <point x="316.9310344827586" y="371.6965517241379"/>
      <point x="286.31724137931036" y="335.89310344827584"/>
    </contour>
  </outline>
</glyph>
<glyph name="colon" format="2">
  <advance width="243.9689655172414"/>
  <unicode hex="003A"/>
  <outline>
    <contour>
      <point x="130.44137931034481" y="404.2586206896551" type="curve" smooth="yes"/>
      <point x="161.2586206896552" y="404.2586206896551"/>
      <point x="188.2" y="419.79655172413794"/>
      <point x="188.2" y="469.5206896551724" type="curve" smooth="yes"/>
      <point x="188.2" y="519.7379310344827"/>
      <point x="161.2586206896552" y="534.9758620689655"/>
      <point x="130.44137931034481" y="534.9758620689655" type="curve" smooth="yes"/>
      <point x="97.84137931034483" y="534.9758620689655"/>
      <point x="72.38275862068966" y="519.7379310344827"/>
      <point x="72.38275862068966" y="469.5206896551724" type="curve" smooth="yes"/>
      <point x="72.38275862068966" y="419.79655172413794"/>
      <point x="97.84137931034483" y="404.2586206896551"/>
    </contour>
    <contour>
      <point x="130.44137931034481" y="-7.275862068965517" type="curve" smooth="yes"/>
      <point x="161.2586206896552" y="-7.275862068965517"/>
      <point x="188.2" y="8.851724137931035"/>
      <point x="188.2" y="58.98620689655172" type="curve" smooth="yes"/>
      <point x="188.2" y="108.90344827586208"/>
      <point x="161.2586206896552" y="124.94827586206894"/>
      <point x="130.44137931034481" y="124.94827586206894" type="curve" smooth="yes"/>
      <point x="97.84137931034483" y="124.94827586206894"/>
      <point x="72.38275862068966" y="108.90344827586208"/>
      <point x="72.38275862068966" y="58.98620689655172" type="curve" smooth="yes"/>
      <point x="72.38275862068966" y="8.851724137931035"/>
      <point x="97.84137931034483" y="-7.275862068965517"/>
    </contour>
  </outline>
</glyph>
<glyph name="semicolon" format="2">
  <advance width="254.2655172413793"/>
  <unicode hex="003B"/>
  <outline>
    <contour>
      <point x="51.448275862068975" y="-154.0" type="line"/>
      <point x="153.09655172413792" y="-121.12413793103448"/>
      <point x="191.3103448275862" y="-49.0448275862069"/>
      <point x="191.3103448275862" y="31.117241379310343" type="curve" smooth="yes"/>
      <point x="191.3103448275862" y="90.72413793103449"/>
      <point x="164.09310344827588" y="124.94827586206894"/>
      <point x="123.3241379310345" y="124.94827586206894" type="curve" smooth="yes"/>
      <point x="93.02413793103449" y="124.94827586206894"/>
      <point x="68.86896551724138" y="103.90344827586208"/>
      <point x="68.86896551724138" y="68.15517241379311" type="curve" smooth="yes"/>
      <point x="68.86896551724138" y="8.703448275862069"/>
      <point x="127.7" y="12.63448275862069"/>
      <point x="127.7" y="-24.989655172413794" type="curve"/>
      <point x="127.7" y="-61.97586206896552"/>
      <point x="103.10689655172413" y="-93.28965517241379"/>
      <point x="51.448275862068975" y="-113.08275862068966" type="curve"/>
    </contour>
    <contour>
      <point x="130.73103448275862" y="404.2586206896551" type="curve" smooth="yes"/>
      <point x="162.16551724137932" y="404.2586206896551"/>
      <point x="188.78965517241377" y="419.79655172413794"/>
      <point x="188.78965517241377" y="469.5206896551724" type="curve" smooth="yes"/>
      <point x="188.78965517241377" y="519.7379310344827"/>
      <point x="162.16551724137932" y="534.9758620689655"/>
      <point x="130.73103448275862" y="534.9758620689655" type="curve" smooth="yes"/>
      <point x="98.04827586206898" y="534.9758620689655"/>
      <point x="72.8896551724138" y="519.7379310344827"/>
      <point x="72.8896551724138" y="469.5206896551724" type="curve" smooth="yes"/>
      <point x="72.8896551724138" y="419.79655172413794"/>
      <point x="98.04827586206898" y="404.2586206896551"/>
    </contour>
  </outline>
</glyph>
<glyph name="equal" format="2">
  <advance width="465.2"/>
  <unicode hex="003D"/>
  <outline>
    <contour>
      <point x="48.165517241379305" y="422.348275862069" type="line"/>
      <point x="417.11724137931037" y="422.348275862069" type="line"/>
      <point x="417.11724137931037" y="482.14827586206894" type="line"/>
      <point x="48.165517241379305" y="482.14827586206894" type="line"/>
    </contour>
    <contour>
      <point x="48.165517241379305" y="231.6344827586207" type="line"/>
      <point x="417.11724137931037" y="231.6344827586207" type="line"/>
      <point x="417.11724137931037" y="291.651724137931" type="line"/>
      <point x="48.165517241379305" y="291.651724137931" type="line"/>
    </contour>
  </outline>
</glyph>
<glyph name="greater" format="2">
  <advance width="465.2"/>
  <unicode hex="003E"/>
  <outline>
    <contour>
      <point x="48.63448275862069" y="109.70344827586207" type="line"/>
      <point x="416.5655172413793" y="339.44827586206895" type="line"/>
      <point x="416.5655172413793" y="375.55172413793105" type="line"/>
      <point x="48.63448275862069" y="606.296551724138" type="line"/>
      <point x="48.63448275862069" y="539.0275862068966" type="line"/>
      <point x="333.2551724137931" y="357.0" type="line"/>
      <point x="48.63448275862069" y="177.47931034482758" type="line"/>
    </contour>
  </outline>
</glyph>
<glyph name="question" format="2">
  <advance width="442.8379310344827"/>
  <unicode hex="003F"/>
  <outline>
    <contour>
      <point x="174.0" y="210.84827586206896" type="line"/>
      <point x="225.87586206896552" y="210.84827586206896" type="line"/>
      <point x="235.30344827586205" y="320.71379310344827" type="line"/>
      <point x="345.17931034482757" y="371.9241379310345"/>
      <point x="399.8620689655172" y="434.9068965517242"/>
      <point x="399.8620689655172" y="544.7793103448275" type="curve" smooth="yes"/>
      <point x="399.8620689655172" y="658.6310344827587"/>
      <point x="322.60689655172416" y="724.0"/>
      <point x="205.6689655172414" y="724.0" type="curve" smooth="yes"/>
      <point x="90.41034482758621" y="724.0"/>
      <point x="32.95517241379311" y="672.5310344827586"/>
      <point x="32.95517241379311" y="609.9586206896552" type="curve" smooth="yes"/>
      <point x="32.95517241379311" y="563.951724137931"/>
      <point x="67.65517241379311" y="546.1241379310345"/>
      <point x="121.3896551724138" y="546.1241379310345" type="curve"/>
      <point x="121.3896551724138" y="621.796551724138"/>
      <point x="144.34827586206896" y="673.051724137931"/>
      <point x="207.23103448275862" y="673.051724137931" type="curve" smooth="yes"/>
      <point x="265.0068965517241" y="673.051724137931"/>
      <point x="292.91034482758624" y="621.6241379310345"/>
      <point x="292.91034482758624" y="551.6551724137931" type="curve" smooth="yes"/>
      <point x="292.91034482758624" y="467.2793103448276"/>
      <point x="263.71724137931034" y="396.1586206896552"/>
      <point x="165.0793103448276" y="348.32068965517243" type="curve"/>
    </contour>
    <contour>
      <point x="198.86206896551724" y="-7.275862068965517" type="curve" smooth="yes"/>
      <point x="231.73448275862066" y="-7.275862068965517"/>
      <point x="259.4413793103448" y="9.151724137931033"/>
      <point x="259.4413793103448" y="60.0" type="curve" smooth="yes"/>
      <point x="259.4413793103448" y="111.06551724137931"/>
      <point x="231.73448275862066" y="127.2758620689655"/>
      <point x="198.86206896551724" y="127.2758620689655" type="curve" smooth="yes"/>
      <point x="166.08620689655174" y="127.2758620689655"/>
      <point x="140.27241379310345" y="111.06551724137931"/>
      <point x="140.27241379310345" y="60.0" type="curve" smooth="yes"/>
      <point x="140.27241379310345" y="9.151724137931033"/>
      <point x="166.08620689655174" y="-7.275862068965517"/>
    </contour>
  </outline>
</glyph>
<glyph name="bracketleft" format="2">
  <advance width="327.3448275862069"/>
  <unicode hex="005B"/>
  <outline>
    <contour>
      <point x="75.08275862068966" y="-128.0" type="line"/>
      <point x="283.451724137931" y="-128.0" type="line"/>
      <point x="283.451724137931" y="-84.89999999999999" type="line"/>
      <point x="245.60689655172413" y="-84.89999999999999" type="line" smooth="yes"/>
      <point x="207.41379310344828" y="-84.89999999999999"/>
      <point x="176.07241379310344" y="-75.89999999999999"/>
      <point x="176.07241379310344" y="-12.682758620689654" type="curve" smooth="yes"/>
      <point x="176.07241379310344" y="644.4655172413793" type="line" smooth="yes"/>
      <point x="176.07241379310344" y="707.8999999999999"/>
      <point x="207.41379310344828" y="716.8999999999999"/>
      <point x="245.60689655172413" y="716.8999999999999" type="curve" smooth="yes"/>
      <point x="283.451724137931" y="716.8999999999999" type="line"/>
      <point x="283.451724137931" y="760.0" type="line"/>
      <point x="75.08275862068966" y="760.0" type="line"/>
    </contour>
  </outline>
</glyph>
<glyph name="bracketright" format="2">
  <advance width="338.2068965517242"/>
  <unicode hex="005D"/>
  <outline>
    <contour>
      <point x="55.53793103448275" y="-128.0" type="line"/>
      <point x="262.9068965517241" y="-128.0" type="line"/>
      <point x="262.9068965517241" y="760.0" type="line"/>
      <point x="55.53793103448275" y="760.0" type="line"/>
      <point x="55.53793103448275" y="716.8999999999999" type="line"/>
      <point x="92.46551724137932" y="716.8999999999999" type="line" smooth="yes"/>
      <point x="131.57586206896553" y="716.8999999999999"/>
      <point x="162.21724137931034" y="707.8999999999999"/>
      <point x="162.21724137931034" y="644.4655172413793" type="curve" smooth="yes"/>
      <point x="162.21724137931034" y="-12.682758620689654" type="line" smooth="yes"/>
      <point x="162.21724137931034" y="-75.89999999999999"/>
      <point x="131.57586206896553" y="-84.89999999999999"/>
      <point x="92.46551724137932" y="-84.89999999999999" type="curve" smooth="yes"/>
      <point x="55.53793103448275" y="-84.89999999999999" type="line"/>
    </contour>
  </outline>
</glyph>
<glyph name="asciicircum" format="2">
  <advance width="464.5"/>
  <unicode hex="005E"/>
  <outline>
    <contour>
      <point x="34.31379310344827" y="266.17241379310343" type="line"/>
      <point x="94.60689655172413" y="266.17241379310343" type="line"/>
      <point x="231.1" y="621.3379310344828" type="line"/>
      <point x="368.8931034482759" y="266.17241379310343" type="line"/>
      <point x="429.58620689655174" y="266.17241379310343" type="line"/>
      <point x="247.52758620689656" y="714.0" type="line"/>
      <point x="215.67241379310343" y="714.0" type="line"/>
    </contour>
  </outline>
</glyph>
<glyph name="underscore" format="2">
  <advance width="393.4172413793104"/>
  <unicode hex="005F"/>
  <outline>
    <contour>
      <point x="-4.493103448275862" y="-141.2655172413793" type="line"/>
      <point x="397.71724137931034" y="-141.2655172413793" type="line"/>
      <point x="397.71724137931034" y="-83.0" type="line"/>
      <point x="-4.493103448275862" y="-83.0" type="line"/>
    </contour>
  </outline>
</glyph>
<glyph name="braceleft" format="2">
  <advance width="372.97931034482764"/>
  <unicode hex="007B"/>
  <outline>
    <contour>
      <point x="261.49310344827586" y="-127.44827586206897" type="curve" smooth="yes"/>
      <point x="326.78965517241375" y="-127.44827586206897" type="line"/>
      <point x="326.78965517241375" y="-83.62413793103448" type="line"/>
      <point x="298.24827586206897" y="-83.62413793103448" type="line" smooth="yes"/>
      <point x="248.51379310344828" y="-83.62413793103448"/>
      <point x="231.28620689655176" y="-46.9"/>
      <point x="231.28620689655176" y="20.29655172413793" type="curve" smooth="yes"/>
      <point x="231.28620689655176" y="192.82758620689654" type="line" smooth="yes"/>
      <point x="231.28620689655176" y="258.7241379310345"/>
      <point x="201.26896551724136" y="303.4275862068966"/>
      <point x="137.3" y="316.7241379310345" type="curve"/>
      <point x="137.3" y="319.0206896551724" type="line"/>
      <point x="201.2206896551724" y="331.5344827586207"/>
      <point x="231.28620689655176" y="375.82758620689657"/>
      <point x="231.28620689655176" y="440.7241379310345" type="curve" smooth="yes"/>
      <point x="231.28620689655176" y="611.9413793103448" type="line" smooth="yes"/>
      <point x="231.28620689655176" y="680.6448275862068"/>
      <point x="248.51379310344828" y="716.1758620689654"/>
      <point x="298.548275862069" y="716.1758620689654" type="curve" smooth="yes"/>
      <point x="326.78965517241375" y="716.1758620689654" type="line"/>
      <point x="326.78965517241375" y="760.0" type="line"/>
      <point x="261.49310344827586" y="760.0" type="line" smooth="yes"/>
      <point x="175.2103448275862" y="760.0"/>
      <point x="129.26206896551724" y="707.7241379310345"/>
      <point x="129.26206896551724" y="616.7482758620689" type="curve" smooth="yes"/>
      <point x="129.26206896551724" y="442.7241379310345" type="line" smooth="yes"/>
      <point x="129.26206896551724" y="362.7206896551724"/>
      <point x="85.55172413793105" y="341.09999999999997"/>
      <point x="28.65172413793104" y="339.09999999999997" type="curve"/>
      <point x="28.65172413793104" y="295.4275862068966" type="line"/>
      <point x="85.55172413793105" y="292.4275862068966"/>
      <point x="129.26206896551724" y="271.7241379310345"/>
      <point x="129.26206896551724" y="189.82758620689654" type="curve" smooth="yes"/>
      <point x="129.26206896551724" y="17.079310344827586" type="line" smooth="yes"/>
      <point x="129.26206896551724" y="-71.95517241379311"/>
      <point x="175.2103448275862" y="-127.44827586206897"/>
    </contour>
  </outline>
</glyph>
<glyph name="braceright" format="2">
  <advance width="382.9310344827586"/>
  <unicode hex="007D"/>
  <outline>
    <contour>
      <point x="56.33448275862069" y="-127.44827586206897" type="line"/>
      <point x="122.35517241379311" y="-127.44827586206897" type="line" smooth="yes"/>
      <point x="208.63793103448276" y="-127.44827586206897"/>
      <point x="253.58620689655174" y="-71.95517241379311"/>
      <point x="253.58620689655174" y="17.079310344827586" type="curve" smooth="yes"/>
      <point x="253.58620689655174" y="189.82758620689654" type="line" smooth="yes"/>
      <point x="253.58620689655174" y="271.7241379310345"/>
      <point x="298.88620689655176" y="292.4275862068966"/>
      <point x="354.6896551724137" y="295.4275862068966" type="curve"/>
      <point x="354.6896551724137" y="339.09999999999997" type="line"/>
      <point x="298.88620689655176" y="341.09999999999997"/>
      <point x="253.58620689655174" y="362.7206896551724"/>
      <point x="253.58620689655174" y="442.7241379310345" type="curve" smooth="yes"/>
      <point x="253.58620689655174" y="616.7482758620689" type="line" smooth="yes"/>
      <point x="253.58620689655174" y="707.7241379310345"/>
      <point x="208.63793103448276" y="760.0"/>
      <point x="122.35517241379311" y="760.0" type="curve" smooth="yes"/>
      <point x="56.33448275862069" y="760.0" type="line"/>
      <point x="56.33448275862069" y="716.1758620689654" type="line"/>
      <point x="85.38275862068967" y="716.1758620689654" type="line" smooth="yes"/>
      <point x="135.9241379310345" y="716.1758620689654"/>
      <point x="151.86206896551724" y="680.6448275862068"/>
      <point x="151.86206896551724" y="611.9413793103448" type="curve" smooth="yes"/>
      <point x="151.86206896551724" y="440.7241379310345" type="line" smooth="yes"/>
      <point x="151.86206896551724" y="375.82758620689657"/>
      <point x="182.71034482758617" y="331.5344827586207"/>
      <point x="247.33103448275864" y="319.0206896551724" type="curve"/>
      <point x="247.33103448275864" y="316.7241379310345" type="line"/>
      <point x="180.9620689655172" y="303.4275862068966"/>
      <point x="151.86206896551724" y="258.7241379310345"/>
      <point x="151.86206896551724" y="192.82758620689654" type="curve" smooth="yes"/>
      <point x="151.86206896551724" y="20.29655172413793" type="line" smooth="yes"/>
      <point x="151.86206896551724" y="-46.9"/>
      <point x="135.9241379310345" y="-83.62413793103448"/>
      <point x="85.6" y="-83.62413793103448" type="curve" smooth="yes"/>
      <point x="56.33448275862069" y="-83.62413793103448" type="line"/>
    </contour>
  </outline>
</glyph>
<glyph name="asciitilde" format="2">
  <advance width="465.2"/>
  <unicode hex="007E"/>
  <outline>
    <contour>
      <point x="34.76896551724138" y="268.4275862068966" type="curve"/>
      <point x="91.81379310344828" y="268.4275862068966" type="line"/>
      <point x="98.09310344827587" y="349.46206896551723"/>
      <point x="112.76206896551723" y="386.4413793103448"/>
      <point x="145.80344827586208" y="386.4413793103448" type="curve" smooth="yes"/>
      <point x="169.76896551724138" y="386.4413793103448"/>
      <point x="186.88620689655173" y="366.8551724137931"/>
      <point x="217.50689655172417" y="332.9931034482758" type="curve" smooth="yes"/>
      <point x="262.1965517241379" y="282.2896551724138"/>
      <point x="288.7413793103448" y="268.4275862068966"/>
      <point x="323.9827586206897" y="268.4275862068966" type="curve" smooth="yes"/>
      <point x="404.0379310344827" y="268.4275862068966"/>
      <point x="426.18275862068964" y="362.67241379310343"/>
      <point x="431.84482758620686" y="445.07931034482755" type="curve"/>
      <point x="373.9931034482759" y="445.07931034482755" type="line"/>
      <point x="367.89655172413796" y="365.5689655172414"/>
      <point x="354.82758620689657" y="327.06551724137927"/>
      <point x="322.37586206896555" y="327.06551724137927" type="curve" smooth="yes"/>
      <point x="298.93448275862073" y="327.06551724137927"/>
      <point x="282.1620689655172" y="347.43793103448274"/>
      <point x="252.7206896551724" y="378.8034482758621" type="curve" smooth="yes"/>
      <point x="211.17241379310346" y="421.16896551724136"/>
      <point x="184.29310344827587" y="445.07931034482755"/>
      <point x="143.86896551724138" y="445.07931034482755" type="curve" smooth="yes"/>
      <point x="61.703448275862065" y="445.07931034482755"/>
      <point x="40.45862068965517" y="353.94482758620694"/>
    </contour>
  </outline>
</glyph>
<glyph name="multiply" format="2">
  <advance width="464.9827586206896"/>
  <unicode hex="00D7"/>
  <outline>
    <contour>
      <point x="95.36206896551725" y="152.24827586206897" type="line"/>
      <point x="233.81379310344826" y="313.5448275862069" type="line"/>
      <point x="371.87931034482756" y="152.6344827586207" type="line"/>
      <point x="415.6344827586207" y="190.98275862068968" type="line"/>
      <point x="272.6689655172414" y="358.19310344827585" type="line"/>
      <point x="415.6344827586207" y="524.8137931034482" type="line"/>
      <point x="371.6862068965517" y="563.0517241379309" type="line"/>
      <point x="233.81379310344826" y="403.21379310344827" type="line"/>
      <point x="96.06206896551726" y="563.6448275862068" type="line"/>
      <point x="51.52413793103449" y="525.7068965517242" type="line"/>
      <point x="195.46551724137933" y="358.49310344827586" type="line"/>
      <point x="51.52413793103449" y="190.3896551724138" type="line"/>
    </contour>
  </outline>
</glyph>
<glyph name="divide" format="2">
  <advance width="465.2"/>
  <unicode hex="00F7"/>
  <outline>
    <contour>
      <point x="48.63448275862069" y="327.92068965517245" type="line"/>
      <point x="416.5655172413793" y="327.92068965517245" type="line"/>
      <point x="416.5655172413793" y="387.29655172413794" type="line"/>
      <point x="48.63448275862069" y="387.29655172413794" type="line"/>
    </contour>
    <contour>
      <point x="233.1" y="113.22068965517241" type="curve" smooth="yes"/>
      <point x="258.85172413793106" y="113.22068965517241"/>
      <point x="279.41379310344826" y="127.6896551724138"/>
      <point x="279.41379310344826" y="168.51724137931032" type="curve" smooth="yes"/>
      <point x="279.41379310344826" y="210.3448275862069"/>
      <point x="258.85172413793106" y="223.81379310344826"/>
      <point x="233.1" y="223.81379310344826" type="curve" smooth="yes"/>
      <point x="206.1551724137931" y="223.81379310344826"/>
      <point x="186.08620689655174" y="210.3448275862069"/>
      <point x="186.08620689655174" y="168.51724137931032" type="curve" smooth="yes"/>
      <point x="186.08620689655174" y="127.6896551724138"/>
      <point x="206.1551724137931" y="113.22068965517241"/>
    </contour>
    <contour>
      <point x="233.1" y="491.4862068965517" type="curve" smooth="yes"/>
      <point x="258.85172413793106" y="491.4862068965517"/>
      <point x="279.41379310344826" y="505.6551724137931"/>
      <point x="279.41379310344826" y="546.4827586206895" type="curve" smooth="yes"/>
      <point x="279.41379310344826" y="588.3103448275862"/>
      <point x="258.85172413793106" y="601.7793103448275"/>
      <point x="233.1" y="601.7793103448275" type="curve" smooth="yes"/>
      <point x="206.1551724137931" y="601.7793103448275"/>
      <point x="186.08620689655174" y="588.3103448275862"/>
      <point x="186.08620689655174" y="546.4827586206895" type="curve" smooth="yes"/>
      <point x="186.08620689655174" y="505.6551724137931"/>
      <point x="206.1551724137931" y="491.4862068965517"/>
    </contour>
  </outline>
</glyph>
<glyph name="anudatta-deva" format="2">
  <unicode hex="0952"/>
  <anchor x="-299.0" y="388.86206896551727" name="_vedic"/>
  <outline>
    <contour>
      <point x="-484.61034482758623" y="-146.75862068965517" type="line"/>
      <point x="-112.47241379310346" y="-146.75862068965517" type="line"/>
      <point x="-112.47241379310346" y="-89.24137931034483" type="line"/>
      <point x="-484.61034482758623" y="-89.24137931034483" type="line"/>
    </contour>
  </outline>
</glyph>
<glyph name="danda-deva" format="2">
  <advance width="376.8896551724138"/>
  <unicode hex="0964"/>
  <outline>
    <contour>
      <point x="306.82068965517243" y="-26.310344827586206" type="line"/>
      <point x="311.20000000000005" y="-24.758620689655174" type="line"/>
      <point x="311.20000000000005" y="585.8275862068965" type="line"/>
      <point x="250.26896551724136" y="622.8275862068965" type="line"/>
      <point x="247.26896551724136" y="622.8275862068965" type="line"/>
      <point x="247.26896551724136" y="4.172413793103448" type="line"/>
    </contour>
  </outline>
</glyph>
<glyph name="dbldanda-deva" format="2">
  <advance width="521.9068965517242"/>
  <unicode hex="0965"/>
  <outline>
    <contour>
      <point x="452.11379310344824" y="-26.310344827586206" type="line"/>
      <point x="456.21724137931034" y="-24.758620689655174" type="line"/>
      <point x="456.21724137931034" y="585.8275862068965" type="line"/>
      <point x="395.56206896551726" y="622.8275862068965" type="line"/>
      <point x="392.56206896551726" y="622.8275862068965" type="line"/>
      <point x="392.56206896551726" y="4.172413793103448" type="line"/>
    </contour>
    <contour>
      <point x="306.82068965517243" y="-26.310344827586206" type="line"/>
      <point x="311.20000000000005" y="-24.758620689655174" type="line"/>
      <point x="311.20000000000005" y="585.8275862068965" type="line"/>
      <point x="250.26896551724136" y="622.8275862068965" type="line"/>
      <point x="247.26896551724136" y="622.8275862068965" type="line"/>
      <point x="247.26896551724136" y="4.172413793103448" type="line"/>
    </contour>
  </outline>
</glyph>
<glyph name="anji-beng" format="2">
  <advance width="466.7103448275862"/>
  <unicode hex="0980"/>
  <anchor x="251.30689655172415" y="573.5862068965517" name="top"/>
  <outline>
    <contour>
      <point x="384.8586206896552" y="-9.26896551724138" type="curve" smooth="yes"/>
      <point x="426.75172413793103" y="-9.26896551724138"/>
      <point x="448.6448275862069" y="18.893103448275863"/>
      <point x="448.6448275862069" y="58.20344827586207" type="curve" smooth="yes"/>
      <point x="448.6448275862069" y="97.13793103448275"/>
      <point x="422.8379310344827" y="124.7344827586207"/>
      <point x="388.0551724137932" y="124.7344827586207" type="curve" smooth="yes"/>
      <point x="353.94482758620694" y="124.7344827586207"/>
      <point x="340.81724137931036" y="101.14827586206897"/>
      <point x="338.5758620689655" y="72.7896551724138" type="curve"/>
      <point x="364.91034482758624" y="71.41034482758621" type="line"/>
      <point x="364.91034482758624" y="480.5862068965517" type="line" smooth="yes"/>
      <point x="364.91034482758624" y="559.5758620689655"/>
      <point x="317.848275862069" y="624.4827586206897"/>
      <point x="229.5551724137931" y="624.4827586206897" type="curve" smooth="yes"/>
      <point x="127.21034482758621" y="624.4827586206897"/>
      <point x="46.24137931034483" y="537.6620689655172"/>
      <point x="46.24137931034483" y="420.33103448275864" type="curve" smooth="yes"/>
      <point x="46.24137931034483" y="300.61034482758623"/>
      <point x="118.25517241379309" y="240.58965517241379"/>
      <point x="190.71379310344827" y="240.58965517241379" type="curve" smooth="yes"/>
      <point x="243.4896551724138" y="240.58965517241379"/>
      <point x="273.2689655172413" y="273.3965517241379"/>
      <point x="273.2689655172413" y="322.3310344827586" type="curve" smooth="yes"/>
      <point x="273.2689655172413" y="372.62068965517244"/>
      <point x="244.13448275862066" y="400.07586206896553"/>
      <point x="205.9586206896552" y="400.07586206896553" type="curve" smooth="yes"/>
      <point x="168.65172413793104" y="400.07586206896553"/>
      <point x="142.23103448275862" y="373.148275862069"/>
      <point x="142.23103448275862" y="330.37586206896555" type="curve" smooth="yes"/>
      <point x="142.23103448275862" y="317.52758620689656"/>
      <point x="145.01379310344828" y="301.8931034482759"/>
      <point x="148.58965517241379" y="294.4655172413793" type="curve"/>
      <point x="186.49310344827586" y="314.8931034482759" type="line"/>
      <point x="177.34137931034485" y="311.1689655172414"/>
      <point x="167.91379310344828" y="310.1689655172414"/>
      <point x="158.76206896551724" y="310.1689655172414" type="curve" smooth="yes"/>
      <point x="129.6793103448276" y="310.1689655172414"/>
      <point x="111.48275862068965" y="342.85862068965514"/>
      <point x="111.48275862068965" y="393.2068965517241" type="curve" smooth="yes"/>
      <point x="111.48275862068965" y="479.24482758620695"/>
      <point x="194.7344827586207" y="554.1379310344827"/>
      <point x="252.58620689655174" y="554.1379310344827" type="curve" smooth="yes"/>
      <point x="288.8137931034483" y="554.1379310344827"/>
      <point x="303.27241379310345" y="531.8931034482758"/>
      <point x="303.27241379310345" y="491.66896551724136" type="curve" smooth="yes"/>
      <point x="303.27241379310345" y="96.21034482758621" type="line" smooth="yes"/>
      <point x="303.27241379310345" y="34.724137931034484"/>
      <point x="334.29655172413794" y="-9.26896551724138"/>
    </contour>
  </outline>
</glyph>
<glyph name="anusvara-beng" format="2">
  <advance width="317.1965517241379"/>
  <unicode hex="0982"/>
  <anchor x="-183.37586206896552" y="0.0" name="vedic"/>
  <outline>
    <contour>
      <point x="153.78275862068966" y="356.7241379310345" type="curve" smooth="yes"/>
      <point x="222.24482758620692" y="356.7241379310345"/>
      <point x="271.46206896551723" y="413.07931034482755"/>
      <point x="271.46206896551723" y="492.58620689655174" type="curve" smooth="yes"/>
      <point x="271.46206896551723" y="564.7931034482758"/>
      <point x="230.44827586206898" y="622.7241379310345"/>
      <point x="161.54827586206898" y="622.7241379310345" type="curve" smooth="yes"/>
      <point x="94.4" y="622.7241379310345"/>
      <point x="46.07241379310345" y="565.7931034482758"/>
      <point x="46.07241379310345" y="487.58620689655174" type="curve" smooth="yes"/>
      <point x="46.07241379310345" y="415.7482758620689"/>
      <point x="87.50344827586207" y="356.7241379310345"/>
    </contour>
    <contour>
      <point x="134.81034482758622" y="412.0689655172414" type="curve" smooth="yes"/>
      <point x="117.35517241379311" y="412.0689655172414"/>
      <point x="103.1896551724138" y="426.9655172413793"/>
      <point x="103.1896551724138" y="453.99655172413793" type="curve" smooth="yes"/>
      <point x="103.1896551724138" y="504.50689655172414"/>
      <point x="146.04137931034484" y="563.2068965517242"/>
      <point x="186.7655172413793" y="563.2068965517242" type="curve" smooth="yes"/>
      <point x="205.61379310344827" y="563.2068965517242"/>
      <point x="215.7551724137931" y="545.8862068965517"/>
      <point x="215.7551724137931" y="527.1379310344828" type="curve" smooth="yes"/>
      <point x="215.7551724137931" y="478.49310344827586"/>
      <point x="173.85517241379313" y="412.0689655172414"/>
    </contour>
    <contour>
      <point x="270.18620689655177" y="-46.0" type="curve"/>
      <point x="303.9931034482758" y="-30.17241379310345" type="line"/>
      <point x="254.0551724137931" y="102.05862068965516"/>
      <point x="181.38620689655173" y="236.0793103448276"/>
      <point x="99.5793103448276" y="312.5758620689655" type="curve"/>
      <point x="45.2551724137931" y="218.3793103448276" type="line"/>
      <point x="126.69310344827586" y="158.24137931034483"/>
      <point x="187.82413793103447" y="96.6896551724138"/>
    </contour>
  </outline>
</glyph>
<glyph name="visarga-beng" format="2">
  <advance width="318.6931034482759"/>
  <unicode hex="0983"/>
  <anchor x="-183.37586206896552" y="0.0" name="vedic"/>
  <outline>
    <contour>
      <point x="154.36206896551724" y="356.55862068965513" type="curve" smooth="yes"/>
      <point x="223.23793103448278" y="356.55862068965513"/>
      <point x="272.70344827586206" y="412.99655172413793"/>
      <point x="272.70344827586206" y="492.58620689655174" type="curve" smooth="yes"/>
      <point x="272.70344827586206" y="564.9586206896552"/>
      <point x="231.52413793103446" y="622.8896551724138"/>
      <point x="162.12758620689655" y="622.8896551724138" type="curve" smooth="yes"/>
      <point x="94.64827586206896" y="622.8896551724138"/>
      <point x="46.07241379310345" y="565.9586206896552"/>
      <point x="46.07241379310345" y="487.58620689655174" type="curve" smooth="yes"/>
      <point x="46.07241379310345" y="415.66551724137923"/>
      <point x="87.75172413793105" y="356.55862068965513"/>
    </contour>
    <contour>
      <point x="135.47241379310344" y="411.90344827586205" type="curve" smooth="yes"/>
      <point x="118.01724137931035" y="411.90344827586205"/>
      <point x="103.76896551724138" y="426.79999999999995"/>
      <point x="103.76896551724138" y="453.74827586206897" type="curve" smooth="yes"/>
      <point x="103.76896551724138" y="504.3413793103448"/>
      <point x="146.53793103448277" y="563.3724137931034"/>
      <point x="187.3448275862069" y="563.3724137931034" type="curve" smooth="yes"/>
      <point x="206.27586206896552" y="563.3724137931034"/>
      <point x="216.41724137931033" y="546.051724137931"/>
      <point x="216.41724137931033" y="527.3034482758621" type="curve" smooth="yes"/>
      <point x="216.41724137931033" y="478.6586206896552"/>
      <point x="174.7655172413793" y="411.90344827586205"/>
    </contour>
    <contour>
      <point x="154.4448275862069" y="1.7965517241379287" type="curve" smooth="yes"/>
      <point x="223.15517241379314" y="1.7965517241379287"/>
      <point x="272.4551724137931" y="57.95862068965517"/>
      <point x="272.4551724137931" y="137.44137931034481" type="curve" smooth="yes"/>
      <point x="272.4551724137931" y="209.86551724137934"/>
      <point x="231.3586206896552" y="267.3034482758621"/>
      <point x="162.12758620689655" y="267.3034482758621" type="curve" smooth="yes"/>
      <point x="94.81379310344828" y="267.3034482758621"/>
      <point x="46.23793103448276" y="210.67241379310346"/>
      <point x="46.23793103448276" y="132.24827586206897" type="curve" smooth="yes"/>
      <point x="46.23793103448276" y="60.62758620689655"/>
      <point x="87.83448275862068" y="1.7965517241379287"/>
    </contour>
    <contour>
      <point x="135.5551724137931" y="56.758620689655174" type="curve" smooth="yes"/>
      <point x="118.01724137931035" y="56.758620689655174"/>
      <point x="103.85172413793104" y="71.46206896551725"/>
      <point x="103.85172413793104" y="98.60344827586206" type="curve" smooth="yes"/>
      <point x="103.85172413793104" y="149.41379310344828"/>
      <point x="146.53793103448277" y="208.1448275862069"/>
      <point x="187.3448275862069" y="208.1448275862069" type="curve" smooth="yes"/>
      <point x="206.19310344827585" y="208.1448275862069"/>
      <point x="216.33448275862068" y="190.8241379310345"/>
      <point x="216.33448275862068" y="172.37586206896552" type="curve" smooth="yes"/>
      <point x="216.33448275862068" y="123.73103448275862"/>
      <point x="174.7655172413793" y="56.758620689655174"/>
    </contour>
  </outline>
</glyph>
<glyph name="a-beng" format="2">
  <advance width="650.5137931034483"/>
  <unicode hex="0985"/>
  <anchor x="583.5241379310345" y="0.0" name="bottom"/>
  <anchor x="583.7172413793103" y="74.6896551724138" name="bottom.rakaar"/>
  <anchor x="583.5241379310345" y="11.724137931034482" name="bottom.rvocalic"/>
  <anchor x="567.3379310344828" y="8.206896551724139" name="bottom.virama"/>
  <anchor x="583.5241379310345" y="564.4827586206897" name="top"/>
  <anchor x="583.5241379310345" y="564.4827586206897" name="topright"/>
  <anchor x="324.9068965517242" y="0.0" name="vedic"/>
  <outline>
    <contour>
      <point x="575.596551724138" y="-16.03448275862069" type="line"/>
      <point x="582.1241379310345" y="-14.758620689655173" type="line"/>
      <point x="582.1241379310345" y="564.4827586206897" type="line"/>
      <point x="678.3689655172415" y="564.4827586206897" type="line"/>
      <point x="645.9758620689655" y="622.0" type="line"/>
      <point x="-27.855172413793102" y="622.0" type="line"/>
      <point x="3.731034482758621" y="564.4827586206897" type="line"/>
      <point x="520.5689655172413" y="564.4827586206897" type="line"/>
      <point x="520.5689655172413" y="79.59655172413794" type="line"/>
      <point x="533.3137931034483" y="82.25862068965519" type="line"/>
      <point x="506.4931034482758" y="158.04482758620688"/>
      <point x="464.70344827586206" y="210.8586206896552"/>
      <point x="417.31724137931036" y="247.15517241379308" type="curve"/>
      <point x="390.9241379310345" y="181.36206896551724" type="line"/>
      <point x="448.6758620689655" y="145.34137931034482"/>
      <point x="494.04482758620685" y="92.65172413793104"/>
      <point x="529.4448275862068" y="18.024137931034485" type="curve"/>
    </contour>
    <contour>
      <point x="282.51724137931035" y="83.92068965517241" type="curve" smooth="yes"/>
      <point x="390.83103448275864" y="83.92068965517241"/>
      <point x="451.17241379310343" y="176.3"/>
      <point x="451.17241379310343" y="295.82758620689657" type="curve" smooth="yes"/>
      <point x="451.17241379310343" y="410.1034482758621"/>
      <point x="390.39310344827584" y="507.2413793103448"/>
      <point x="275.6275862068965" y="507.2413793103448" type="curve" smooth="yes"/>
      <point x="209.01034482758624" y="507.2413793103448"/>
      <point x="161.348275862069" y="469.42413793103447"/>
      <point x="161.348275862069" y="399.55172413793105" type="curve" smooth="yes"/>
      <point x="161.348275862069" y="338.17241379310343"/>
      <point x="199.6724137931035" y="300.13793103448273"/>
      <point x="251.82758620689657" y="300.13793103448273" type="curve" smooth="yes"/>
      <point x="306.7689655172414" y="300.13793103448273"/>
      <point x="334.5620689655172" y="344.74827586206897"/>
      <point x="334.5620689655172" y="403.62068965517244" type="curve" smooth="yes"/>
      <point x="334.5620689655172" y="477.11724137931037"/>
      <point x="291.5793103448276" y="540.4137931034483"/>
      <point x="257.41379310344826" y="573.1379310344828" type="curve"/>
      <point x="138.3896551724138" y="571.4137931034483" type="line"/>
      <point x="239.29310344827584" y="540.4137931034483"/>
      <point x="273.5724137931034" y="486.0689655172414"/>
      <point x="282.15862068965515" y="403.6896551724138" type="curve"/>
      <point x="295.75862068965523" y="412.41379310344826"/>
      <point x="308.47241379310344" y="416.7931034482759"/>
      <point x="325.94482758620694" y="416.7931034482759" type="curve" smooth="yes"/>
      <point x="359.0241379310345" y="416.7931034482759"/>
      <point x="396.55172413793105" y="386.6448275862069"/>
      <point x="397.8034482758621" y="309.2068965517241" type="curve" smooth="yes"/>
      <point x="399.05517241379306" y="226.86206896551724"/>
      <point x="351.91034482758624" y="186.34827586206896"/>
      <point x="280.0206896551724" y="186.34827586206896" type="curve" smooth="yes"/>
      <point x="175.64827586206897" y="186.34827586206896"/>
      <point x="100.00689655172414" y="262.3793103448276"/>
      <point x="54.15862068965517" y="493.2413793103448" type="curve"/>
      <point x="10.6" y="482.8862068965517" type="line"/>
      <point x="59.89310344827586" y="193.87931034482756"/>
      <point x="154.59655172413795" y="83.92068965517241"/>
    </contour>
  </outline>
</glyph>
<glyph name="aa-beng" format="2">
  <advance width="835.9137931034484"/>
  <unicode hex="0986"/>
  <anchor x="583.1379310344828" y="0.0" name="bottom"/>
  <anchor x="582.9448275862069" y="74.6896551724138" name="bottom.rakaar"/>
  <anchor x="582.9448275862069" y="11.724137931034482" name="bottom.rvocalic"/>
  <anchor x="566.7586206896552" y="8.206896551724139" name="bottom.virama"/>
  <anchor x="769.5137931034483" y="564.4827586206897" name="top"/>
  <anchor x="769.5137931034483" y="538.9655172413793" name="topright"/>
  <anchor x="417.75172413793103" y="0.0" name="vedic"/>
  <outline>
    <contour>
      <point x="575.596551724138" y="-16.03448275862069" type="line"/>
      <point x="582.1241379310345" y="-14.758620689655173" type="line"/>
      <point x="582.1241379310345" y="564.4827586206897" type="line"/>
      <point x="646.248275862069" y="564.4827586206897" type="line"/>
      <point x="613.744827586207" y="622.0" type="line"/>
      <point x="-27.855172413793102" y="622.0" type="line"/>
      <point x="3.731034482758621" y="564.4827586206897" type="line"/>
      <point x="520.5689655172413" y="564.4827586206897" type="line"/>
      <point x="520.5689655172413" y="79.59655172413794" type="line"/>
      <point x="533.3137931034483" y="82.25862068965519" type="line"/>
      <point x="506.4931034482758" y="158.04482758620688"/>
      <point x="464.70344827586206" y="210.8586206896552"/>
      <point x="417.31724137931036" y="247.15517241379308" type="curve"/>
      <point x="390.9241379310345" y="181.36206896551724" type="line"/>
      <point x="448.6758620689655" y="145.34137931034482"/>
      <point x="494.04482758620685" y="92.65172413793104"/>
      <point x="529.4448275862068" y="18.024137931034485" type="curve"/>
    </contour>
    <contour>
      <point x="282.51724137931035" y="83.92068965517241" type="curve" smooth="yes"/>
      <point x="390.83103448275864" y="83.92068965517241"/>
      <point x="451.17241379310343" y="176.3"/>
      <point x="451.17241379310343" y="295.82758620689657" type="curve" smooth="yes"/>
      <point x="451.17241379310343" y="410.1034482758621"/>
      <point x="390.39310344827584" y="507.2413793103448"/>
      <point x="275.6275862068965" y="507.2413793103448" type="curve" smooth="yes"/>
      <point x="209.01034482758624" y="507.2413793103448"/>
      <point x="161.348275862069" y="469.42413793103447"/>
      <point x="161.348275862069" y="399.55172413793105" type="curve" smooth="yes"/>
      <point x="161.348275862069" y="338.17241379310343"/>
      <point x="199.6724137931035" y="300.13793103448273"/>
      <point x="251.82758620689657" y="300.13793103448273" type="curve" smooth="yes"/>
      <point x="306.7689655172414" y="300.13793103448273"/>
      <point x="334.5620689655172" y="344.74827586206897"/>
      <point x="334.5620689655172" y="403.62068965517244" type="curve" smooth="yes"/>
      <point x="334.5620689655172" y="477.11724137931037"/>
      <point x="291.5793103448276" y="540.4137931034483"/>
      <point x="257.41379310344826" y="573.1379310344828" type="curve"/>
      <point x="138.3896551724138" y="571.4137931034483" type="line"/>
      <point x="239.29310344827584" y="540.4137931034483"/>
      <point x="273.5724137931034" y="486.0689655172414"/>
      <point x="282.15862068965515" y="403.6896551724138" type="curve"/>
      <point x="295.75862068965523" y="412.41379310344826"/>
      <point x="308.47241379310344" y="416.7931034482759"/>
      <point x="325.94482758620694" y="416.7931034482759" type="curve" smooth="yes"/>
      <point x="359.0241379310345" y="416.7931034482759"/>
      <point x="397.8034482758621" y="386.6448275862069"/>
      <point x="397.8034482758621" y="309.2068965517241" type="curve" smooth="yes"/>
      <point x="397.8034482758621" y="226.6448275862069"/>
      <point x="351.6931034482759" y="186.34827586206896"/>
      <point x="280.0206896551724" y="186.34827586206896" type="curve" smooth="yes"/>
      <point x="175.64827586206897" y="186.34827586206896"/>
      <point x="100.00689655172414" y="262.3793103448276"/>
      <point x="54.15862068965517" y="493.2413793103448" type="curve"/>
      <point x="10.6" y="482.8862068965517" type="line"/>
      <point x="59.89310344827586" y="193.87931034482756"/>
      <point x="154.59655172413795" y="83.92068965517241"/>
    </contour>
    <contour>
      <point x="762.5275862068966" y="-27.758620689655174" type="line"/>
      <point x="767.4137931034484" y="-26.482758620689655" type="line"/>
      <point x="767.4137931034484" y="564.4827586206897" type="line"/>
      <point x="863.7689655172414" y="564.4827586206897" type="line"/>
      <point x="830.9655172413792" y="622.0" type="line"/>
      <point x="763.5758620689655" y="622.0" type="line"/>
      <point x="757.9655172413793" y="668.3103448275862" type="line"/>
      <point x="710.9896551724137" y="702.1379310344828" type="line"/>
      <point x="706.3551724137931" y="700.5862068965517" type="line"/>
      <point x="706.3551724137931" y="632.9931034482759" type="line" smooth="yes"/>
      <point x="706.3551724137931" y="609.5172413793103"/>
      <point x="709.5724137931036" y="562.2068965517242"/>
      <point x="714.1620689655172" y="522.351724137931" type="curve"/>
      <point x="719.4793103448276" y="523.951724137931" type="line"/>
      <point x="708.2793103448276" y="593.6586206896552"/>
      <point x="673.2" y="622.0"/>
      <point x="640.3655172413793" y="622.0" type="curve" smooth="yes"/>
      <point x="600.1931034482758" y="622.0" type="line"/>
      <point x="632.5620689655173" y="564.4827586206897" type="line"/>
      <point x="648.2275862068966" y="564.4827586206897" type="line" smooth="yes"/>
      <point x="676.2413793103449" y="564.4827586206897"/>
      <point x="698.7172413793103" y="523.6827586206897"/>
      <point x="705.7758620689655" y="473.4896551724138" type="curve"/>
      <point x="705.7758620689655" y="2.4482758620689653" type="line"/>
    </contour>
  </outline>
</glyph>
<glyph name="i-beng" format="2">
  <advance width="405.148275862069"/>
  <unicode hex="0987"/>
  <anchor x="240.74827586206897" y="79.01034482758621" name="bottom"/>
  <anchor x="343.94827586206895" y="-66.82758620689656" name="bottom.rakaar"/>
  <anchor x="298.1965517241379" y="78.41379310344827" name="bottom.rvocalic"/>
  <anchor x="227.28965517241377" y="80.34482758620689" name="bottom.virama"/>
  <anchor x="256.5758620689655" y="615.0689655172414" name="top"/>
  <anchor x="208.42068965517242" y="619.748275862069" name="topright"/>
  <anchor x="202.2241379310345" y="0.0" name="vedic"/>
  <outline>
    <contour>
      <point x="303.40344827586205" y="608.1379310344828" type="curve"/>
      <point x="348.4137931034483" y="608.1379310344828" type="line"/>
      <point x="344.2931034482759" y="740.148275862069"/>
      <point x="302.66551724137935" y="804.7448275862068"/>
      <point x="220.4931034482759" y="804.7448275862068" type="curve" smooth="yes"/>
      <point x="180.43103448275863" y="804.7448275862068"/>
      <point x="151.5793103448276" y="795.0344827586207"/>
      <point x="107.75862068965517" y="795.0344827586207" type="curve" smooth="yes"/>
      <point x="53.66896551724138" y="795.0344827586207"/>
      <point x="25.43103448275862" y="812.0655172413792"/>
      <point x="25.43103448275862" y="878.4827586206897" type="curve" smooth="yes"/>
      <point x="25.43103448275862" y="891.255172413793"/>
      <point x="26.43103448275862" y="906.0275862068966"/>
      <point x="28.131034482758622" y="916.2448275862068" type="curve"/>
      <point x="-12.537931034482757" y="920.7137931034482" type="line"/>
      <point x="-15.789655172413791" y="900.2103448275861"/>
      <point x="-17.148275862068964" y="877.5655172413792"/>
      <point x="-17.148275862068964" y="859.2103448275861" type="curve" smooth="yes"/>
      <point x="-17.148275862068964" y="761.0206896551724"/>
      <point x="23.575862068965517" y="706.4689655172413"/>
      <point x="109.19310344827586" y="706.4689655172413" type="curve" smooth="yes"/>
      <point x="163.82413793103447" y="706.4689655172413"/>
      <point x="194.35862068965517" y="717.0689655172413"/>
      <point x="231.2655172413793" y="717.0689655172413" type="curve" smooth="yes"/>
      <point x="274.83103448275864" y="717.0689655172413"/>
      <point x="301.3896551724138" y="686.0448275862069"/>
    </contour>
    <component base="ha-beng"/>
  </outline>
</glyph>
<glyph name="ii-beng" format="2">
  <advance width="551.6448275862068"/>
  <unicode hex="0988"/>
  <anchor x="481.41379310344837" y="-14.758620689655173" name="bottom"/>
  <anchor x="482.9655172413794" y="63.6551724137931" name="bottom.rakaar"/>
  <anchor x="467.0758620689656" y="5.137931034482756" name="bottom.rvocalic"/>
  <anchor x="467.5965517241379" y="-10.482758620689657" name="bottom.virama"/>
  <anchor x="333.6862068965517" y="615.0689655172414" name="top"/>
  <anchor x="292.4379310344828" y="619.2413793103449" name="topright"/>
  <anchor x="275.7137931034483" y="0.0" name="vedic"/>
  <outline>
    <contour>
      <point x="446.2655172413793" y="-25.60689655172414" type="curve"/>
      <point x="487.51724137931035" y="-10.289655172413795" type="line"/>
      <point x="468.003448275862" y="52.358620689655176"/>
      <point x="458.8724137931035" y="108.94827586206895"/>
      <point x="458.8724137931035" y="169.41724137931033" type="curve" smooth="yes"/>
      <point x="458.8724137931035" y="253.03448275862067"/>
      <point x="478.57241379310346" y="335.8896551724138"/>
      <point x="518.0137931034484" y="410.55172413793105" type="curve"/>
      <point x="425.9862068965517" y="486.0896551724138" type="line"/>
      <point x="354.63103448275865" y="423.5551724137931"/>
      <point x="318.9068965517241" y="359.84482758620686"/>
      <point x="283.1689655172414" y="287.1448275862069" type="curve"/>
      <point x="309.34137931034485" y="289.47241379310344" type="line"/>
      <point x="312.67586206896556" y="303.9689655172414"/>
      <point x="313.8689655172414" y="323.3724137931034"/>
      <point x="313.8689655172414" y="336.54137931034484" type="curve" smooth="yes"/>
      <point x="313.8689655172414" y="426.15172413793107"/>
      <point x="272.2689655172414" y="505.2413793103448"/>
      <point x="155.5103448275862" y="505.2413793103448" type="curve" smooth="yes"/>
      <point x="83.64827586206897" y="505.2413793103448"/>
      <point x="45.37931034482759" y="470.3103448275862"/>
      <point x="45.37931034482759" y="413.2758620689655" type="curve" smooth="yes"/>
      <point x="45.37931034482759" y="361.58620689655174"/>
      <point x="76.82758620689654" y="328.7586206896552"/>
      <point x="123.33793103448275" y="328.7586206896552" type="curve" smooth="yes"/>
      <point x="171.9206896551724" y="328.7586206896552"/>
      <point x="201.74827586206897" y="364.73793103448276"/>
      <point x="201.5551724137931" y="425.2413793103448" type="curve" smooth="yes"/>
      <point x="201.1689655172414" y="474.3103448275862"/>
      <point x="168.82758620689654" y="541.5172413793103"/>
      <point x="140.17586206896553" y="571.4827586206897" type="curve"/>
      <point x="38.58275862068965" y="571.4827586206897" type="line"/>
      <point x="79.9" y="554.3103448275862"/>
      <point x="123.77241379310345" y="517.7724137931034"/>
      <point x="145.6793103448276" y="465.7931034482759" type="curve"/>
      <point x="113.76551724137931" y="400.7241379310345" type="line"/>
      <point x="137.65517241379308" y="419.7241379310345"/>
      <point x="162.3793103448276" y="430.2206896551724"/>
      <point x="190.43103448275863" y="430.2206896551724" type="curve" smooth="yes"/>
      <point x="242.9931034482759" y="430.2206896551724"/>
      <point x="264.7448275862069" y="391.78620689655173"/>
      <point x="264.7448275862069" y="338.8310344827586" type="curve" smooth="yes"/>
      <point x="264.7448275862069" y="304.8103448275862"/>
      <point x="256.3137931034483" y="263.7103448275862"/>
      <point x="239.63448275862072" y="233.10689655172413" type="curve" smooth="yes"/>
      <point x="219.87241379310345" y="196.61379310344827"/>
      <point x="195.62758620689655" y="180.4344827586207"/>
      <point x="165.72413793103448" y="180.4344827586207" type="curve" smooth="yes"/>
      <point x="135.40689655172415" y="180.4344827586207"/>
      <point x="108.50689655172414" y="203.60689655172413"/>
      <point x="85.7448275862069" y="254.2586206896552" type="curve"/>
      <point x="48.213793103448275" y="236.66896551724136" type="line"/>
      <point x="85.87586206896552" y="132.20000000000002"/>
      <point x="132.91724137931038" y="88.82068965517242"/>
      <point x="188.70344827586206" y="88.82068965517242" type="curve" smooth="yes"/>
      <point x="246.67586206896553" y="88.82068965517242"/>
      <point x="283.67931034482757" y="135.4896551724138"/>
      <point x="326.46896551724143" y="209.87586206896552" type="curve" smooth="yes"/>
      <point x="366.12068965517244" y="277.0379310344827"/>
      <point x="393.4068965517242" y="328.0655172413793"/>
      <point x="452.2551724137931" y="397.4793103448276" type="curve"/>
      <point x="435.2965517241379" y="410.6275862068965" type="line"/>
      <point x="410.0655172413793" y="346.14482758620693"/>
      <point x="397.47586206896557" y="279.548275862069"/>
      <point x="397.47586206896557" y="209.05172413793105" type="curve" smooth="yes"/>
      <point x="397.47586206896557" y="125.30344827586207"/>
      <point x="417.21724137931034" y="47.517241379310335"/>
    </contour>
    <contour>
      <point x="3.731034482758621" y="564.4827586206897" type="line"/>
      <point x="579.5" y="564.4827586206897" type="line"/>
      <point x="547.8896551724138" y="622.0" type="line"/>
      <point x="-27.855172413793102" y="622.0" type="line"/>
    </contour>
    <contour>
      <point x="425.38965517241377" y="608.1379310344828" type="curve"/>
      <point x="470.496551724138" y="608.1379310344828" type="line"/>
      <point x="460.05172413793105" y="738.7241379310345"/>
      <point x="421.2344827586207" y="809.2758620689656"/>
      <point x="320.9793103448276" y="809.2758620689656" type="curve" smooth="yes"/>
      <point x="271.80000000000007" y="809.2758620689656"/>
      <point x="238.89655172413794" y="798.9793103448276"/>
      <point x="181.48275862068965" y="798.9793103448276" type="curve" smooth="yes"/>
      <point x="112.55862068965519" y="798.9793103448276"/>
      <point x="82.26551724137931" y="814.4896551724138"/>
      <point x="82.26551724137931" y="889.1862068965517" type="curve" smooth="yes"/>
      <point x="82.26551724137931" y="895.8896551724138"/>
      <point x="82.45862068965518" y="905.9931034482759"/>
      <point x="84.24137931034484" y="916.7517241379311" type="curve"/>
      <point x="44.99655172413792" y="921.2206896551724" type="line"/>
      <point x="41.44482758620689" y="901.9241379310345"/>
      <point x="39.46896551724138" y="884.1413793103449"/>
      <point x="39.46896551724138" y="865.6206896551724" type="curve" smooth="yes"/>
      <point x="39.46896551724138" y="764.1275862068966"/>
      <point x="88.51034482758622" y="705.7793103448276"/>
      <point x="188.04482758620688" y="705.7793103448276" type="curve" smooth="yes"/>
      <point x="250.49999999999997" y="705.7793103448276"/>
      <point x="298.9206896551724" y="717.351724137931"/>
      <point x="342.4620689655173" y="717.351724137931" type="curve" smooth="yes"/>
      <point x="396.1862068965517" y="717.351724137931"/>
      <point x="417.94482758620694" y="685.3448275862069"/>
    </contour>
  </outline>
</glyph>
<glyph name="u-beng" format="2">
  <advance width="507.2931034482759"/>
  <unicode hex="0989"/>
  <anchor x="389.57931034482755" y="24.73103448275862" name="bottom"/>
  <anchor x="434.70000000000005" y="-7.334482758620689" name="bottom.rakaar"/>
  <anchor x="374.04137931034484" y="50.06551724137931" name="bottom.rvocalic"/>
  <anchor x="324.46206896551723" y="10.755172413793101" name="bottom.virama"/>
  <anchor x="308.34137931034485" y="613.8827586206897" name="top"/>
  <anchor x="256.9689655172414" y="619.9413793103449" name="topright"/>
  <anchor x="253.39310344827587" y="0.0" name="vedic"/>
  <anchor x="272.2758620689655" y="-74.6896551724138" name="nukta"/>
  <outline>
    <contour>
      <point x="401.2206896551724" y="608.1379310344828" type="curve"/>
      <point x="446.1344827586207" y="608.1379310344828" type="line"/>
      <point x="437.54137931034484" y="739.3655172413793"/>
      <point x="394.02758620689656" y="805.9517241379311"/>
      <point x="301.7068965517241" y="805.9517241379311" type="curve" smooth="yes"/>
      <point x="256.38275862068963" y="805.9517241379311"/>
      <point x="223.48275862068968" y="796.7586206896552"/>
      <point x="175.03103448275863" y="796.7586206896552" type="curve" smooth="yes"/>
      <point x="107.24137931034481" y="796.7586206896552"/>
      <point x="78.8551724137931" y="817.3275862068965"/>
      <point x="78.8551724137931" y="878.5172413793103" type="curve" smooth="yes"/>
      <point x="78.8551724137931" y="888.2517241379311"/>
      <point x="79.63793103448276" y="902.2896551724137"/>
      <point x="81.33793103448276" y="916.1620689655172" type="curve"/>
      <point x="39.679310344827584" y="920.7137931034482" type="line"/>
      <point x="36.12758620689655" y="899.6206896551724"/>
      <point x="34.85172413793103" y="881.6448275862069"/>
      <point x="34.85172413793103" y="859.7793103448276" type="curve" smooth="yes"/>
      <point x="34.85172413793103" y="763.5379310344828"/>
      <point x="83.38620689655173" y="706.903448275862"/>
      <point x="181.58620689655174" y="706.903448275862" type="curve" smooth="yes"/>
      <point x="238.73103448275862" y="706.903448275862"/>
      <point x="279.5689655172414" y="717.1793103448276"/>
      <point x="317.1586206896552" y="717.1793103448276" type="curve" smooth="yes"/>
      <point x="369.28275862068966" y="717.1793103448276"/>
      <point x="393.1034482758621" y="685.4551724137931"/>
    </contour>
    <component base="dda-beng"/>
  </outline>
</glyph>
<glyph name="uu-beng" format="2">
  <advance width="575.551724137931"/>
  <unicode hex="098A"/>
  <anchor x="452.7103448275862" y="22.689655172413794" name="bottom"/>
  <anchor x="497.83103448275864" y="-8.482758620689655" name="bottom.rakaar"/>
  <anchor x="436.97931034482764" y="47.51724137931034" name="bottom.rvocalic"/>
  <anchor x="386.1931034482759" y="8.482758620689655" name="bottom.virama"/>
  <anchor x="351.8068965517241" y="614.5172413793103" name="top"/>
  <anchor x="330.0793103448276" y="619.2413793103449" name="topright"/>
  <anchor x="287.67931034482757" y="0.0" name="vedic"/>
  <outline>
    <contour>
      <point x="359.9551724137931" y="37.2551724137931" type="curve" smooth="yes"/>
      <point x="488.74482758620695" y="37.2551724137931"/>
      <point x="550.6689655172414" y="131.27241379310342"/>
      <point x="550.6689655172414" y="256.8137931034483" type="curve" smooth="yes"/>
      <point x="550.6689655172414" y="355.9827586206897"/>
      <point x="515.0413793103448" y="424.7379310344828"/>
      <point x="465.0931034482759" y="472.39310344827584" type="curve"/>
      <point x="432.42758620689654" y="404.1724137931035"/>
      <point x="384.4896551724138" y="353.4655172413793"/>
      <point x="344.7827586206896" y="353.4655172413793" type="curve" smooth="yes"/>
      <point x="329.7413793103448" y="353.4655172413793"/>
      <point x="318.84482758620686" y="362.8310344827586"/>
      <point x="318.84482758620686" y="382.01724137931035" type="curve" smooth="yes"/>
      <point x="318.84482758620686" y="564.4827586206897" type="line"/>
      <point x="603.4068965517241" y="564.4827586206897" type="line"/>
      <point x="570.0379310344828" y="622.0" type="line"/>
      <point x="-27.855172413793102" y="622.0" type="line"/>
      <point x="4.813793103448275" y="564.4827586206897" type="line"/>
      <point x="257.2896551724138" y="564.4827586206897" type="line"/>
      <point x="257.2896551724138" y="379.4758620689655" type="line" smooth="yes"/>
      <point x="257.2896551724138" y="343.87931034482756"/>
      <point x="266.45862068965516" y="317.32068965517243"/>
      <point x="287.57241379310346" y="296.44827586206895" type="curve" smooth="yes"/>
      <point x="306.8034482758621" y="277.3241379310345"/>
      <point x="330.64137931034486" y="266.8862068965517"/>
      <point x="359.4068965517242" y="266.8862068965517" type="curve" smooth="yes"/>
      <point x="413.2241379310345" y="266.8862068965517"/>
      <point x="471.2310344827586" y="313.5448275862069"/>
      <point x="507.43793103448274" y="382.2" type="curve"/>
      <point x="465.1103448275862" y="366.2931034482759" type="line"/>
      <point x="485.56206896551726" y="347.6034482758621"/>
      <point x="498.42413793103447" y="320.35172413793106"/>
      <point x="498.42413793103447" y="276.3172413793103" type="curve" smooth="yes"/>
      <point x="498.42413793103447" y="192.07586206896553"/>
      <point x="449.6793103448276" y="135.41379310344828"/>
      <point x="369.5551724137931" y="134.6793103448276" type="curve" smooth="yes"/>
      <point x="239.41379310344828" y="133.42758620689656"/>
      <point x="198.0344827586207" y="288.2206896551724"/>
      <point x="149.4758620689655" y="499.6" type="curve"/>
      <point x="107.9793103448276" y="486.8551724137931" type="line"/>
      <point x="139.50344827586207" y="307.0827586206897"/>
      <point x="171.85172413793103" y="194.8655172413793"/>
      <point x="230.17241379310343" y="125.49655172413793" type="curve"/>
      <point x="259.7103448275862" y="125.70344827586207" type="line"/>
      <point x="171.84137931034482" y="157.2551724137931"/>
      <point x="110.0206896551724" y="277.62068965517244"/>
      <point x="54.96896551724137" y="497.9448275862069" type="curve"/>
      <point x="13.47241379310345" y="485.3931034482759" type="line"/>
      <point x="71.86206896551724" y="179.6344827586207"/>
      <point x="184.9241379310345" y="37.2551724137931"/>
    </contour>
    <contour>
      <point x="469.0068965517241" y="608.1379310344828" type="curve"/>
      <point x="513.606896551724" y="608.1379310344828" type="line"/>
      <point x="502.99655172413793" y="738.7241379310345"/>
      <point x="455.25172413793103" y="812.5586206896552"/>
      <point x="353.59310344827594" y="812.5586206896552" type="curve" smooth="yes"/>
      <point x="292.45862068965516" y="812.5586206896552"/>
      <point x="252.94827586206895" y="795.0413793103448"/>
      <point x="175.52758620689656" y="795.0413793103448" type="curve" smooth="yes"/>
      <point x="108.31379310344828" y="795.0413793103448"/>
      <point x="81.86206896551724" y="817.4103448275862"/>
      <point x="81.86206896551724" y="878.5172413793103" type="curve" smooth="yes"/>
      <point x="81.86206896551724" y="888.3344827586207"/>
      <point x="82.6448275862069" y="902.3724137931034"/>
      <point x="84.3448275862069" y="916.2448275862068" type="curve"/>
      <point x="42.46896551724138" y="920.7137931034482" type="line"/>
      <point x="39.21724137931035" y="899.7034482758621"/>
      <point x="37.665517241379305" y="881.7275862068965"/>
      <point x="37.665517241379305" y="859.7793103448276" type="curve" smooth="yes"/>
      <point x="37.665517241379305" y="762.0689655172414"/>
      <point x="84.18275862068965" y="705.3517241379311"/>
      <point x="183.98620689655172" y="705.3517241379311" type="curve" smooth="yes"/>
      <point x="264.08965517241387" y="705.3517241379311"/>
      <point x="307.66896551724136" y="724.1448275862069"/>
      <point x="369.62068965517244" y="724.1448275862069" type="curve" smooth="yes"/>
      <point x="430.9793103448275" y="724.1448275862069"/>
      <point x="460.18965517241384" y="685.3448275862069"/>
    </contour>
  </outline>
</glyph>
<glyph name="rVocalic-beng" format="2">
  <advance width="630.103448275862"/>
  <unicode hex="098B"/>
  <anchor x="427.64137931034486" y="0.0" name="bottom"/>
  <anchor x="427.64137931034486" y="74.6896551724138" name="bottom.rakaar"/>
  <anchor x="361.06206896551726" y="128.51379310344828" name="bottom.rvocalic"/>
  <anchor x="410.75517241379305" y="8.206896551724139" name="bottom.virama"/>
  <anchor x="427.64137931034486" y="564.4827586206897" name="top"/>
  <anchor x="429.94137931034487" y="564.4827586206897" name="topright"/>
  <anchor x="314.9551724137931" y="0.0" name="vedic"/>
  <outline>
    <contour>
      <point x="421.0310344827586" y="-16.696551724137933" type="line"/>
      <point x="427.64137931034486" y="-15.337931034482759" type="line"/>
      <point x="427.64137931034486" y="642.6206896551724" type="line"/>
      <point x="370.6379310344828" y="680.4827586206897" type="line"/>
      <point x="366.00344827586207" y="679.2068965517242" type="line"/>
      <point x="366.00344827586207" y="464.5655172413793" type="line"/>
      <point x="372.72068965517246" y="494.7689655172413" type="line"/>
      <point x="263.7758620689656" y="450.67241379310343"/>
      <point x="161.87586206896552" y="395.83448275862065"/>
      <point x="68.6896551724138" y="333.28275862068966" type="curve"/>
      <point x="122.56896551724138" y="216.89655172413794" type="line"/>
      <point x="234.57241379310344" y="193.64137931034483"/>
      <point x="319.17586206896556" y="132.2551724137931"/>
      <point x="374.87931034482756" y="17.444827586206898" type="curve"/>
    </contour>
    <contour>
      <point x="366.00344827586207" y="79.01724137931035" type="line"/>
      <point x="378.74827586206897" y="81.59655172413794" type="line"/>
      <point x="332.38620689655176" y="210.08275862068967"/>
      <point x="236.06206896551723" y="269.84137931034485"/>
      <point x="150.24482758620692" y="296.82758620689657" type="curve"/>
      <point x="158.92758620689654" y="274.2758620689655" type="line"/>
      <point x="219.2137931034483" y="321.65517241379314"/>
      <point x="306.8" y="365.7586206896552"/>
      <point x="376.96896551724143" y="393.07586206896553" type="curve"/>
      <point x="366.00344827586207" y="417.0206896551724" type="line"/>
    </contour>
    <contour>
      <point x="120.13448275862069" y="428.6413793103448" type="curve" smooth="yes"/>
      <point x="183.8793103448276" y="428.6413793103448"/>
      <point x="250.99310344827586" y="463.8586206896552"/>
      <point x="293.64137931034486" y="544.2724137931035" type="curve"/>
      <point x="263.21724137931034" y="542.9655172413793" type="line"/>
      <point x="286.95862068965516" y="517.9862068965517"/>
      <point x="304.148275862069" y="490.7655172413793"/>
      <point x="326.5413793103449" y="443.44827586206895" type="curve"/>
      <point x="363.3034482758621" y="453.2758620689655" type="line"/>
      <point x="335.6655172413793" y="533.2862068965517"/>
      <point x="302.22413793103453" y="588.2758620689656"/>
      <point x="257.20344827586206" y="626.0000000000001" type="curve"/>
      <point x="215.5793103448276" y="544.1413793103449"/>
      <point x="163.67586206896553" y="507.20000000000005"/>
      <point x="123.03103448275863" y="507.20000000000005" type="curve" smooth="yes"/>
      <point x="112.96551724137932" y="507.20000000000005"/>
      <point x="99.18275862068967" y="510.08965517241376"/>
      <point x="93.14137931034483" y="513.4620689655172" type="curve"/>
      <point x="126.49655172413794" y="479.6068965517241" type="line"/>
      <point x="142.44137931034481" y="495.88275862068963"/>
      <point x="148.01724137931035" y="510.94137931034476"/>
      <point x="148.01724137931035" y="536.9862068965517" type="curve" smooth="yes"/>
      <point x="148.01724137931035" y="572.2620689655173"/>
      <point x="126.54137931034482" y="599.1931034482759"/>
      <point x="86.0758620689655" y="599.1931034482759" type="curve" smooth="yes"/>
      <point x="44.606896551724134" y="599.1931034482759"/>
      <point x="19.06206896551724" y="571.5137931034484"/>
      <point x="19.06206896551724" y="524.9172413793103" type="curve" smooth="yes"/>
      <point x="19.06206896551724" y="460.26206896551724"/>
      <point x="68.93793103448274" y="428.6413793103448"/>
    </contour>
    <contour>
      <point x="555.7034482758621" y="78.45862068965516" type="line"/>
      <point x="561.7137931034482" y="79.73448275862069" type="line"/>
      <point x="561.7137931034482" y="564.4827586206897" type="line"/>
      <point x="657.9586206896552" y="564.4827586206897" type="line"/>
      <point x="625.2655172413793" y="622.0" type="line"/>
      <point x="557.8758620689655" y="622.0" type="line"/>
      <point x="552.348275862069" y="668.3103448275862" type="line"/>
      <point x="505.3724137931034" y="702.1379310344828" type="line"/>
      <point x="500.5448275862069" y="700.5862068965517" type="line"/>
      <point x="500.5448275862069" y="174.69655172413792" type="line"/>
      <point x="513.2896551724137" y="177.16551724137932" type="line"/>
      <point x="487.8448275862069" y="250.35517241379307"/>
      <point x="447.47241379310344" y="302.61034482758623"/>
      <point x="400.4172413793104" y="340.2793103448276" type="curve"/>
      <point x="394.6172413793103" y="257.73793103448276" type="line"/>
      <point x="442.3103448275863" y="224.13103448275862"/>
      <point x="478.98965517241385" y="175.95862068965516"/>
      <point x="509.42068965517245" y="112.60000000000001" type="curve"/>
    </contour>
  </outline>
</glyph>
<glyph name="lVocalic-beng" format="2">
  <advance width="441.67931034482757"/>
  <unicode hex="098C"/>
  <anchor x="328.77241379310345" y="564.4827586206897" name="top"/>
  <anchor x="220.44827586206898" y="0.0" name="vedic"/>
  <outline>
    <contour>
      <point x="252.83793103448275" y="10.551724137931032" type="line"/>
      <point x="335.33448275862065" y="30.620689655172413"/>
      <point x="423.5137931034483" y="131.15172413793104"/>
      <point x="423.5137931034483" y="280.2206896551724" type="curve" smooth="yes"/>
      <point x="423.5137931034483" y="419.6344827586207"/>
      <point x="363.0" y="471.75172413793103"/>
      <point x="236.88965517241377" y="506.6137931034483" type="curve" smooth="yes"/>
      <point x="162.51724137931035" y="527.2448275862068"/>
      <point x="111.42758620689654" y="543.1"/>
      <point x="111.42758620689654" y="617.0344827586207" type="curve" smooth="yes"/>
      <point x="111.42758620689654" y="645.7689655172413"/>
      <point x="118.94827586206894" y="671.7241379310345"/>
      <point x="129.22413793103448" y="698.2758620689655" type="curve"/>
      <point x="87.69655172413793" y="712.8275862068965" type="line"/>
      <point x="70.76551724137931" y="676.3551724137932"/>
      <point x="57.48275862068965" y="631.8482758620689"/>
      <point x="57.48275862068965" y="585.6724137931034" type="curve" smooth="yes"/>
      <point x="57.48275862068965" y="475.40000000000003"/>
      <point x="117.66551724137929" y="438.296551724138"/>
      <point x="224.11724137931037" y="411.44827586206895" type="curve" smooth="yes"/>
      <point x="317.4655172413793" y="387.3344827586207"/>
      <point x="371.38620689655176" y="366.5758620689655"/>
      <point x="371.38620689655176" y="258.35517241379307" type="curve" smooth="yes"/>
      <point x="371.38620689655176" y="186.9758620689655"/>
      <point x="338.3172413793103" y="117.05862068965516"/>
      <point x="291.51724137931035" y="104.2896551724138" type="curve"/>
      <point x="324.21724137931034" y="83.24137931034483" type="line"/>
      <point x="325.0241379310345" y="202.0344827586207"/>
      <point x="278.40000000000003" y="317.7586206896552"/>
      <point x="171.3344827586207" y="317.7586206896552" type="curve" smooth="yes"/>
      <point x="85.06206896551724" y="317.7586206896552"/>
      <point x="39.796551724137935" y="249.4551724137931"/>
      <point x="39.796551724137935" y="168.1655172413793" type="curve" smooth="yes"/>
      <point x="39.796551724137935" y="76.22758620689656"/>
      <point x="83.7551724137931" y="27.72413793103448"/>
      <point x="139.01724137931032" y="27.72413793103448" type="curve" smooth="yes"/>
      <point x="184.20344827586206" y="27.72413793103448"/>
      <point x="204.4241379310345" y="62.52413793103448"/>
      <point x="204.4241379310345" y="100.58620689655173" type="curve" smooth="yes"/>
      <point x="204.4241379310345" y="140.98620689655172"/>
      <point x="178.60344827586206" y="167.44827586206895"/>
      <point x="143.3310344827586" y="167.44827586206895" type="curve" smooth="yes"/>
      <point x="112.99655172413794" y="167.44827586206895"/>
      <point x="86.33793103448275" y="143.3448275862069"/>
      <point x="86.31379310344828" y="113.41379310344827" type="curve"/>
      <point x="127.0344827586207" y="113.05862068965517" type="line"/>
      <point x="109.33103448275861" y="121.48275862068965"/>
      <point x="95.1896551724138" y="141.12413793103445"/>
      <point x="95.1896551724138" y="175.3793103448276" type="curve" smooth="yes"/>
      <point x="95.1896551724138" y="212.59655172413792"/>
      <point x="118.78275862068966" y="243.55172413793105"/>
      <point x="158.22758620689655" y="243.55172413793105" type="curve" smooth="yes"/>
      <point x="226.14827586206894" y="243.55172413793105"/>
      <point x="249.62068965517238" y="150.6448275862069"/>
      <point x="249.62068965517238" y="64.44827586206897" type="curve" smooth="yes"/>
      <point x="249.62068965517238" y="47.19310344827586"/>
      <point x="249.12758620689655" y="30.744827586206895"/>
      <point x="247.04482758620688" y="14.827586206896552" type="curve"/>
    </contour>
  </outline>
</glyph>
<glyph name="e-beng" format="2">
  <advance width="552.7413793103449"/>
  <unicode hex="098F"/>
  <anchor x="490.8344827586207" y="0.0" name="bottom"/>
  <anchor x="490.8344827586207" y="0.7931034482758617" name="bottom.rvocalic"/>
  <anchor x="474.648275862069" y="6.551724137931035" name="bottom.virama"/>
  <anchor x="409.54137931034484" y="564.4827586206897" name="top"/>
  <anchor x="412.54137931034484" y="564.4827586206897" name="topright"/>
  <anchor x="276.12413793103445" y="0.0" name="vedic"/>
  <outline>
    <contour>
      <point x="482.00344827586207" y="-17.413793103448278" type="line"/>
      <point x="488.6137931034483" y="-16.13793103448276" type="line"/>
      <point x="488.6137931034483" y="505.1620689655172" type="line" smooth="yes"/>
      <point x="488.6137931034483" y="583.2206896551725"/>
      <point x="449.36896551724135" y="632.2758620689655"/>
      <point x="381.08965517241376" y="632.2758620689655" type="curve" smooth="yes"/>
      <point x="271.84137931034485" y="632.2758620689655"/>
      <point x="174.29310344827584" y="501.41379310344826"/>
      <point x="174.29310344827584" y="387.44827586206895" type="curve" smooth="yes"/>
      <point x="174.29310344827584" y="309.7931034482759"/>
      <point x="218.58275862068967" y="268.41379310344826"/>
      <point x="272.47241379310344" y="266.6896551724138" type="curve" smooth="yes"/>
      <point x="331.61034482758623" y="264.9655172413793"/>
      <point x="359.73793103448276" y="303.88620689655176"/>
      <point x="359.73793103448276" y="351.82758620689657" type="curve" smooth="yes"/>
      <point x="359.73793103448276" y="394.3103448275862"/>
      <point x="335.9068965517242" y="430.7586206896552"/>
      <point x="292.38965517241377" y="430.7586206896552" type="curve" smooth="yes"/>
      <point x="274.9758620689655" y="430.7586206896552"/>
      <point x="254.74137931034483" y="422.2068965517241"/>
      <point x="244.37241379310342" y="400.7586206896552" type="curve"/>
      <point x="273.35862068965514" y="398.6551724137931" type="line"/>
      <point x="273.3103448275862" y="472.77931034482765"/>
      <point x="334.32068965517243" y="570.1724137931035"/>
      <point x="385.58620689655174" y="570.1724137931035" type="curve" smooth="yes"/>
      <point x="418.89655172413796" y="570.1724137931035"/>
      <point x="426.97586206896557" y="540.2068965517242"/>
      <point x="426.97586206896557" y="502.58620689655174" type="curve" smooth="yes"/>
      <point x="426.97586206896557" y="198.79310344827587" type="line" smooth="yes"/>
      <point x="426.97586206896557" y="164.0206896551724"/>
      <point x="429.50344827586207" y="121.53103448275861"/>
      <point x="434.1137931034483" y="86.17241379310344" type="curve"/>
      <point x="403.7758620689656" y="151.32413793103447"/>
      <point x="363.24827586206897" y="169.22758620689655"/>
      <point x="315.5551724137931" y="169.22758620689655" type="curve" smooth="yes"/>
      <point x="271.04827586206903" y="169.22758620689655"/>
      <point x="245.02068965517242" y="162.4241379310345"/>
      <point x="189.6206896551724" y="162.4241379310345" type="curve" smooth="yes"/>
      <point x="130.20689655172413" y="162.4241379310345"/>
      <point x="86.19310344827588" y="193.4103448275862"/>
      <point x="86.19310344827588" y="277.74482758620695" type="curve" smooth="yes"/>
      <point x="86.19310344827588" y="315.82758620689657"/>
      <point x="90.61724137931036" y="344.90344827586205"/>
      <point x="96.38620689655173" y="369.05172413793105" type="curve"/>
      <point x="51.42413793103448" y="376.6379310344828" type="line"/>
      <point x="43.04482758620689" y="342.3965517241379"/>
      <point x="36.76896551724138" y="299.551724137931"/>
      <point x="36.76896551724138" y="256.8931034482759" type="curve" smooth="yes"/>
      <point x="36.76896551724138" y="108.5344827586207"/>
      <point x="115.64827586206896" y="65.05172413793105"/>
      <point x="197.60000000000002" y="65.05172413793105" type="curve" smooth="yes"/>
      <point x="257.1310344827586" y="65.05172413793105"/>
      <point x="290.6034482758621" y="77.31724137931035"/>
      <point x="343.0034482758621" y="77.31724137931035" type="curve" smooth="yes"/>
      <point x="387.8103448275862" y="77.31724137931035"/>
      <point x="412.51724137931035" y="62.91724137931035"/>
      <point x="439.948275862069" y="13.744827586206895" type="curve"/>
    </contour>
  </outline>
</glyph>
<glyph name="ai-beng" format="2">
  <advance width="640.1172413793104"/>
  <unicode hex="0990"/>
  <anchor x="431.7758620689655" y="600.8275862068965" name="top"/>
  <anchor x="397.0241379310345" y="601.1724137931035" name="topright"/>
  <anchor x="319.9206896551724" y="0.0" name="vedic"/>
  <anchor x="490.8344827586207" y="0.0" name="bottom"/>
  <anchor x="490.8344827586207" y="0.7931034482758617" name="bottom.rvocalic"/>
  <anchor x="474.648275862069" y="6.551724137931035" name="bottom.virama"/>
  <outline>
    <contour>
      <point x="478.2793103448276" y="326.41379310344826" type="line"/>
      <point x="531.7310344827587" y="380.16551724137935"/>
      <point x="581.7655172413794" y="454.22758620689655"/>
      <point x="581.7655172413794" y="568.4793103448276" type="curve" smooth="yes"/>
      <point x="581.7655172413794" y="731.5448275862069"/>
      <point x="469.60689655172416" y="758.8862068965517"/>
      <point x="357.6689655172414" y="777.2344827586206" type="curve" smooth="yes"/>
      <point x="265.9551724137931" y="792.4206896551725"/>
      <point x="194.44827586206898" y="805.6068965517242"/>
      <point x="194.44827586206898" y="892.2862068965518" type="curve" smooth="yes"/>
      <point x="194.44827586206898" y="921.4689655172414"/>
      <point x="201.23103448275862" y="951.5034482758621"/>
      <point x="211.16551724137932" y="975.9448275862069" type="curve"/>
      <point x="170.07241379310346" y="990.9379310344827" type="line"/>
      <point x="153.7689655172414" y="953.503448275862"/>
      <point x="143.1448275862069" y="911.6275862068966"/>
      <point x="143.1448275862069" y="869.9517241379311" type="curve" smooth="yes"/>
      <point x="143.1448275862069" y="738.9620689655171"/>
      <point x="238.84482758620692" y="713.5241379310345"/>
      <point x="346.7827586206897" y="697.0896551724138" type="curve" smooth="yes"/>
      <point x="449.89655172413796" y="681.8758620689655"/>
      <point x="535.3103448275862" y="668.8758620689655"/>
      <point x="535.3103448275862" y="556.0068965517241" type="curve" smooth="yes"/>
      <point x="535.3103448275862" y="484.1655172413793"/>
      <point x="505.98620689655166" y="436.9241379310345"/>
      <point x="458.4586206896552" y="394.3034482758621" type="curve"/>
    </contour>
    <component base="e-beng"/>
  </outline>
</glyph>
<glyph name="o-beng" format="2">
  <advance width="591.4241379310345"/>
  <unicode hex="0993"/>
  <anchor x="445.7586206896551" y="29.924137931034483" name="bottom"/>
  <anchor x="490.32758620689646" y="-0.7241379310344827" name="bottom.rakaar"/>
  <anchor x="431.0862068965517" y="54.00689655172414" name="bottom.rvocalic"/>
  <anchor x="381.55172413793105" y="15.413793103448276" name="bottom.virama"/>
  <anchor x="382.88275862068963" y="558.1655172413793" name="top"/>
  <anchor x="385.18275862068964" y="558.1655172413793" name="topright"/>
  <anchor x="295.50689655172414" y="0.0" name="vedic"/>
  <outline>
    <contour>
      <point x="363.9862068965517" y="48.37931034482759" type="curve" smooth="yes"/>
      <point x="485.15862068965515" y="48.37931034482759"/>
      <point x="548.5379310344828" y="128.2793103448276"/>
      <point x="548.5379310344828" y="232.05517241379312" type="curve" smooth="yes"/>
      <point x="548.5379310344828" y="341.17241379310343"/>
      <point x="466.08275862068973" y="417.95862068965516"/>
      <point x="402.7068965517242" y="417.95862068965516" type="curve" smooth="yes"/>
      <point x="364.47241379310344" y="417.95862068965516"/>
      <point x="337.1586206896552" y="392.0689655172414"/>
      <point x="337.1586206896552" y="346.8137931034483" type="curve" smooth="yes"/>
      <point x="337.1586206896552" y="302.41379310344826"/>
      <point x="362.48275862068965" y="272.951724137931"/>
      <point x="405.01724137931035" y="272.951724137931" type="curve" smooth="yes"/>
      <point x="472.80689655172415" y="272.951724137931"/>
      <point x="528.6827586206897" y="385.16896551724136"/>
      <point x="528.6827586206897" y="481.22758620689655" type="curve" smooth="yes"/>
      <point x="528.6827586206897" y="570.8827586206897"/>
      <point x="475.4551724137931" y="630.7241379310345"/>
      <point x="381.0931034482758" y="630.7241379310345" type="curve" smooth="yes"/>
      <point x="264.0931034482759" y="630.7241379310345"/>
      <point x="159.6413793103448" y="529.2206896551724"/>
      <point x="159.6413793103448" y="419.83448275862065" type="curve" smooth="yes"/>
      <point x="159.6413793103448" y="352.7689655172414"/>
      <point x="196.53103448275863" y="319.11379310344824"/>
      <point x="240.47241379310347" y="319.11379310344824" type="curve" smooth="yes"/>
      <point x="283.05862068965513" y="319.11379310344824"/>
      <point x="311.3862068965517" y="346.6551724137931"/>
      <point x="311.3862068965517" y="397.3724137931034" type="curve" smooth="yes"/>
      <point x="311.3862068965517" y="434.9206896551724"/>
      <point x="289.1655172413793" y="463.34827586206893"/>
      <point x="258.03793103448277" y="463.34827586206893" type="curve" smooth="yes"/>
      <point x="239.60689655172416" y="463.34827586206893"/>
      <point x="220.8655172413793" y="456.1413793103448"/>
      <point x="211.84137931034482" y="441.5310344827586" type="curve"/>
      <point x="256.61724137931037" y="425.75172413793103" type="line"/>
      <point x="263.4310344827586" y="508.6620689655173"/>
      <point x="328.3827586206897" y="573.5103448275862"/>
      <point x="401.82068965517243" y="573.5103448275862" type="curve" smooth="yes"/>
      <point x="444.44827586206895" y="573.5103448275862"/>
      <point x="464.52068965517236" y="545.3310344827587"/>
      <point x="464.52068965517236" y="502.50344827586207" type="curve" smooth="yes"/>
      <point x="464.52068965517236" y="455.8931034482759"/>
      <point x="441.0724137931034" y="419.59999999999997"/>
      <point x="402.37586206896555" y="392.15172413793107" type="curve"/>
      <point x="417.66896551724136" y="341.21379310344827" type="line"/>
      <point x="449.5931034482759" y="341.5724137931034"/>
      <point x="493.6689655172414" y="313.64137931034486"/>
      <point x="493.6689655172414" y="253.2862068965517" type="curve" smooth="yes"/>
      <point x="493.6689655172414" y="189.16896551724136"/>
      <point x="449.348275862069" y="145.05517241379312"/>
      <point x="365.9068965517241" y="145.05517241379312" type="curve" smooth="yes"/>
      <point x="235.87931034482762" y="145.05517241379312"/>
      <point x="133.4103448275862" y="241.08965517241379"/>
      <point x="64.5344827586207" y="547.0724137931034" type="curve"/>
      <point x="20.179310344827588" y="536.1517241379311" type="line"/>
      <point x="83.88965517241381" y="189.29655172413794"/>
      <point x="211.00689655172414" y="48.37931034482759"/>
    </contour>
  </outline>
</glyph>
<glyph name="au-beng" format="2">
  <advance width="658.3310344827586"/>
  <unicode hex="0994"/>
  <anchor x="526.2758620689655" y="30.172413793103445" name="bottom"/>
  <anchor x="577.3103448275862" y="-1.0" name="bottom.rakaar"/>
  <anchor x="504.2068965517241" y="54.72413793103448" name="bottom.rvocalic"/>
  <anchor x="443.3793103448276" y="15.689655172413794" name="bottom.virama"/>
  <anchor x="548.2068965517242" y="600.8275862068965" name="top"/>
  <anchor x="490.82758620689657" y="601.1724137931035" name="topright"/>
  <anchor x="329.1655172413793" y="0.0" name="vedic"/>
  <outline>
    <contour>
      <point x="496.4931034482758" y="327.3241379310345" type="line"/>
      <point x="550.1379310344828" y="381.07586206896553"/>
      <point x="599.9793103448276" y="454.7241379310345"/>
      <point x="599.9793103448276" y="568.8620689655172" type="curve" smooth="yes"/>
      <point x="599.9793103448276" y="732.044827586207"/>
      <point x="486.92758620689654" y="759.1034482758621"/>
      <point x="375.9931034482759" y="777.2344827586206" type="curve" smooth="yes"/>
      <point x="286.348275862069" y="792.0896551724138"/>
      <point x="212.8551724137931" y="804.9448275862069"/>
      <point x="212.8551724137931" y="892.2862068965518" type="curve" smooth="yes"/>
      <point x="212.8551724137931" y="921.4689655172414"/>
      <point x="219.63793103448276" y="951.5034482758621"/>
      <point x="229.37931034482762" y="975.9448275862069" type="curve"/>
      <point x="188.28620689655173" y="990.9379310344827" type="line"/>
      <point x="172.17586206896553" y="953.503448275862"/>
      <point x="161.55172413793105" y="911.6275862068966"/>
      <point x="161.55172413793105" y="869.9517241379311" type="curve" smooth="yes"/>
      <point x="161.55172413793105" y="738.9620689655171"/>
      <point x="257.2517241379311" y="713.5241379310345"/>
      <point x="364.97241379310344" y="697.0896551724138" type="curve" smooth="yes"/>
      <point x="466.40000000000003" y="681.8241379310346"/>
      <point x="553.7172413793104" y="669.455172413793"/>
      <point x="553.7172413793104" y="555.8413793103448" type="curve" smooth="yes"/>
      <point x="553.7172413793104" y="481.41379310344826"/>
      <point x="524.0931034482759" y="434.93793103448274"/>
      <point x="476.64827586206894" y="392.23448275862074" type="curve"/>
    </contour>
    <component base="o-beng"/>
  </outline>
</glyph>
<glyph name="ka-beng" format="2">
  <advance width="603.0"/>
  <unicode hex="0995"/>
  <anchor x="369.34137931034485" y="31.103448275862068" name="bottom"/>
  <anchor x="370.2689655172414" y="67.73793103448276" name="bottom.rakaar"/>
  <anchor x="373.88965517241377" y="9.50344827586207" name="bottom.rvocalic"/>
  <anchor x="361.14827586206894" y="3.5172413793103443" name="bottom.virama"/>
  <anchor x="168.6206896551724" y="66.66896551724138" name="nukta"/>
  <anchor x="361.67586206896556" y="573.5862068965517" name="top"/>
  <anchor x="363.7" y="570.2758620689655" name="topright"/>
  <anchor x="301.0" y="0.0" name="vedic"/>
  <outline>
    <contour>
      <point x="367.2793103448276" y="-16.03448275862069" type="line"/>
      <point x="373.88965517241377" y="-14.758620689655173" type="line"/>
      <point x="373.88965517241377" y="443.33448275862065" type="line"/>
      <point x="359.5448275862069" y="418.7931034482759" type="line"/>
      <point x="364.1206896551724" y="420.28620689655173"/>
      <point x="369.4068965517241" y="421.28620689655173"/>
      <point x="373.4758620689655" y="421.28620689655173" type="curve" smooth="yes"/>
      <point x="469.8896551724137" y="421.28620689655173"/>
      <point x="530.4344827586207" y="353.1896551724138"/>
      <point x="530.4344827586207" y="283.1862068965517" type="curve" smooth="yes"/>
      <point x="530.4344827586207" y="267.4862068965517"/>
      <point x="527.4103448275862" y="258.2103448275862"/>
      <point x="520.1241379310345" y="246.44137931034481" type="curve"/>
      <point x="539.6448275862068" y="243.4344827586207" type="line"/>
      <point x="533.1379310344828" y="284.81379310344823"/>
      <point x="511.64137931034486" y="303.71034482758625"/>
      <point x="478.20000000000005" y="303.71034482758625" type="curve" smooth="yes"/>
      <point x="438.99655172413793" y="303.71034482758625"/>
      <point x="415.32413793103444" y="272.9172413793103"/>
      <point x="415.32413793103444" y="232.24137931034483" type="curve" smooth="yes"/>
      <point x="415.32413793103444" y="193.57241379310346"/>
      <point x="437.93793103448274" y="155.10344827586206"/>
      <point x="487.0172413793103" y="155.10344827586206" type="curve" smooth="yes"/>
      <point x="543.3551724137931" y="155.10344827586206"/>
      <point x="574.7310344827586" y="209.27241379310345"/>
      <point x="574.7310344827586" y="285.17241379310343" type="curve" smooth="yes"/>
      <point x="574.7310344827586" y="402.58620689655174"/>
      <point x="491.1241379310345" y="507.8379310344828"/>
      <point x="361.52068965517236" y="518.3655172413792" type="curve"/>
      <point x="373.88965517241377" y="497.51724137931035" type="line"/>
      <point x="373.88965517241377" y="564.4827586206897" type="line"/>
      <point x="630.6620689655173" y="564.4827586206897" type="line"/>
      <point x="598.3517241379309" y="622.0" type="line"/>
      <point x="-27.855172413793102" y="622.0" type="line"/>
      <point x="4.537931034482759" y="564.4827586206897" type="line"/>
      <point x="312.25172413793103" y="564.4827586206897" type="line"/>
      <point x="312.25172413793103" y="491.44827586206895" type="line"/>
      <point x="319.3551724137931" y="520.1241379310345" type="line"/>
      <point x="209.47241379310347" y="475.11034482758623"/>
      <point x="111.96551724137929" y="419.17241379310343"/>
      <point x="14.99310344827586" y="345.0137931034483" type="curve"/>
      <point x="68.56896551724138" y="226.06206896551723" type="line"/>
      <point x="181.2344827586207" y="199.97241379310344"/>
      <point x="264.90000000000003" y="133.1655172413793"/>
      <point x="321.2103448275862" y="18.106896551724137" type="curve"/>
    </contour>
    <contour>
      <point x="312.25172413793103" y="80.01034482758621" type="line"/>
      <point x="324.8034482758621" y="83.00344827586208" type="line"/>
      <point x="279.7931034482759" y="208.84137931034482"/>
      <point x="185.9241379310345" y="278.0655172413793"/>
      <point x="100.60344827586208" y="305.49655172413793" type="curve"/>
      <point x="107.68620689655174" y="287.10689655172416" type="line"/>
      <point x="171.13103448275862" y="343.4379310344828"/>
      <point x="253.5344827586207" y="385.6896551724138"/>
      <point x="323.21724137931034" y="416.64137931034486" type="curve"/>
      <point x="312.25172413793103" y="443.7241379310345" type="line"/>
    </contour>
  </outline>
</glyph>
<glyph name="kha-beng" format="2">
  <advance width="520.7931034482758"/>
  <unicode hex="0996"/>
  <anchor x="447.07241379310346" y="31.103448275862068" name="bottom"/>
  <anchor x="452.21034482758614" y="74.6896551724138" name="bottom.rakaar"/>
  <anchor x="452.21034482758614" y="11.337931034482757" name="bottom.rvocalic"/>
  <anchor x="435.6379310344827" y="6.082758620689656" name="bottom.virama"/>
  <anchor x="437.7793103448276" y="563.5862068965517" name="top"/>
  <anchor x="419.96206896551723" y="555.3103448275862" name="topright"/>
  <anchor x="244.2344827586207" y="0.0" name="vedic"/>
  <outline>
    <contour>
      <point x="446.3" y="-16.03448275862069" type="line"/>
      <point x="452.21034482758614" y="-14.758620689655173" type="line"/>
      <point x="452.21034482758614" y="564.4827586206897" type="line"/>
      <point x="548.648275862069" y="564.4827586206897" type="line"/>
      <point x="515.9551724137932" y="622.0" type="line"/>
      <point x="448.56551724137927" y="622.0" type="line"/>
      <point x="442.95517241379315" y="668.3103448275862" type="line"/>
      <point x="395.5931034482759" y="702.1379310344828" type="line"/>
      <point x="390.76551724137937" y="700.5862068965517" type="line"/>
      <point x="390.76551724137937" y="81.50344827586207" type="line"/>
      <point x="401.60344827586204" y="89.81379310344828" type="line"/>
      <point x="359.9172413793103" y="197.16551724137932"/>
      <point x="285.5689655172414" y="262.9172413793103"/>
      <point x="203.56206896551726" y="294.85862068965514" type="curve"/>
      <point x="210.06206896551723" y="272.7413793103448" type="line"/>
      <point x="296.43793103448274" y="293.78620689655173"/>
      <point x="342.69310344827585" y="345.28620689655173"/>
      <point x="342.69310344827585" y="440.79655172413794" type="curve" smooth="yes"/>
      <point x="342.69310344827585" y="531.3586206896551"/>
      <point x="291.60689655172416" y="589.2068965517242"/>
      <point x="247.40689655172417" y="625.7241379310345" type="curve"/>
      <point x="209.23793103448276" y="543.6172413793104"/>
      <point x="164.2448275862069" y="499.7103448275862"/>
      <point x="122.73103448275863" y="499.7103448275862" type="curve" smooth="yes"/>
      <point x="112.61379310344826" y="499.7103448275862"/>
      <point x="99.78275862068966" y="502.2413793103448"/>
      <point x="94.20689655172414" y="506.2413793103448" type="curve"/>
      <point x="126.49655172413794" y="475.44827586206895" type="line"/>
      <point x="142.44137931034481" y="491.7241379310345"/>
      <point x="148.01724137931035" y="506.78275862068966"/>
      <point x="148.01724137931035" y="532.8275862068965" type="curve" smooth="yes"/>
      <point x="148.01724137931035" y="568.1034482758621"/>
      <point x="126.54137931034482" y="595.0344827586207"/>
      <point x="86.0758620689655" y="595.0344827586207" type="curve" smooth="yes"/>
      <point x="44.606896551724134" y="595.0344827586207"/>
      <point x="19.06206896551724" y="567.1620689655173"/>
      <point x="19.06206896551724" y="520.7586206896551" type="curve" smooth="yes"/>
      <point x="19.06206896551724" y="452.548275862069"/>
      <point x="68.61724137931036" y="419.6413793103448"/>
      <point x="119.1551724137931" y="419.6413793103448" type="curve" smooth="yes"/>
      <point x="183.28275862068966" y="419.6413793103448"/>
      <point x="243.22413793103445" y="460.8241379310345"/>
      <point x="285.8448275862069" y="543.0310344827585" type="curve"/>
      <point x="251.1758620689655" y="540.3862068965517" type="line"/>
      <point x="269.4689655172414" y="520.1586206896552"/>
      <point x="282.88620689655176" y="496.8586206896552"/>
      <point x="282.88620689655176" y="460.95862068965516" type="curve" smooth="yes"/>
      <point x="282.88620689655176" y="375.30689655172415"/>
      <point x="197.08965517241379" y="345.02758620689656"/>
      <point x="99.74137931034483" y="342.10689655172416" type="curve"/>
      <point x="138.17931034482757" y="226.2206896551724" type="line"/>
      <point x="254.76896551724138" y="209.3586206896552"/>
      <point x="340.5344827586207" y="138.14137931034486"/>
      <point x="398.51724137931035" y="22.151724137931033" type="curve"/>
    </contour>
  </outline>
</glyph>
<glyph name="ga-beng" format="2">
  <advance width="513.7241379310345"/>
  <unicode hex="0997"/>
  <anchor x="434.0689655172414" y="58.97931034482758" name="bottom"/>
  <anchor x="445.3344827586207" y="-6.310344827586207" name="bottom.rakaar"/>
  <anchor x="445.3344827586207" y="-2.2758620689655173" name="bottom.rvocalic"/>
  <anchor x="421.3724137931035" y="6.551724137931035" name="bottom.virama"/>
  <anchor x="431.28965517241386" y="563.5862068965517" name="top"/>
  <anchor x="413.47241379310344" y="555.3103448275862" name="topright"/>
  <anchor x="256.40344827586205" y="0.0" name="vedic"/>
  <outline>
    <contour>
      <point x="440.448275862069" y="-27.758620689655174" type="line"/>
      <point x="445.3344827586207" y="-26.482758620689655" type="line"/>
      <point x="445.3344827586207" y="564.4827586206897" type="line"/>
      <point x="541.5793103448277" y="564.4827586206897" type="line"/>
      <point x="508.8862068965517" y="622.0" type="line"/>
      <point x="441.496551724138" y="622.0" type="line"/>
      <point x="435.9689655172413" y="668.3103448275862" type="line"/>
      <point x="388.99310344827586" y="702.1379310344828" type="line"/>
      <point x="384.1655172413793" y="700.5862068965517" type="line"/>
      <point x="384.1655172413793" y="580.8103448275863" type="line" smooth="yes"/>
      <point x="384.1655172413793" y="527.5379310344828"/>
      <point x="387.0689655172414" y="478.20344827586206"/>
      <point x="391.5241379310345" y="433.12413793103445" type="curve"/>
      <point x="400.5793103448276" y="432.2413793103448" type="line"/>
      <point x="346.17586206896556" y="572.255172413793"/>
      <point x="276.8551724137931" y="630.3793103448276"/>
      <point x="197.1689655172414" y="630.3793103448276" type="curve" smooth="yes"/>
      <point x="123.84827586206897" y="630.3793103448276"/>
      <point x="49.751724137931035" y="575.9448275862069"/>
      <point x="2.882758620689656" y="439.49310344827586" type="curve"/>
      <point x="88.77241379310345" y="375.82068965517243" type="line"/>
      <point x="112.83103448275861" y="405.8931034482759"/>
      <point x="145.04137931034484" y="424.70344827586206"/>
      <point x="177.52068965517242" y="424.70344827586206" type="curve" smooth="yes"/>
      <point x="209.7344827586207" y="424.70344827586206"/>
      <point x="226.44137931034484" y="404.3724137931034"/>
      <point x="226.44137931034484" y="374.94137931034476" type="curve" smooth="yes"/>
      <point x="226.44137931034484" y="327.72758620689655"/>
      <point x="178.77241379310345" y="291.83448275862065"/>
      <point x="103.13103448275862" y="259.6344827586207" type="curve"/>
      <point x="160.4241379310345" y="164.0344827586207" type="line"/>
      <point x="259.08620689655174" y="223.01034482758618"/>
      <point x="295.7827586206896" y="284.3724137931034"/>
      <point x="295.7827586206896" y="357.951724137931" type="curve" smooth="yes"/>
      <point x="295.7827586206896" y="427.1827586206897"/>
      <point x="255.27586206896552" y="481.07931034482755"/>
      <point x="187.61724137931034" y="481.07931034482755" type="curve" smooth="yes"/>
      <point x="148.8655172413793" y="481.07931034482755"/>
      <point x="118.03103448275861" y="466.9862068965517"/>
      <point x="99.4655172413793" y="449.1758620689655" type="curve"/>
      <point x="114.79655172413794" y="439.3448275862069" type="line"/>
      <point x="134.70689655172413" y="517.2862068965518"/>
      <point x="178.29310344827584" y="549.5275862068966"/>
      <point x="220.3448275862069" y="549.5275862068966" type="curve" smooth="yes"/>
      <point x="277.7379310344827" y="549.5275862068966"/>
      <point x="334.7689655172414" y="502.67931034482757"/>
      <point x="392.9758620689655" y="349.9896551724138" type="curve"/>
      <point x="383.7793103448276" y="415.2551724137931" type="line"/>
      <point x="383.7793103448276" y="2.4482758620689653" type="line"/>
    </contour>
  </outline>
</glyph>
<glyph name="gha-beng" format="2">
  <advance width="450.0344827586207"/>
  <unicode hex="0998"/>
  <anchor x="376.9862068965518" y="31.103448275862068" name="bottom"/>
  <anchor x="377.91379310344826" y="74.6896551724138" name="bottom.rakaar"/>
  <anchor x="381.5344827586207" y="8.924137931034483" name="bottom.rvocalic"/>
  <anchor x="367.88275862068963" y="6.082758620689656" name="bottom.virama"/>
  <anchor x="369.3206896551725" y="573.5862068965517" name="top"/>
  <anchor x="371.344827586207" y="570.2758620689655" name="topright"/>
  <anchor x="224.92068965517242" y="0.0" name="vedic"/>
  <outline>
    <contour>
      <point x="374.9241379310345" y="-16.03448275862069" type="line"/>
      <point x="381.5344827586207" y="-14.758620689655173" type="line"/>
      <point x="381.5344827586207" y="564.4827586206897" type="line"/>
      <point x="477.69655172413786" y="564.4827586206897" type="line"/>
      <point x="445.3034482758621" y="622.0" type="line"/>
      <point x="-27.855172413793102" y="622.0" type="line"/>
      <point x="4.537931034482759" y="564.4827586206897" type="line"/>
      <point x="319.8965517241379" y="564.4827586206897" type="line"/>
      <point x="319.8965517241379" y="79.59655172413794" type="line"/>
      <point x="332.6413793103448" y="82.25862068965519" type="line"/>
      <point x="290.4689655172414" y="201.95172413793105"/>
      <point x="205.15172413793107" y="268.42413793103447"/>
      <point x="104.85517241379311" y="303.3793103448276" type="curve"/>
      <point x="109.98275862068967" y="275.4137931034483" type="line"/>
      <point x="165.55172413793102" y="319.9758620689655"/>
      <point x="228.20689655172413" y="354.92413793103447"/>
      <point x="287.63103448275865" y="387.0413793103448" type="curve"/>
      <point x="245.91724137931035" y="469.17241379310343" type="line"/>
      <point x="221.45172413793102" y="447.8655172413793"/>
      <point x="197.8448275862069" y="439.048275862069"/>
      <point x="174.81034482758622" y="439.048275862069" type="curve" smooth="yes"/>
      <point x="141.0103448275862" y="439.048275862069"/>
      <point x="117.88965517241381" y="461.4724137931035"/>
      <point x="117.88965517241381" y="496.0310344827586" type="curve" smooth="yes"/>
      <point x="117.88965517241381" y="539.5241379310344"/>
      <point x="147.6689655172414" y="564.4827586206897"/>
      <point x="197.12758620689655" y="574.7586206896551" type="curve"/>
      <point x="118.77931034482756" y="612.7793103448275" type="line"/>
      <point x="74.9103448275862" y="604.6827586206897"/>
      <point x="25.262068965517244" y="572.2586206896551"/>
      <point x="25.262068965517244" y="507.1896551724138" type="curve" smooth="yes"/>
      <point x="25.262068965517244" y="438.7241379310345"/>
      <point x="81.9103448275862" y="402.8551724137931"/>
      <point x="144.1551724137931" y="394.92413793103447" type="curve"/>
      <point x="138.55517241379314" y="408.6896551724138" type="line"/>
      <point x="101.32758620689654" y="387.9655172413793"/>
      <point x="63.55517241379311" y="364.88965517241377"/>
      <point x="27.54827586206897" y="338.3034482758621" type="curve"/>
      <point x="76.54482758620689" y="223.61379310344827" type="line"/>
      <point x="187.62413793103448" y="198.23793103448276"/>
      <point x="273.36896551724146" y="132.91724137931035"/>
      <point x="328.8551724137931" y="18.024137931034485" type="curve"/>
    </contour>
  </outline>
</glyph>
<glyph name="nga-beng" format="2">
  <advance width="506.95862068965516"/>
  <unicode hex="0999"/>
  <anchor x="346.78620689655173" y="18.4" name="bottom"/>
  <anchor x="440.1" y="-16.882758620689657" name="bottom.rakaar"/>
  <anchor x="364.2241379310345" y="10.179310344827584" name="bottom.rvocalic"/>
  <anchor x="328.6551724137931" y="0.0" name="bottom.virama"/>
  <anchor x="300.7344827586207" y="573.3931034482758" name="top"/>
  <anchor x="287.8862068965517" y="570.2758620689655" name="topright"/>
  <anchor x="252.97931034482758" y="0.0" name="vedic"/>
  <outline>
    <contour>
      <point x="304.84137931034485" y="27.365517241379308" type="curve" smooth="yes"/>
      <point x="422.2586206896551" y="27.365517241379308"/>
      <point x="486.0310344827586" y="113.18965517241381"/>
      <point x="486.0310344827586" y="245.6241379310345" type="curve" smooth="yes"/>
      <point x="486.0310344827586" y="326.5896551724138"/>
      <point x="455.04827586206903" y="393.1620689655172"/>
      <point x="414.3034482758621" y="441.9551724137931" type="curve"/>
      <point x="378.5551724137932" y="368.2620689655173"/>
      <point x="320.8793103448276" y="312.6896551724138"/>
      <point x="273.1655172413793" y="312.6896551724138" type="curve" smooth="yes"/>
      <point x="256.7827586206896" y="312.6896551724138"/>
      <point x="246.64137931034486" y="322.18275862068964"/>
      <point x="246.64137931034486" y="341.0103448275862" type="curve" smooth="yes"/>
      <point x="246.64137931034486" y="463.5620689655172" type="line" smooth="yes"/>
      <point x="246.64137931034486" y="535.2620689655172"/>
      <point x="264.03448275862064" y="575.5034482758621"/>
      <point x="299.9172413793104" y="575.5034482758621" type="curve" smooth="yes"/>
      <point x="324.60689655172416" y="575.5034482758621"/>
      <point x="340.5586206896552" y="558.3586206896551"/>
      <point x="340.5586206896552" y="530.4344827586208" type="curve" smooth="yes"/>
      <point x="340.5586206896552" y="502.6275862068965"/>
      <point x="327.55172413793105" y="474.53793103448277"/>
      <point x="281.08620689655174" y="474.53793103448277" type="curve" smooth="yes"/>
      <point x="197.42758620689654" y="474.53793103448277"/>
      <point x="167.6896551724138" y="523.3551724137931"/>
      <point x="128.70689655172416" y="621.1137931034482" type="curve"/>
      <point x="88.77241379310344" y="602.551724137931" type="line"/>
      <point x="130.62068965517244" y="491.951724137931"/>
      <point x="177.5448275862069" y="411.6758620689655"/>
      <point x="281.4551724137931" y="411.6758620689655" type="curve" smooth="yes"/>
      <point x="366.04137931034484" y="411.6758620689655"/>
      <point x="395.69310344827585" y="470.32068965517243"/>
      <point x="395.9103448275862" y="520.6206896551724" type="curve" smooth="yes"/>
      <point x="396.1275862068966" y="583.7241379310345"/>
      <point x="362.03103448275857" y="632.551724137931"/>
      <point x="296.34137931034485" y="632.551724137931" type="curve" smooth="yes"/>
      <point x="225.95172413793102" y="632.551724137931"/>
      <point x="185.78275862068966" y="575.3448275862069"/>
      <point x="185.78275862068966" y="481.41379310344826" type="curve" smooth="yes"/>
      <point x="185.78275862068966" y="337.14827586206894" type="line" smooth="yes"/>
      <point x="185.78275862068966" y="299.01724137931035"/>
      <point x="201.45172413793102" y="272.651724137931"/>
      <point x="218.70689655172413" y="255.9965517241379" type="curve" smooth="yes"/>
      <point x="238.251724137931" y="236.64137931034483"/>
      <point x="263.4344827586207" y="227.04137931034484"/>
      <point x="290.95862068965516" y="227.04137931034484" type="curve" smooth="yes"/>
      <point x="345.92413793103447" y="227.04137931034484"/>
      <point x="409.6724137931035" y="275.948275862069"/>
      <point x="443.04482758620696" y="338.8793103448276" type="curve"/>
      <point x="408.45517241379315" y="344.3103448275862" type="line"/>
      <point x="423.95517241379315" y="320.6758620689655"/>
      <point x="434.4068965517241" y="291.5586206896552"/>
      <point x="434.4068965517241" y="256.00000000000006" type="curve" smooth="yes"/>
      <point x="434.4068965517241" y="172.26206896551724"/>
      <point x="383.6206896551724" y="123.87931034482759"/>
      <point x="301.07586206896553" y="123.87931034482759" type="curve" smooth="yes"/>
      <point x="173.6103448275862" y="123.87931034482759"/>
      <point x="108.0103448275862" y="228.84827586206896"/>
      <point x="52.87586206896552" y="492.55172413793105" type="curve"/>
      <point x="10.562068965517241" y="482.6448275862069" type="line"/>
      <point x="62.420689655172424" y="169.94137931034481"/>
      <point x="149.16206896551725" y="27.365517241379308"/>
    </contour>
  </outline>
</glyph>
<glyph name="ca-beng" format="2">
  <advance width="419.2241379310345"/>
  <unicode hex="099A"/>
  <anchor x="284.80689655172415" y="23.655172413793103" name="bottom"/>
  <anchor x="338.15862068965515" y="0.0" name="bottom.rakaar"/>
  <anchor x="290.14137931034486" y="18.744827586206895" name="bottom.rvocalic"/>
  <anchor x="226.48620689655172" y="33.51724137931034" name="bottom.virama"/>
  <anchor x="118.2" y="573.5862068965517" name="top"/>
  <anchor x="119.71724137931035" y="570.2758620689655" name="topright"/>
  <anchor x="209.26206896551722" y="0.0" name="vedic"/>
  <outline>
    <contour>
      <point x="187.10689655172413" y="24.103448275862068" type="curve" smooth="yes"/>
      <point x="313.3724137931034" y="24.103448275862068"/>
      <point x="387.20344827586206" y="208.54137931034484"/>
      <point x="387.20344827586206" y="317.3103448275862" type="curve" smooth="yes"/>
      <point x="387.20344827586206" y="362.0827586206897"/>
      <point x="351.61379310344824" y="393.7586206896552"/>
      <point x="329.99655172413793" y="406.3103448275862" type="curve"/>
      <point x="261.7724137931035" y="414.2068965517241"/>
      <point x="172.92758620689656" y="452.73448275862074"/>
      <point x="125.3448275862069" y="560.5172413793103" type="curve"/>
      <point x="124.58620689655172" y="486.648275862069" type="line"/>
      <point x="155.75172413793103" y="395.78620689655173"/>
      <point x="225.21724137931034" y="333.4137931034483"/>
      <point x="326.67241379310343" y="321.7827586206896" type="curve"/>
      <point x="301.24827586206897" y="348.66896551724136" type="line"/>
      <point x="294.26206896551724" y="208.2551724137931"/>
      <point x="230.3241379310345" y="97.09310344827587"/>
      <point x="173.17241379310343" y="97.09310344827587" type="curve" smooth="yes"/>
      <point x="147.1206896551724" y="97.09310344827587"/>
      <point x="130.1379310344828" y="112.15172413793104"/>
      <point x="130.1379310344828" y="146.5448275862069" type="curve" smooth="yes"/>
      <point x="130.1379310344828" y="564.4827586206897" type="line"/>
      <point x="447.0793103448276" y="564.4827586206897" type="line"/>
      <point x="414.9620689655173" y="622.0" type="line"/>
      <point x="-27.855172413793102" y="622.0" type="line"/>
      <point x="6.0310344827586215" y="564.4827586206897" type="line"/>
      <point x="68.58275862068966" y="564.4827586206897" type="line"/>
      <point x="68.58275862068966" y="145.38620689655173" type="line" smooth="yes"/>
      <point x="68.58275862068966" y="70.61724137931034"/>
      <point x="122.66551724137932" y="24.103448275862068"/>
    </contour>
  </outline>
</glyph>
<glyph name="cha-beng" format="2">
  <advance width="461.2448275862069"/>
  <unicode hex="099B"/>
  <anchor x="275.44137931034487" y="41.9448275862069" name="bottom"/>
  <anchor x="380.1896551724138" y="-106.85517241379311" name="bottom.rakaar"/>
  <anchor x="335.7068965517242" y="37.179310344827584" name="bottom.rvocalic"/>
  <anchor x="265.7655172413793" y="39.11034482758621" name="bottom.virama"/>
  <anchor x="97.07931034482759" y="573.5862068965517" name="top"/>
  <anchor x="98.59655172413794" y="570.2758620689655" name="topright"/>
  <anchor x="230.47241379310347" y="0.0" name="vedic"/>
  <outline>
    <contour>
      <point x="439.44827586206895" y="-99.22758620689655" type="curve"/>
      <point x="468.75862068965523" y="-64.02068965517242" type="line"/>
      <point x="393.9862068965517" y="21.0"/>
      <point x="297.5586206896552" y="112.72413793103448"/>
      <point x="201.08620689655174" y="139.1344827586207" type="curve"/>
      <point x="171.69310344827588" y="113.14482758620689" type="line"/>
      <point x="186.84827586206896" y="105.95862068965516"/>
      <point x="209.00344827586207" y="104.32413793103449"/>
      <point x="231.80689655172415" y="104.32413793103449" type="curve" smooth="yes"/>
      <point x="334.1586206896552" y="104.32413793103449"/>
      <point x="418.85172413793106" y="170.50689655172414"/>
      <point x="418.85172413793106" y="305.55862068965513" type="curve" smooth="yes"/>
      <point x="418.85172413793106" y="417.25172413793103"/>
      <point x="343.1" y="491.9068965517241"/>
      <point x="249.87931034482756" y="491.9068965517241" type="curve" smooth="yes"/>
      <point x="182.74137931034483" y="491.9068965517241"/>
      <point x="135.32758620689654" y="509.62068965517244"/>
      <point x="105.55172413793103" y="564.7586206896551" type="curve"/>
      <point x="102.27586206896551" y="519.6551724137931" type="line"/>
      <point x="128.06206896551726" y="461.1034482758621"/>
      <point x="181.80689655172415" y="423.31034482758616"/>
      <point x="232.47931034482758" y="420.4137931034483" type="curve"/>
      <point x="209.86896551724138" y="457.2413793103448" type="line"/>
      <point x="206.20344827586206" y="366.0"/>
      <point x="177.22068965517244" y="306.1827586206896"/>
      <point x="141.55862068965519" y="306.1827586206896" type="curve" smooth="yes"/>
      <point x="121.55862068965519" y="306.1827586206896"/>
      <point x="110.85172413793103" y="320.41379310344826"/>
      <point x="110.85172413793103" y="341.7448275862069" type="curve" smooth="yes"/>
      <point x="110.85172413793103" y="564.4827586206897" type="line"/>
      <point x="489.09999999999997" y="564.4827586206897" type="line"/>
      <point x="455.7310344827586" y="622.0" type="line"/>
      <point x="-27.855172413793102" y="622.0" type="line"/>
      <point x="4.537931034482759" y="564.4827586206897" type="line"/>
      <point x="49.87586206896552" y="564.4827586206897" type="line"/>
      <point x="49.87586206896552" y="342.2241379310344" type="line" smooth="yes"/>
      <point x="49.87586206896552" y="287.5"/>
      <point x="93.95862068965518" y="236.82758620689654"/>
      <point x="156.51724137931035" y="236.82758620689654" type="curve" smooth="yes"/>
      <point x="226.61724137931037" y="236.82758620689654"/>
      <point x="283.6793103448276" y="293.6206896551724"/>
      <point x="300.50689655172414" y="460.6551724137931" type="curve"/>
      <point x="264.6379310344828" y="433.82068965517243" type="line"/>
      <point x="305.40000000000003" y="433.3137931034483"/>
      <point x="353.2551724137931" y="405.9862068965517"/>
      <point x="353.2551724137931" y="321.25172413793103" type="curve" smooth="yes"/>
      <point x="353.2551724137931" y="233.13793103448276"/>
      <point x="297.2275862068965" y="185.26206896551724"/>
      <point x="199.73793103448276" y="185.26206896551724" type="curve" smooth="yes"/>
      <point x="150.91724137931033" y="185.26206896551724"/>
      <point x="109.05517241379312" y="194.10689655172413"/>
      <point x="73.53793103448275" y="212.8310344827586" type="curve"/>
      <point x="96.46206896551723" y="102.55862068965517" type="line"/>
      <point x="221.4206896551724" y="77.03793103448277"/>
      <point x="313.6655172413793" y="25.113793103448277"/>
    </contour>
  </outline>
</glyph>
<glyph name="ja-beng" format="2">
  <advance width="668.5000000000001"/>
  <unicode hex="099C"/>
  <anchor x="589.2" y="78.75172413793103" name="bottom"/>
  <anchor x="601.0172413793105" y="66.27586206896552" name="bottom.rakaar"/>
  <anchor x="599.9689655172415" y="2.1379310344827562" name="bottom.rvocalic"/>
  <anchor x="585.6482758620689" y="-7.66896551724138" name="bottom.virama"/>
  <anchor x="366.2344827586207" y="573.3931034482758" name="top"/>
  <anchor x="367.66896551724136" y="570.2758620689655" name="topright"/>
  <anchor x="334.04482758620685" y="0.0" name="vedic"/>
  <outline>
    <contour>
      <point x="291.648275862069" y="39.01379310344827" type="curve" smooth="yes"/>
      <point x="407.8379310344827" y="39.01379310344827"/>
      <point x="457.8137931034483" y="124.86551724137932"/>
      <point x="457.8137931034483" y="239.12758620689655" type="curve" smooth="yes"/>
      <point x="457.8137931034483" y="315.1275862068966"/>
      <point x="431.2" y="377.44827586206895"/>
      <point x="385.8931034482759" y="425.9862068965517" type="curve"/>
      <point x="353.8448275862069" y="364.6655172413793"/>
      <point x="314.0103448275862" y="327.2517241379311"/>
      <point x="274.8689655172414" y="327.2517241379311" type="curve" smooth="yes"/>
      <point x="244.33103448275864" y="327.2517241379311"/>
      <point x="222.87586206896555" y="347.93103448275866"/>
      <point x="222.87586206896555" y="385.9172413793104" type="curve" smooth="yes"/>
      <point x="222.87586206896555" y="451.6275862068966"/>
      <point x="298.2068965517241" y="516.448275862069"/>
      <point x="393.0310344827587" y="564.4827586206897" type="curve"/>
      <point x="696.3551724137932" y="564.4827586206897" type="line"/>
      <point x="664.0448275862069" y="622.0" type="line"/>
      <point x="-27.855172413793102" y="622.0" type="line"/>
      <point x="4.537931034482759" y="564.4827586206897" type="line"/>
      <point x="282.8379310344828" y="564.4827586206897" type="line"/>
      <point x="267.94482758620694" y="582.448275862069" type="line"/>
      <point x="210.01724137931035" y="543.0275862068964"/>
      <point x="155.51379310344828" y="474.3103448275862"/>
      <point x="155.51379310344828" y="400.7896551724138" type="curve" smooth="yes"/>
      <point x="155.51379310344828" y="307.64827586206894"/>
      <point x="214.88275862068966" y="241.38620689655173"/>
      <point x="285.4931034482759" y="241.38620689655173" type="curve" smooth="yes"/>
      <point x="342.44482758620694" y="241.38620689655173"/>
      <point x="392.16896551724136" y="283.42758620689654"/>
      <point x="424.97586206896557" y="339.351724137931" type="curve"/>
      <point x="385.40344827586205" y="338.0896551724138" type="line"/>
      <point x="398.9137931034483" y="316.4551724137931"/>
      <point x="409.148275862069" y="289.06896551724134"/>
      <point x="409.148275862069" y="252.64827586206894" type="curve" smooth="yes"/>
      <point x="409.148275862069" y="184.02413793103452"/>
      <point x="368.7793103448276" y="135.9655172413793"/>
      <point x="289.6896551724138" y="135.9655172413793" type="curve" smooth="yes"/>
      <point x="172.45862068965516" y="135.9655172413793"/>
      <point x="99.57586206896552" y="241.4103448275862"/>
      <point x="59.6344827586207" y="485.9793103448276" type="curve"/>
      <point x="15.7" y="477.2413793103448" type="line"/>
      <point x="58.082758620689646" y="171.23103448275862"/>
      <point x="148.1310344827586" y="39.01379310344827"/>
    </contour>
    <contour>
      <point x="558.4689655172414" y="-23.758620689655174" type="curve"/>
      <point x="599.9689655172415" y="-8.634482758620692" type="line"/>
      <point x="581.1" y="54.54137931034483"/>
      <point x="573.144827586207" y="112.66206896551724"/>
      <point x="573.144827586207" y="173.3551724137931" type="curve" smooth="yes"/>
      <point x="573.144827586207" y="254.3793103448276"/>
      <point x="594.1310344827587" y="332.50344827586207"/>
      <point x="639.4172413793103" y="391.58620689655174" type="curve"/>
      <point x="591.7241379310345" y="465.37931034482756" type="line"/>
      <point x="490.7068965517242" y="465.7103448275862"/>
      <point x="428.9931034482758" y="497.6344827586207"/>
      <point x="392.89310344827584" y="597.7379310344828" type="curve"/>
      <point x="356.37931034482756" y="558.4137931034483" type="line"/>
      <point x="396.4586206896552" y="441.6413793103448"/>
      <point x="482.09655172413795" y="393.0275862068965"/>
      <point x="561.7344827586207" y="378.1655172413793" type="curve"/>
      <point x="547.8689655172413" y="411.4448275862069" type="line"/>
      <point x="523.8896551724138" y="350.09655172413795"/>
      <point x="512.0724137931035" y="281.4103448275862"/>
      <point x="512.0724137931035" y="209.94137931034484" type="curve" smooth="yes"/>
      <point x="512.0724137931035" y="125.66206896551724"/>
      <point x="530.6413793103449" y="49.61724137931034"/>
    </contour>
  </outline>
</glyph>
<glyph name="jha-beng" format="2">
  <advance width="575.1931034482758"/>
  <unicode hex="099D"/>
  <anchor x="368.76206896551724" y="31.103448275862068" name="bottom"/>
  <anchor x="369.6896551724138" y="74.60689655172413" name="bottom.rakaar"/>
  <anchor x="373.3103448275862" y="8.841379310344829" name="bottom.rvocalic"/>
  <anchor x="359.9896551724138" y="9.365517241379312" name="bottom.virama"/>
  <anchor x="355.17931034482757" y="573.5862068965517" name="top"/>
  <anchor x="408.3241379310345" y="573.5862068965517" name="topleft"/>
  <anchor x="357.1206896551724" y="570.2758620689655" name="topright"/>
  <anchor x="287.5" y="0.0" name="vedic"/>
  <outline>
    <contour>
      <point x="366.7" y="-16.03448275862069" type="line"/>
      <point x="373.3103448275862" y="-14.758620689655173" type="line"/>
      <point x="373.3103448275862" y="622.0" type="line"/>
      <point x="-27.855172413793102" y="622.0" type="line"/>
      <point x="4.537931034482759" y="564.4827586206897" type="line"/>
      <point x="311.67241379310343" y="564.4827586206897" type="line"/>
      <point x="311.67241379310343" y="492.40000000000003" type="line"/>
      <point x="318.7758620689655" y="520.1241379310345" type="line"/>
      <point x="208.97586206896554" y="475.19310344827585"/>
      <point x="111.55172413793103" y="419.2551724137931"/>
      <point x="14.413793103448274" y="345.0137931034483" type="curve"/>
      <point x="67.98965517241379" y="226.06206896551723" type="line"/>
      <point x="180.4896551724138" y="200.0551724137931"/>
      <point x="264.6793103448276" y="133.0"/>
      <point x="320.6310344827586" y="18.106896551724137" type="curve"/>
    </contour>
    <contour>
      <point x="311.67241379310343" y="80.01034482758621" type="line"/>
      <point x="324.4172413793104" y="83.00344827586208" type="line"/>
      <point x="278.88275862068963" y="209.33793103448278"/>
      <point x="184.71034482758623" y="278.23103448275856"/>
      <point x="100.02413793103449" y="305.49655172413793" type="curve"/>
      <point x="107.10689655172415" y="286.80689655172415" type="line"/>
      <point x="170.6344827586207" y="343.3034482758621"/>
      <point x="252.95517241379312" y="385.47241379310344"/>
      <point x="322.63793103448273" y="416.4241379310345" type="curve"/>
      <point x="311.67241379310343" y="442.68965517241384" type="line"/>
    </contour>
    <contour>
      <point x="500.7931034482758" y="78.45862068965516" type="line"/>
      <point x="506.88620689655176" y="79.73448275862069" type="line"/>
      <point x="506.88620689655176" y="564.4827586206897" type="line"/>
      <point x="603.048275862069" y="564.4827586206897" type="line"/>
      <point x="570.4379310344827" y="622.0" type="line"/>
      <point x="503.048275862069" y="622.0" type="line"/>
      <point x="497.4379310344828" y="668.3103448275862" type="line"/>
      <point x="450.4620689655173" y="702.1379310344828" type="line"/>
      <point x="445.6344827586208" y="700.5862068965517" type="line"/>
      <point x="445.6344827586208" y="174.69655172413792" type="line"/>
      <point x="458.3793103448276" y="177.16551724137932" type="line"/>
      <point x="433.1" y="250.0241379310345"/>
      <point x="392.56206896551726" y="302.61034482758623"/>
      <point x="345.50689655172414" y="340.2793103448276" type="curve"/>
      <point x="339.7896551724138" y="257.73793103448276" type="line"/>
      <point x="387.4" y="224.13103448275862"/>
      <point x="424.2448275862069" y="175.71034482758623"/>
      <point x="454.51034482758627" y="112.60000000000001" type="curve"/>
    </contour>
  </outline>
</glyph>
<glyph name="nya-beng" format="2">
  <advance width="788.5586206896552"/>
  <unicode hex="099E"/>
  <anchor x="484.06551724137927" y="29.724137931034484" name="bottom"/>
  <anchor x="530.796551724138" y="73.3103448275862" name="bottom.rakaar"/>
  <anchor x="488.6137931034483" y="6.593103448275862" name="bottom.rvocalic"/>
  <anchor x="474.96206896551723" y="6.827586206896552" name="bottom.virama"/>
  <anchor x="407.40000000000003" y="573.3931034482758" name="top"/>
  <anchor x="409.2310344827586" y="570.2758620689655" name="topright"/>
  <anchor x="394.2793103448276" y="0.0" name="vedic"/>
  <outline>
    <contour>
      <point x="622.2206896551724" y="45.28275862068965" type="curve" smooth="yes"/>
      <point x="695.196551724138" y="45.28275862068965"/>
      <point x="735.1689655172413" y="113.1103448275862"/>
      <point x="735.1689655172413" y="199.28275862068966" type="curve" smooth="yes"/>
      <point x="735.1689655172413" y="250.851724137931"/>
      <point x="719.0827586206897" y="303.40000000000003"/>
      <point x="679.8724137931035" y="341.9517241379311" type="curve"/>
      <point x="691.5862068965516" y="299.29655172413794" type="line"/>
      <point x="716.3724137931033" y="330.33448275862065"/>
      <point x="733.6517241379311" y="384.05862068965513"/>
      <point x="733.6517241379311" y="441.2275862068966" type="curve" smooth="yes"/>
      <point x="733.6517241379311" y="525.7344827586206"/>
      <point x="693.451724137931" y="594.6206896551724"/>
      <point x="628.2896551724137" y="594.6206896551724" type="curve" smooth="yes"/>
      <point x="535.9862068965518" y="594.6206896551724"/>
      <point x="472.8586206896552" y="452.43448275862073"/>
      <point x="465.98275862068965" y="374.2275862068966" type="curve"/>
      <point x="465.98275862068965" y="271.1241379310345" type="line"/>
      <point x="479.92758620689654" y="154.36551724137934"/>
      <point x="543.5862068965517" y="45.28275862068965"/>
    </contour>
    <contour>
      <point x="617.6344827586207" y="134.36551724137934" type="curve" smooth="yes"/>
      <point x="554.0793103448275" y="134.36551724137934"/>
      <point x="496.5965517241379" y="218.7551724137931"/>
      <point x="496.5965517241379" y="316.75862068965523" type="curve" smooth="yes"/>
      <point x="496.5965517241379" y="400.58620689655174"/>
      <point x="547.8034482758621" y="511.1103448275862"/>
      <point x="623.4620689655172" y="511.1103448275862" type="curve" smooth="yes"/>
      <point x="656.3689655172415" y="511.1103448275862"/>
      <point x="678.0620689655173" y="492.55172413793105"/>
      <point x="678.0620689655173" y="454.1241379310345" type="curve" smooth="yes"/>
      <point x="678.0620689655173" y="408.1344827586207"/>
      <point x="652.6655172413792" y="374.43448275862073"/>
      <point x="620.5206896551725" y="357.71034482758625" type="curve"/>
      <point x="665.8241379310346" y="347.26206896551724" type="line"/>
      <point x="649.6379310344828" y="377.0551724137931"/>
      <point x="626.7137931034483" y="387.26206896551724"/>
      <point x="602.6206896551724" y="387.26206896551724" type="curve" smooth="yes"/>
      <point x="567.1551724137931" y="387.26206896551724"/>
      <point x="543.1172413793104" y="359.9068965517242"/>
      <point x="543.1172413793104" y="318.67586206896556" type="curve" smooth="yes"/>
      <point x="543.1172413793104" y="273.0206896551724"/>
      <point x="570.2137931034483" y="247.55862068965519"/>
      <point x="606.3896551724138" y="247.55862068965519" type="curve" smooth="yes"/>
      <point x="639.5206896551723" y="247.55862068965519"/>
      <point x="662.8103448275862" y="264.5586206896552"/>
      <point x="682.3896551724138" y="292.9172413793104" type="curve"/>
      <point x="648.6034482758621" y="308.9517241379311" type="line"/>
      <point x="665.8379310344828" y="291.67586206896556"/>
      <point x="685.9241379310345" y="261.1379310344828"/>
      <point x="685.9241379310345" y="220.33103448275864" type="curve" smooth="yes"/>
      <point x="685.9241379310345" y="166.71034482758623"/>
      <point x="661.1379310344828" y="134.36551724137934"/>
    </contour>
    <component base="e-beng"/>
  </outline>
</glyph>
<glyph name="tta-beng" format="2">
  <advance width="435.1551724137931"/>
  <unicode hex="099F"/>
  <anchor x="290.8137931034483" y="23.655172413793103" name="bottom"/>
  <anchor x="344.0" y="1.2517241379310347" name="bottom.rakaar"/>
  <anchor x="295.7241379310345" y="23.68965517241379" name="bottom.rvocalic"/>
  <anchor x="232.32758620689654" y="34.76896551724138" name="bottom.virama"/>
  <anchor x="230.82068965517246" y="654.6620689655173" name="top"/>
  <anchor x="171.28275862068966" y="642.5413793103448" name="topright"/>
  <anchor x="217.4689655172414" y="0.0" name="vedic"/>
  <anchor x="194.14827586206897" y="-79.72413793103448" name="nukta"/>
  <outline>
    <contour>
      <point x="322.7103448275862" y="608.1379310344828" type="curve"/>
      <point x="367.9379310344828" y="608.1379310344828" type="line"/>
      <point x="364.01034482758615" y="740.8827586206897"/>
      <point x="324.451724137931" y="804.7448275862068"/>
      <point x="242.6034482758621" y="804.7448275862068" type="curve" smooth="yes"/>
      <point x="201.78275862068963" y="804.7448275862068"/>
      <point x="171.60000000000002" y="795.551724137931"/>
      <point x="130.49999999999997" y="795.551724137931" type="curve" smooth="yes"/>
      <point x="75.81724137931036" y="795.551724137931"/>
      <point x="48.30689655172414" y="814.351724137931"/>
      <point x="48.30689655172414" y="877.7482758620689" type="curve" smooth="yes"/>
      <point x="48.30689655172414" y="890.9551724137931"/>
      <point x="49.30689655172414" y="905.5103448275862"/>
      <point x="51.08965517241379" y="916.2448275862068" type="curve"/>
      <point x="10.831034482758618" y="920.7137931034482" type="line"/>
      <point x="7.49655172413793" y="900.9448275862068"/>
      <point x="5.9206896551724135" y="877.7827586206897"/>
      <point x="5.9206896551724135" y="860.0586206896552" type="curve" smooth="yes"/>
      <point x="5.9206896551724135" y="763.2034482758621"/>
      <point x="46.15172413793103" y="706.9862068965517"/>
      <point x="133.38275862068966" y="706.9862068965517" type="curve" smooth="yes"/>
      <point x="184.90689655172417" y="706.9862068965517"/>
      <point x="214.18275862068967" y="717.0689655172413"/>
      <point x="252.01724137931035" y="717.0689655172413" type="curve" smooth="yes"/>
      <point x="295.6896551724138" y="717.0689655172413"/>
      <point x="320.7793103448276" y="686.7793103448275"/>
    </contour>
    <component base="ddha-beng"/>
  </outline>
</glyph>
<glyph name="ttha-beng" format="2">
  <advance width="452.4"/>
  <unicode hex="09A0"/>
  <anchor x="272.5655172413793" y="-8.000000000000002" name="bottom"/>
  <anchor x="385.4310344827586" y="-34.793103448275865" name="bottom.rakaar"/>
  <anchor x="315.6620689655173" y="-9.103448275862071" name="bottom.rvocalic"/>
  <anchor x="270.9931034482759" y="-3.3103448275862073" name="bottom.virama"/>
  <anchor x="364.3931034482759" y="554.5724137931035" name="top"/>
  <anchor x="362.57241379310346" y="610.2379310344827" name="topleft"/>
  <anchor x="268.8068965517241" y="570.2758620689655" name="topright"/>
  <anchor x="225.83793103448272" y="0.0" name="vedic"/>
  <outline>
    <contour>
      <point x="230.27241379310345" y="-4.379310344827587" type="curve" smooth="yes"/>
      <point x="339.51724137931035" y="-4.379310344827587"/>
      <point x="407.4517241379311" y="74.73103448275862"/>
      <point x="407.4517241379311" y="206.58275862068965" type="curve" smooth="yes"/>
      <point x="407.4517241379311" y="328.84827586206893"/>
      <point x="341.14482758620693" y="447.2896551724138"/>
      <point x="254.30344827586202" y="564.4827586206897" type="curve"/>
      <point x="480.25517241379316" y="564.4827586206897" type="line"/>
      <point x="448.58620689655174" y="622.0" type="line"/>
      <point x="204.9586206896552" y="622.0" type="line"/>
      <point x="174.82758620689654" y="659.448275862069"/>
      <point x="153.46551724137933" y="699.351724137931"/>
      <point x="153.46551724137933" y="737.9137931034483" type="curve" smooth="yes"/>
      <point x="153.46551724137933" y="775.5034482758621"/>
      <point x="176.39310344827584" y="804.7931034482758"/>
      <point x="215.76206896551724" y="834.1379310344828" type="curve"/>
      <point x="150.42758620689656" y="900.1724137931035" type="line"/>
      <point x="98.22068965517241" y="859.8275862068965"/>
      <point x="76.78275862068966" y="816.8379310344827"/>
      <point x="76.78275862068966" y="773.2413793103449" type="curve" smooth="yes"/>
      <point x="76.78275862068966" y="711.7586206896552"/>
      <point x="111.67586206896553" y="665.7241379310345"/>
      <point x="146.15172413793104" y="622.0" type="curve"/>
      <point x="-27.855172413793102" y="622.0" type="line"/>
      <point x="4.537931034482759" y="564.4827586206897" type="line"/>
      <point x="173.3206896551724" y="564.4827586206897" type="line"/>
      <point x="184.42758620689654" y="531.8551724137932"/>
      <point x="190.96896551724137" y="496.76551724137926"/>
      <point x="190.96896551724137" y="456.2758620689655" type="curve" smooth="yes"/>
      <point x="190.96896551724137" y="349.5931034482758"/>
      <point x="139.39655172413794" y="272.2586206896552"/>
      <point x="22.06206896551724" y="241.7206896551724" type="curve"/>
      <point x="39.217241379310344" y="77.58275862068965"/>
      <point x="116.3344827586207" y="-4.379310344827587"/>
    </contour>
    <contour>
      <point x="216.94137931034481" y="64.8103448275862" type="curve" smooth="yes"/>
      <point x="158.3103448275862" y="64.8103448275862"/>
      <point x="116.52413793103447" y="116.12758620689655"/>
      <point x="115.12413793103447" y="192.99310344827586" type="curve"/>
      <point x="103.34827586206896" y="161.7448275862069" type="line"/>
      <point x="203.6137931034483" y="194.46896551724137"/>
      <point x="250.11034482758618" y="278.8448275862069"/>
      <point x="250.11034482758618" y="379.5724137931034" type="curve" smooth="yes"/>
      <point x="250.11034482758618" y="459.72413793103453"/>
      <point x="231.82068965517243" y="520.0"/>
      <point x="205.59655172413795" y="577.2758620689655" type="curve"/>
      <point x="197.18275862068964" y="577.2758620689655" type="line"/>
      <point x="284.85517241379307" y="451.57241379310346"/>
      <point x="323.04482758620685" y="340.89655172413796"/>
      <point x="323.04482758620685" y="225.29655172413794" type="curve" smooth="yes"/>
      <point x="323.04482758620685" y="122.26551724137931"/>
      <point x="280.9068965517241" y="64.8103448275862"/>
    </contour>
  </outline>
</glyph>
<glyph name="dda-beng" format="2">
  <advance width="507.2931034482759"/>
  <unicode hex="09A1"/>
  <anchor x="358.67931034482757" y="24.344827586206897" name="bottom"/>
  <anchor x="435.78620689655173" y="-6.827586206896552" name="bottom.rakaar"/>
  <anchor x="362.3379310344828" y="34.86206896551724" name="bottom.rvocalic"/>
  <anchor x="324.34137931034485" y="9.86206896551724" name="bottom.virama"/>
  <anchor x="272.2758620689655" y="-74.6896551724138" name="nukta"/>
  <anchor x="238.64827586206894" y="573.5862068965517" name="top"/>
  <anchor x="240.58965517241379" y="570.2758620689655" name="topright"/>
  <anchor x="253.39310344827587" y="0.0" name="vedic"/>
  <outline>
    <contour>
      <point x="297.80689655172415" y="37.58620689655172" type="curve" smooth="yes"/>
      <point x="420.5689655172414" y="37.58620689655172"/>
      <point x="482.4931034482759" y="131.27241379310342"/>
      <point x="482.4931034482759" y="256.8137931034483" type="curve" smooth="yes"/>
      <point x="482.4931034482759" y="355.9827586206897"/>
      <point x="446.5896551724138" y="424.7379310344828"/>
      <point x="396.8344827586207" y="472.39310344827584" type="curve"/>
      <point x="364.1689655172414" y="404.1724137931035"/>
      <point x="316.03793103448277" y="353.4655172413793"/>
      <point x="276.5241379310345" y="353.4655172413793" type="curve" smooth="yes"/>
      <point x="261.28965517241386" y="353.4655172413793"/>
      <point x="250.58620689655172" y="362.8310344827586"/>
      <point x="250.58620689655172" y="382.01724137931035" type="curve" smooth="yes"/>
      <point x="250.58620689655172" y="564.4827586206897" type="line"/>
      <point x="535.148275862069" y="564.4827586206897" type="line"/>
      <point x="501.7793103448276" y="622.0" type="line"/>
      <point x="-27.855172413793102" y="622.0" type="line"/>
      <point x="4.813793103448275" y="564.4827586206897" type="line"/>
      <point x="188.94827586206898" y="564.4827586206897" type="line"/>
      <point x="188.94827586206898" y="379.4758620689655" type="line" smooth="yes"/>
      <point x="188.94827586206898" y="343.87931034482756"/>
      <point x="197.92413793103447" y="317.4034482758621"/>
      <point x="219.12068965517244" y="296.5310344827586" type="curve" smooth="yes"/>
      <point x="238.35172413793103" y="277.4068965517242"/>
      <point x="262.3" y="266.9689655172414"/>
      <point x="291.148275862069" y="266.9689655172414" type="curve" smooth="yes"/>
      <point x="344.9655172413793" y="266.9689655172414"/>
      <point x="402.97241379310344" y="313.6275862068966"/>
      <point x="439.0965517241379" y="382.28275862068966" type="curve"/>
      <point x="396.5206896551724" y="364.9689655172414" type="line"/>
      <point x="416.77931034482754" y="346.6103448275862"/>
      <point x="429.75172413793103" y="319.35862068965514"/>
      <point x="429.75172413793103" y="275.73793103448276" type="curve" smooth="yes"/>
      <point x="429.75172413793103" y="191.80689655172412"/>
      <point x="379.61034482758623" y="135.1448275862069"/>
      <point x="298.13448275862066" y="135.1448275862069" type="curve" smooth="yes"/>
      <point x="163.8931034482759" y="135.1448275862069"/>
      <point x="100.24137931034484" y="247.58620689655172"/>
      <point x="57.35172413793104" y="485.59655172413795" type="curve"/>
      <point x="13.351724137931035" y="477.2413793103448" type="line"/>
      <point x="55.7103448275862" y="173.9758620689655"/>
      <point x="145.76206896551724" y="37.58620689655172"/>
    </contour>
  </outline>
</glyph>
<glyph name="ddha-beng" format="2">
  <advance width="435.1551724137931"/>
  <unicode hex="09A2"/>
  <anchor x="290.9793103448276" y="23.655172413793103" name="bottom"/>
  <anchor x="344.0" y="1.2517241379310347" name="bottom.rakaar"/>
  <anchor x="295.28965517241386" y="23.172413793103452" name="bottom.rvocalic"/>
  <anchor x="232.32758620689654" y="34.76896551724138" name="bottom.virama"/>
  <anchor x="194.14827586206897" y="-79.72413793103448" name="nukta"/>
  <anchor x="124.04137931034482" y="573.5862068965517" name="top"/>
  <anchor x="125.55862068965517" y="570.2758620689655" name="topright"/>
  <anchor x="217.4689655172414" y="0.0" name="vedic"/>
  <outline>
    <contour>
      <point x="188.3137931034483" y="25.355172413793102" type="curve" smooth="yes"/>
      <point x="307.3793103448276" y="25.355172413793102"/>
      <point x="399.9586206896552" y="200.17241379310346"/>
      <point x="399.9586206896552" y="328.13793103448273" type="curve" smooth="yes"/>
      <point x="399.9586206896552" y="420.4137931034483"/>
      <point x="354.78620689655173" y="457.82758620689657"/>
      <point x="303.9068965517241" y="457.82758620689657" type="curve" smooth="yes"/>
      <point x="248.53103448275863" y="457.82758620689657"/>
      <point x="217.3793103448276" y="416.53448275862064"/>
      <point x="217.3793103448276" y="369.1965517241379" type="curve" smooth="yes"/>
      <point x="217.3793103448276" y="320.69310344827585"/>
      <point x="246.97241379310347" y="284.74827586206897"/>
      <point x="296.3896551724138" y="284.74827586206897" type="curve" smooth="yes"/>
      <point x="318.3931034482759" y="284.74827586206897"/>
      <point x="334.3034482758621" y="297.2413793103449"/>
      <point x="346.4758620689655" y="314.40344827586205" type="curve"/>
      <point x="314.6206896551724" y="342.13793103448273" type="line"/>
      <point x="309.7413793103448" y="219.92758620689656"/>
      <point x="236.48965517241382" y="98.12758620689657"/>
      <point x="173.5137931034483" y="98.12758620689657" type="curve" smooth="yes"/>
      <point x="145.4896551724138" y="98.12758620689657"/>
      <point x="130.1379310344828" y="115.12758620689655"/>
      <point x="130.1379310344828" y="150.02758620689656" type="curve" smooth="yes"/>
      <point x="130.1379310344828" y="564.4827586206897" type="line"/>
      <point x="463.01034482758627" y="564.4827586206897" type="line"/>
      <point x="431.08620689655174" y="622.0" type="line"/>
      <point x="-27.855172413793102" y="622.0" type="line"/>
      <point x="6.0310344827586215" y="564.4827586206897" type="line"/>
      <point x="68.58275862068966" y="564.4827586206897" type="line"/>
      <point x="68.58275862068966" y="147.42068965517242" type="line" smooth="yes"/>
      <point x="68.58275862068966" y="70.77241379310345"/>
      <point x="123.36551724137932" y="25.355172413793102"/>
    </contour>
  </outline>
</glyph>
<glyph name="nna-beng" format="2">
  <advance width="493.2068965517241"/>
  <unicode hex="09A3"/>
  <anchor x="413.35862068965514" y="58.97931034482758" name="bottom"/>
  <anchor x="424.6241379310345" y="-6.310344827586207" name="bottom.rakaar"/>
  <anchor x="424.6241379310345" y="-2.2758620689655173" name="bottom.rvocalic"/>
  <anchor x="400.6620689655172" y="6.551724137931035" name="bottom.virama"/>
  <anchor x="410.77241379310345" y="563.5862068965517" name="top"/>
  <anchor x="392.76206896551724" y="555.3103448275862" name="topright"/>
  <anchor x="246.10344827586206" y="0.0" name="vedic"/>
  <outline>
    <contour>
      <point x="419.73793103448276" y="-27.758620689655174" type="line"/>
      <point x="424.6241379310345" y="-26.482758620689655" type="line"/>
      <point x="424.6241379310345" y="564.4827586206897" type="line"/>
      <point x="521.0620689655173" y="564.4827586206897" type="line"/>
      <point x="488.17586206896556" y="622.0" type="line"/>
      <point x="420.78620689655173" y="622.0" type="line"/>
      <point x="415.2586206896552" y="668.3103448275862" type="line"/>
      <point x="368.47586206896557" y="702.1379310344828" type="line"/>
      <point x="363.648275862069" y="700.5862068965517" type="line"/>
      <point x="363.648275862069" y="557.1206896551724" type="line" smooth="yes"/>
      <point x="363.648275862069" y="501.06551724137927"/>
      <point x="366.22413793103453" y="448.2931034482759"/>
      <point x="370.3793103448276" y="401.1448275862069" type="curve"/>
      <point x="376.9793103448276" y="407.36551724137934" type="line"/>
      <point x="314.9413793103448" y="571.7586206896552"/>
      <point x="249.41379310344828" y="627.551724137931"/>
      <point x="172.6448275862069" y="627.551724137931" type="curve" smooth="yes"/>
      <point x="90.2" y="627.551724137931"/>
      <point x="30.089655172413796" y="559.1724137931035"/>
      <point x="30.089655172413796" y="451.0896551724138" type="curve" smooth="yes"/>
      <point x="30.089655172413796" y="326.79655172413794"/>
      <point x="108.24137931034483" y="262.5931034482758"/>
      <point x="181.77241379310342" y="262.5931034482758" type="curve" smooth="yes"/>
      <point x="239.51724137931038" y="262.5931034482758"/>
      <point x="271.94827586206895" y="298.6068965517241"/>
      <point x="271.94827586206895" y="351.1103448275862" type="curve" smooth="yes"/>
      <point x="271.94827586206895" y="399.7586206896552"/>
      <point x="242.3931034482759" y="435.6"/>
      <point x="196.1896551724138" y="435.6" type="curve" smooth="yes"/>
      <point x="155.70000000000002" y="435.6"/>
      <point x="127.32758620689654" y="404.8379310344827"/>
      <point x="127.32758620689654" y="360.6310344827586" type="curve" smooth="yes"/>
      <point x="127.32758620689654" y="345.2758620689655"/>
      <point x="131.52068965517242" y="327.6413793103448"/>
      <point x="137.75862068965515" y="318.06551724137927" type="curve"/>
      <point x="175.84137931034482" y="347.9310344827586" type="line"/>
      <point x="166.18275862068967" y="345.46206896551723"/>
      <point x="156.34482758620692" y="344.0758620689655"/>
      <point x="147.0" y="344.0758620689655" type="curve" smooth="yes"/>
      <point x="115.71724137931034" y="344.0758620689655"/>
      <point x="90.7448275862069" y="376.79655172413794"/>
      <point x="90.7448275862069" y="428.7068965517241" type="curve" smooth="yes"/>
      <point x="90.7448275862069" y="492.1379310344828"/>
      <point x="128.9655172413793" y="531.3103448275863"/>
      <point x="188.1448275862069" y="531.3103448275863" type="curve" smooth="yes"/>
      <point x="257.9931034482759" y="531.3103448275863"/>
      <point x="312.2103448275862" y="485.3206896551724"/>
      <point x="370.9896551724138" y="324.2896551724138" type="curve"/>
      <point x="363.0689655172414" y="383.3827586206897" type="line"/>
      <point x="363.0689655172414" y="2.4482758620689653" type="line"/>
    </contour>
  </outline>
</glyph>
<glyph name="ta-beng" format="2">
  <advance width="518.9931034482759"/>
  <unicode hex="09A4"/>
  <anchor x="374.1827586206897" y="32.172413793103445" name="bottom"/>
  <anchor x="445.451724137931" y="0.7241379310344827" name="bottom.rakaar"/>
  <anchor x="383.21724137931034" y="43.137931034482754" name="bottom.rvocalic"/>
  <anchor x="328.6" y="17.689655172413794" name="bottom.virama"/>
  <anchor x="308.2344827586207" y="573.5862068965517" name="top"/>
  <anchor x="310.1758620689655" y="570.2758620689655" name="topright"/>
  <anchor x="259.49655172413793" y="0.0" name="vedic"/>
  <outline>
    <contour>
      <point x="310.25517241379316" y="45.41379310344827" type="curve" smooth="yes"/>
      <point x="413.5931034482759" y="45.41379310344827"/>
      <point x="492.3724137931035" y="115.82758620689654"/>
      <point x="492.3724137931035" y="264.8862068965517" type="curve" smooth="yes"/>
      <point x="492.3724137931035" y="405.03793103448277"/>
      <point x="420.85172413793106" y="507.17241379310343"/>
      <point x="296.99655172413793" y="507.17241379310343" type="curve" smooth="yes"/>
      <point x="221.80344827586208" y="507.17241379310343"/>
      <point x="176.8137931034483" y="459.6793103448276"/>
      <point x="176.8137931034483" y="388.2068965517241" type="curve" smooth="yes"/>
      <point x="176.8137931034483" y="329.66896551724136"/>
      <point x="211.70344827586206" y="282.3586206896552"/>
      <point x="274.09655172413795" y="282.3586206896552" type="curve" smooth="yes"/>
      <point x="329.26206896551724" y="282.3586206896552"/>
      <point x="360.86551724137934" y="324.2068965517241"/>
      <point x="360.86551724137934" y="375.55172413793105" type="curve" smooth="yes"/>
      <point x="360.86551724137934" y="412.50689655172414"/>
      <point x="344.6586206896552" y="443.3103448275862"/>
      <point x="331.2068965517241" y="458.58620689655174" type="curve"/>
      <point x="301.05172413793105" y="407.3103448275862" type="line"/>
      <point x="311.14482758620693" y="411.8620689655172"/>
      <point x="326.89310344827584" y="415.51724137931035"/>
      <point x="343.93103448275866" y="415.51724137931035" type="curve" smooth="yes"/>
      <point x="393.09655172413795" y="415.51724137931035"/>
      <point x="435.35862068965514" y="377.46206896551723"/>
      <point x="435.35862068965514" y="286.8862068965517" type="curve" smooth="yes"/>
      <point x="435.35862068965514" y="187.6551724137931"/>
      <point x="381.18965517241384" y="143.54827586206895"/>
      <point x="307.1724137931035" y="143.54827586206895" type="curve" smooth="yes"/>
      <point x="190.02068965517242" y="143.54827586206895"/>
      <point x="113.06206896551724" y="232.94482758620688"/>
      <point x="53.11379310344828" y="498.7689655172414" type="curve"/>
      <point x="9.689655172413792" y="488.13793103448273" type="line"/>
      <point x="68.99655172413793" y="171.41379310344828"/>
      <point x="160.151724137931" y="45.41379310344827"/>
    </contour>
    <contour>
      <point x="3.731034482758621" y="564.4827586206897" type="line"/>
      <point x="546.848275862069" y="564.4827586206897" type="line"/>
      <point x="514.1793103448276" y="622.0" type="line"/>
      <point x="-27.855172413793102" y="622.0" type="line"/>
    </contour>
  </outline>
</glyph>
<glyph name="tha-beng" format="2">
  <advance width="478.24482758620695"/>
  <unicode hex="09A5"/>
  <anchor x="404.6896551724138" y="31.103448275862068" name="bottom"/>
  <anchor x="409.74482758620684" y="74.6896551724138" name="bottom.rakaar"/>
  <anchor x="409.74482758620684" y="11.337931034482757" name="bottom.rvocalic"/>
  <anchor x="393.1724137931035" y="8.206896551724139" name="bottom.virama"/>
  <anchor x="395.2310344827586" y="563.5862068965517" name="top"/>
  <anchor x="377.49655172413793" y="555.3103448275862" name="topright"/>
  <anchor x="238.82758620689654" y="0.0" name="vedic"/>
  <outline>
    <contour>
      <point x="403.83448275862077" y="-16.03448275862069" type="line"/>
      <point x="409.74482758620684" y="-14.758620689655173" type="line"/>
      <point x="409.74482758620684" y="564.4827586206897" type="line"/>
      <point x="506.09999999999997" y="564.4827586206897" type="line"/>
      <point x="473.48965517241373" y="622.0" type="line"/>
      <point x="406.1" y="622.0" type="line"/>
      <point x="400.4896551724138" y="668.3103448275862" type="line"/>
      <point x="352.93448275862073" y="702.1379310344828" type="line"/>
      <point x="348.3" y="700.5862068965517" type="line"/>
      <point x="348.3" y="81.50344827586207" type="line"/>
      <point x="359.1379310344828" y="89.81379310344828" type="line"/>
      <point x="318.3931034482759" y="196.73103448275862"/>
      <point x="237.78965517241383" y="263.69310344827585"/>
      <point x="153.21379310344827" y="295.6862068965517" type="curve"/>
      <point x="161.28620689655173" y="272.5758620689655" type="line"/>
      <point x="248.48620689655172" y="292.2758620689656"/>
      <point x="297.39310344827584" y="345.14827586206894"/>
      <point x="297.39310344827584" y="445.6620689655173" type="curve" smooth="yes"/>
      <point x="297.39310344827584" y="562.251724137931"/>
      <point x="230.13103448275862" y="625.3862068965517"/>
      <point x="142.63793103448276" y="625.3862068965517" type="curve" smooth="yes"/>
      <point x="71.81724137931035" y="625.3862068965517"/>
      <point x="18.924137931034483" y="573.344827586207"/>
      <point x="18.924137931034483" y="507.9551724137932" type="curve" smooth="yes"/>
      <point x="18.924137931034483" y="451.3862068965517"/>
      <point x="52.803448275862074" y="420.9448275862069"/>
      <point x="94.12068965517241" y="420.9448275862069" type="curve" smooth="yes"/>
      <point x="135.54827586206898" y="420.9448275862069"/>
      <point x="159.51379310344828" y="447.5655172413793"/>
      <point x="159.51379310344828" y="486.9034482758621" type="curve" smooth="yes"/>
      <point x="159.51379310344828" y="516.4758620689655"/>
      <point x="147.34827586206896" y="536.8827586206897"/>
      <point x="124.7896551724138" y="546.1758620689654" type="curve"/>
      <point x="125.59655172413792" y="521.6551724137931" type="line"/>
      <point x="134.27241379310345" y="541.9310344827586"/>
      <point x="150.94482758620688" y="555.1172413793103"/>
      <point x="173.0344827586207" y="555.1172413793103" type="curve" smooth="yes"/>
      <point x="210.94137931034481" y="555.1172413793103"/>
      <point x="237.23103448275862" y="520.6413793103449"/>
      <point x="237.23103448275862" y="465.1379310344828" type="curve" smooth="yes"/>
      <point x="237.23103448275862" y="372.97241379310344"/>
      <point x="147.82758620689657" y="344.9448275862069"/>
      <point x="54.275862068965516" y="343.57586206896553" type="curve"/>
      <point x="92.87931034482759" y="225.8896551724138" type="line"/>
      <point x="209.3344827586207" y="209.02758620689653"/>
      <point x="297.851724137931" y="138.2241379310345"/>
      <point x="356.05172413793105" y="22.151724137931033" type="curve"/>
    </contour>
  </outline>
</glyph>
<glyph name="da-beng" format="2">
  <advance width="446.0241379310345"/>
  <unicode hex="09A6"/>
  <anchor x="370.72068965517246" y="81.4" name="bottom"/>
  <anchor x="382.5689655172414" y="66.6896551724138" name="bottom.rakaar"/>
  <anchor x="381.4103448275862" y="2.551724137931033" name="bottom.rvocalic"/>
  <anchor x="367.2" y="-7.172413793103449" name="bottom.virama"/>
  <anchor x="110.30689655172414" y="573.5862068965517" name="top"/>
  <anchor x="112.33103448275862" y="570.2758620689655" name="topright"/>
  <anchor x="222.86206896551727" y="0.0" name="vedic"/>
  <outline>
    <contour>
      <point x="339.91034482758624" y="-23.3448275862069" type="curve"/>
      <point x="381.4103448275862" y="-8.137931034482762" type="line"/>
      <point x="362.248275862069" y="55.33793103448275"/>
      <point x="352.76551724137937" y="112.17586206896551"/>
      <point x="352.76551724137937" y="173.00344827586204" type="curve" smooth="yes"/>
      <point x="352.76551724137937" y="256.04137931034484"/>
      <point x="372.3" y="338.2068965517241"/>
      <point x="411.49310344827586" y="412.48275862068965" type="curve"/>
      <point x="324.09655172413795" y="491.9206896551724" type="line"/>
      <point x="239.43793103448277" y="432.65862068965515"/>
      <point x="155.93103448275863" y="351.01724137931035"/>
      <point x="101.81724137931036" y="279.70344827586206" type="curve"/>
      <point x="122.13448275862069" y="258.51724137931035" type="line"/>
      <point x="122.13448275862069" y="564.4827586206897" type="line"/>
      <point x="473.8793103448277" y="564.4827586206897" type="line"/>
      <point x="441.56896551724134" y="622.0" type="line"/>
      <point x="-27.855172413793102" y="622.0" type="line"/>
      <point x="4.731034482758622" y="564.4827586206897" type="line"/>
      <point x="60.49655172413793" y="564.4827586206897" type="line"/>
      <point x="60.49655172413793" y="205.60689655172413" type="line"/>
      <point x="119.67586206896553" y="165.68620689655174" type="line"/>
      <point x="194.87586206896555" y="259.21379310344827"/>
      <point x="267.4068965517242" y="337.90344827586205"/>
      <point x="347.17931034482757" y="399.0310344827586" type="curve"/>
      <point x="327.62068965517244" y="412.0344827586207" type="line"/>
      <point x="303.21379310344827" y="348.46206896551723"/>
      <point x="291.2034482758621" y="281.94827586206895"/>
      <point x="291.2034482758621" y="211.02758620689656" type="curve" smooth="yes"/>
      <point x="291.2034482758621" y="128.14482758620687"/>
      <point x="310.94482758620694" y="49.96896551724138"/>
    </contour>
  </outline>
</glyph>
<glyph name="dha-beng" format="2">
  <advance width="446.09655172413795"/>
  <unicode hex="09A7"/>
  <anchor x="372.77241379310345" y="31.103448275862068" name="bottom"/>
  <anchor x="373.8931034482759" y="74.6896551724138" name="bottom.rakaar"/>
  <anchor x="377.32068965517243" y="8.924137931034483" name="bottom.rvocalic"/>
  <anchor x="363.66896551724136" y="8.206896551724139" name="bottom.virama"/>
  <anchor x="365.1896551724138" y="573.5862068965517" name="top"/>
  <anchor x="367.1310344827586" y="570.2758620689655" name="topright"/>
  <anchor x="223.0068965517241" y="0.0" name="vedic"/>
  <outline>
    <contour>
      <point x="370.7103448275862" y="-16.03448275862069" type="line"/>
      <point x="377.32068965517243" y="-14.758620689655173" type="line"/>
      <point x="377.32068965517243" y="564.4827586206897" type="line"/>
      <point x="473.7586206896551" y="564.4827586206897" type="line"/>
      <point x="441.08965517241376" y="622.0" type="line"/>
      <point x="315.68275862068964" y="622.0" type="line"/>
      <point x="315.68275862068964" y="485.1965517241379" type="line"/>
      <point x="322.8689655172414" y="512.1758620689656" type="line"/>
      <point x="213.26206896551724" y="466.3620689655172"/>
      <point x="115.39655172413792" y="411.74827586206897"/>
      <point x="18.39655172413793" y="338.4448275862069" type="curve"/>
      <point x="72.41379310344827" y="219.5758620689655" type="line"/>
      <point x="181.7551724137931" y="192.70000000000002"/>
      <point x="268.4413793103448" y="130.81724137931036"/>
      <point x="324.6413793103448" y="18.024137931034485" type="curve"/>
    </contour>
    <contour>
      <point x="315.68275862068964" y="80.17586206896553" type="line"/>
      <point x="328.4275862068966" y="82.7551724137931" type="line"/>
      <point x="284.92068965517245" y="203.2448275862069"/>
      <point x="189.6" y="270.2"/>
      <point x="103.53793103448275" y="299.34137931034485" type="curve"/>
      <point x="110.78620689655172" y="280.6241379310345" type="line"/>
      <point x="174.23103448275864" y="335.96206896551723"/>
      <point x="256.71724137931034" y="378.4896551724138"/>
      <point x="326.84137931034485" y="409.4413793103448" type="curve"/>
      <point x="315.68275862068964" y="435.1551724137931" type="line"/>
    </contour>
    <contour>
      <point x="172.65172413793104" y="404.0" type="curve"/>
      <point x="195.15862068965518" y="436.82758620689657" type="line"/>
      <point x="145.69310344827588" y="441.4275862068966"/>
      <point x="116.82068965517242" y="472.90000000000003"/>
      <point x="116.82068965517242" y="506.11724137931037" type="curve" smooth="yes"/>
      <point x="116.82068965517242" y="539.9241379310345"/>
      <point x="135.76896551724136" y="558.1862068965518"/>
      <point x="161.10689655172413" y="558.1862068965518" type="curve" smooth="yes"/>
      <point x="167.70689655172413" y="558.1862068965518"/>
      <point x="174.8" y="557.1862068965518"/>
      <point x="182.59310344827585" y="554.1862068965518" type="curve"/>
      <point x="150.26896551724138" y="590.0" type="line"/>
      <point x="143.3931034482759" y="578.448275862069"/>
      <point x="141.09310344827588" y="563.6655172413793"/>
      <point x="141.09310344827588" y="550.7931034482758" type="curve" smooth="yes"/>
      <point x="141.09310344827588" y="513.9655172413793"/>
      <point x="165.38275862068966" y="494.6448275862069"/>
      <point x="193.55172413793105" y="494.6448275862069" type="curve" smooth="yes"/>
      <point x="224.33448275862068" y="494.6448275862069"/>
      <point x="248.8310344827586" y="518.2413793103449"/>
      <point x="248.8310344827586" y="555.6206896551724" type="curve" smooth="yes"/>
      <point x="248.8310344827586" y="598.551724137931"/>
      <point x="220.8413793103448" y="633.4827586206897"/>
      <point x="163.26896551724138" y="633.4827586206897" type="curve" smooth="yes"/>
      <point x="97.72068965517241" y="633.4827586206897"/>
      <point x="52.35172413793103" y="588.3793103448276"/>
      <point x="52.35172413793103" y="522.7241379310345" type="curve" smooth="yes"/>
      <point x="52.35172413793103" y="442.7931034482759"/>
      <point x="124.16896551724138" y="404.0"/>
    </contour>
  </outline>
</glyph>
<glyph name="na-beng" format="2">
  <advance width="452.7448275862069"/>
  <unicode hex="09A8"/>
  <anchor x="371.67931034482757" y="72.57241379310345" name="bottom"/>
  <anchor x="382.8103448275862" y="74.6896551724138" name="bottom.rakaar"/>
  <anchor x="382.03793103448277" y="9.344827586206897" name="bottom.rvocalic"/>
  <anchor x="365.4655172413793" y="8.206896551724139" name="bottom.virama"/>
  <anchor x="370.1" y="573.5862068965517" name="top"/>
  <anchor x="372.31724137931036" y="570.2758620689655" name="topright"/>
  <anchor x="226.27586206896552" y="0.0" name="vedic"/>
  <outline>
    <contour>
      <point x="376.2103448275862" y="-16.586206896551726" type="line"/>
      <point x="382.03793103448277" y="-15.310344827586206" type="line"/>
      <point x="382.03793103448277" y="564.4827586206897" type="line"/>
      <point x="480.40689655172423" y="564.4827586206897" type="line"/>
      <point x="448.0965517241379" y="622.0" type="line"/>
      <point x="-27.855172413793102" y="622.0" type="line"/>
      <point x="4.537931034482759" y="564.4827586206897" type="line"/>
      <point x="320.6758620689655" y="564.4827586206897" type="line"/>
      <point x="320.6758620689655" y="334.37931034482756" type="line" smooth="yes"/>
      <point x="320.6758620689655" y="275.02413793103443"/>
      <point x="327.07241379310346" y="212.05172413793102"/>
      <point x="330.51724137931035" y="173.85172413793103" type="curve"/>
      <point x="337.7413793103449" y="166.05172413793102" type="line"/>
      <point x="323.29655172413794" y="300.3551724137931"/>
      <point x="252.48275862068965" y="425.6620689655173"/>
      <point x="134.45172413793105" y="425.6620689655173" type="curve" smooth="yes"/>
      <point x="69.78275862068966" y="425.6620689655173"/>
      <point x="22.5" y="382.08965517241376"/>
      <point x="22.5" y="310.9793103448276" type="curve" smooth="yes"/>
      <point x="22.5" y="249.53103448275863"/>
      <point x="57.06896551724138" y="200.6"/>
      <point x="119.34137931034482" y="200.6" type="curve" smooth="yes"/>
      <point x="175.0" y="200.6"/>
      <point x="204.05862068965516" y="240.6103448275862"/>
      <point x="204.05862068965516" y="290.95862068965516" type="curve" smooth="yes"/>
      <point x="204.05862068965516" y="313.14482758620693"/>
      <point x="197.23103448275864" y="339.8689655172414"/>
      <point x="179.9758620689655" y="352.8896551724138" type="curve"/>
      <point x="156.4586206896552" y="310.77241379310345" type="line"/>
      <point x="164.52758620689656" y="316.4344827586207"/>
      <point x="178.1793103448276" y="319.4551724137931"/>
      <point x="191.3793103448276" y="319.4551724137931" type="curve" smooth="yes"/>
      <point x="272.3551724137931" y="319.4551724137931"/>
      <point x="323.6" y="147.12758620689655"/>
      <point x="332.01379310344834" y="20.024137931034485" type="curve"/>
    </contour>
  </outline>
</glyph>
